<svg width="100" height="100" viewBox="0 0 100 100" fill="none" xmlns="http://www.w3.org/2000/svg">
<g clip-path="url(#clip0)">
<rect width="100" height="100" fill="white"/>
<circle opacity="0.5" cx="50.1" cy="50.05" r="50.025" fill="#DBD4FB"/>
<mask id="mask0" mask-type="alpha" maskUnits="userSpaceOnUse" x="0" y="0" width="101" height="101">
<circle cx="50.1" cy="50.05" r="50.025" fill="#DBD4FB"/>
</mask>
<g mask="url(#mask0)">
<path d="M81.7135 66.1979C84.3361 59.4192 72.1225 48.3763 54.4337 41.533C36.7449 34.6896 20.2794 34.6372 17.6569 41.416C15.0343 48.1947 27.2479 59.2376 44.9367 66.0809C62.6255 72.9243 79.091 72.9766 81.7135 66.1979Z" fill="#2C2746"/>
<path d="M69.3028 12.35L66.4096 52.7917L40.0229 40.4858L69.3028 12.35Z" fill="#2C2746"/>
<path d="M58.4582 56.0513C58.6398 62.8913 54.844 70.2624 49.3684 70.2624C45.7089 70.2624 41.9676 65.6658 39.6067 61.3347C38.0902 59.2195 37.2729 57.5072 37.2729 55.6484C37.2729 50.0537 41.7134 45.512 47.1981 45.512C52.6738 45.512 58.2947 50.1727 58.4582 56.0513Z" fill="#2C2746"/>
<path d="M32.7567 66.0041C31.9571 71.3529 36.7867 76.4504 39.9615 77.0805C40.4872 79.5145 41.4421 84.679 40.9904 85.8706C40.5388 87.0622 33.3415 89.9834 29.7982 91.3017C30.2747 92.2001 33.2414 94.8061 41.2402 97.995C57.6581 103.118 65.0723 90.7737 65.1432 90.1369C50.2851 81.0028 52.9223 73.4112 52.9982 72.8398C53.2908 72.8705 56.5551 70.8232 57.8901 68.5654C58.9213 66.8304 59.3529 65.5482 59.5581 63.5331C59.8023 61.1598 59.7701 59.6755 58.916 57.4373C57.0442 52.5389 51.6415 50.1814 47.886 49.7264C44.1295 49.2583 41.3985 51.555 38.5489 55.0841C35.4444 58.9086 33.5554 60.6422 32.7567 66.0041Z" fill="#B7A8F6"/>
<path d="M52.179 70.5057C51.3142 70.4453 50.841 69.7916 50.7201 69.4717C50.6758 69.851 50.6752 70.6499 51.0507 70.8096C51.4153 70.9859 51.9618 70.6786 52.179 70.5057Z" fill="#6F52ED"/>
<path d="M56.0116 66.3368C54.9145 65.9805 53.8002 66.8042 53.372 67.2613C53.372 67.2613 54.6473 66.8229 55.4844 66.8835C56.281 66.9334 56.7394 67.5844 56.7394 67.5844C56.7553 67.2679 56.6243 66.5787 56.0116 66.3368Z" fill="#6F52ED"/>
<path d="M48.2014 74.9285C48.2014 74.9285 46.4167 76.3109 40.2103 76.9107C40.2103 76.9107 41.3557 83.8459 41.3847 84.0586C45.5517 78.3224 48.2014 74.9285 48.2014 74.9285Z" fill="#6F52ED"/>
<path fill-rule="evenodd" clip-rule="evenodd" d="M39.4998 61.2852C39.6213 61.1695 39.8132 61.1749 39.9284 61.2972C40.0436 61.4195 40.0384 61.6124 39.9168 61.728L39.7083 61.5066L39.4998 61.2852ZM38.2047 66.7539C38.0434 67.0119 38.0434 67.0118 38.0433 67.0118L38.0426 67.0114L38.0413 67.0105L38.0368 67.0076C38.033 67.0052 38.0277 67.0018 38.0209 66.9974C38.0074 66.9886 37.9883 66.9759 37.9643 66.9596C37.9163 66.927 37.8488 66.8799 37.7688 66.8205C37.6096 66.7023 37.3976 66.533 37.1911 66.331C36.9864 66.1306 36.7763 65.8876 36.6316 65.6205C36.4875 65.3544 36.3927 65.0346 36.4717 64.7012C36.5035 64.5643 36.594 64.4155 36.6836 64.2857C36.7813 64.1441 36.9092 63.9825 37.0533 63.8119C37.3421 63.4701 37.711 63.0749 38.0718 62.7024C38.4334 62.329 38.7902 61.9749 39.0564 61.7143C39.1896 61.584 39.3002 61.4769 39.3777 61.4023C39.4164 61.365 39.4468 61.3358 39.4676 61.3159L39.4914 61.2932L39.4998 61.2852C39.4998 61.2852 39.4998 61.2852 39.7083 61.5066C39.9168 61.728 39.9168 61.728 39.9168 61.728L39.9091 61.7354L39.8859 61.7575C39.8656 61.777 39.8356 61.8057 39.7974 61.8425C39.721 61.9161 39.6115 62.0221 39.4797 62.1512C39.2158 62.4094 38.8631 62.7595 38.5065 63.1277C38.1492 63.4967 37.7913 63.8804 37.5157 64.2067C37.3776 64.3701 37.2637 64.5149 37.1818 64.6335C37.1409 64.6928 37.1104 64.742 37.0894 64.7811C37.0686 64.8199 37.0628 64.8382 37.0622 64.8402C37.0622 64.8403 37.0622 64.8404 37.0622 64.8403L37.0619 64.8413L37.0617 64.8423C37.0301 64.9753 37.0596 65.1364 37.1641 65.3293C37.2682 65.5215 37.4315 65.7158 37.614 65.8944C37.7947 66.0713 37.9838 66.2226 38.1288 66.3303C38.201 66.3839 38.2614 66.4261 38.3033 66.4545C38.3243 66.4687 38.3405 66.4795 38.3513 66.4865C38.3566 66.49 38.3606 66.4926 38.3631 66.4941L38.3657 66.4958L38.3659 66.496C38.5078 66.5856 38.5505 66.7738 38.4614 66.9162C38.3724 67.0587 38.1852 67.1015 38.0434 67.0119L38.2047 66.7539Z" fill="#2C2746"/>
<path d="M38.2687 48.3379C36.5532 51.4099 49.8192 60.1513 56.1856 63.5631L54.7824 65.7839C55.4583 65.628 57.2984 65.2535 57.6981 66.6032C58.3465 69.3665 54.7751 70.5279 52.3794 70.7602C52.6664 71.6453 52.9726 73.1334 52.9726 73.1334C66.1088 65.6175 59.8693 53.6947 56.941 50.4586C56.3542 48.6893 55.5511 44.7288 52.1582 43.9453C45.9804 42.5297 44.9052 47.3933 44.9052 47.3933C44.9052 47.3933 39.9843 45.2659 38.2687 48.3379Z" fill="#2C2746"/>
<path d="M44.7971 63.4116C45.1473 62.9336 45.1995 62.3764 44.9139 62.1672C44.6282 61.958 44.1128 62.1759 43.7626 62.6539C43.4125 63.132 43.3602 63.6891 43.6459 63.8984C43.9316 64.1076 44.447 63.8897 44.7971 63.4116Z" fill="#2C2746"/>
<path d="M37.9902 59.9905C38.1854 59.4387 38.073 58.8956 37.7392 58.7775C37.4054 58.6594 36.9765 59.011 36.7813 59.5629C36.5861 60.1147 36.6985 60.6578 37.0323 60.7759C37.3661 60.8939 37.795 60.5423 37.9902 59.9905Z" fill="#2C2746"/>
<path fill-rule="evenodd" clip-rule="evenodd" d="M49.5758 74.5367C49.6675 74.6974 49.6124 74.9023 49.4527 74.9943C48.2429 75.6918 46.5057 76.2348 44.8503 76.6324C43.1878 77.0318 41.5764 77.2916 40.5984 77.4126C40.4156 77.4352 40.2491 77.3045 40.2265 77.1207C40.2039 76.937 40.3337 76.7696 40.5164 76.747C41.4732 76.6287 43.0598 76.373 44.6949 75.9802C46.3371 75.5858 47.9971 75.0602 49.1206 74.4125C49.2803 74.3205 49.4841 74.3761 49.5758 74.5367Z" fill="#2C2746"/>
<path d="M41.7892 54.4C40.9332 55.2595 33.1039 54.1875 35.2441 48.6C44.8034 53.471 62.5524 63.5569 57.0736 64.9323C51.5948 66.3076 51.3665 63.2131 51.9373 61.4939C47.8282 63.2131 46.5155 59.918 46.3729 58.0555C40.2092 58.3994 40.5051 56.4057 41.7892 54.4Z" fill="#2C2746"/>
<path d="M58.5316 85.5973L44.1632 91.764L40.3278 85.5626C39.1008 85.3497 35.1539 85.7604 29.1755 88.9876C23.1971 92.2148 13.0963 100.685 10.8468 106.426L25.9621 118.902L23.1437 136.84C42.2494 132.983 57.7957 141.017 63.1718 145.505C63.7015 134.41 65.3348 112.073 67.6423 111.53C69.9455 110.974 75.9684 115.113 78.693 117.255L88.4901 98.6103C78.6628 90.2872 63.4545 87.7751 58.5316 85.5973Z" fill="#00C471"/>
<path d="M24.0797 104.405C25.245 104.047 25.8512 102.655 25.4337 101.295C25.0162 99.9359 23.733 99.1239 22.5677 99.4818C21.4025 99.8397 20.7963 101.232 21.2138 102.591C21.6313 103.951 22.9144 104.763 24.0797 104.405Z" fill="white"/>
<path d="M43.6621 103.009C44.8274 102.651 45.4336 101.259 45.016 99.8997C44.5985 98.5402 43.3154 97.7282 42.1501 98.0861C40.9848 98.4439 40.3786 99.8361 40.7961 101.196C41.2137 102.555 42.4968 103.367 43.6621 103.009Z" fill="white"/>
<path d="M62.2998 97.2851C63.6593 96.8676 64.4229 95.4271 64.0054 94.0675C63.5879 92.708 62.1474 91.9444 60.7879 92.3619C59.4284 92.7794 58.6647 94.22 59.0822 95.5795C59.4997 96.939 60.9403 97.7026 62.2998 97.2851Z" fill="white"/>
<path fill-rule="evenodd" clip-rule="evenodd" d="M39.7007 84.2296C39.8637 84.1221 40.0829 84.1694 40.1905 84.3352L44.6007 91.1348L55.1538 86.6223C55.3331 86.5456 55.5411 86.6311 55.6183 86.8133C55.6955 86.9954 55.6128 87.2052 55.4335 87.2819L44.3368 92.0268L39.6005 84.7245C39.4929 84.5587 39.5378 84.3371 39.7007 84.2296Z" fill="#2C2746"/>
</g>
<path d="M56.8856 68.7064C55.1503 70.9592 53.1097 70.8398 52.3063 70.4984C51.9207 76.028 55.1985 75.6164 56.8856 74.7194C59.0065 76.2529 60.0188 74.9338 60.2598 74.0825C62.7664 74.9017 63.0716 73.0585 62.911 72.0345C63.875 71.5225 63.875 70.2425 63.875 68.4505C63.875 67.0169 62.1076 66.8291 61.2239 66.9144C60.5008 66.5731 58.6209 66.4536 56.8856 68.7064Z" fill="#2C2746"/>
</g>
<defs>
<clipPath id="clip0">
<rect width="100" height="100" fill="white"/>
</clipPath>
</defs>
</svg>
