<svg width="800" height="564" viewBox="0 0 800 564" fill="none" xmlns="http://www.w3.org/2000/svg">
<rect width="800" height="563.034" fill="white"/>
<circle cx="378.792" cy="248.512" r="165.359" fill="#F5F3FE"/>
<path d="M516.084 347.275C489.377 368.466 452.51 375.578 419.997 365.273C389.952 355.693 364.697 331.454 353.956 301.699C343.36 272.234 345.537 237.254 322.604 213.305C316.363 206.918 309.106 201.693 301.122 198.21C303.59 190.227 305.477 182.098 306.638 173.825C310.267 146.392 303.59 115.186 281.383 96.8975C258.449 78.0285 225.066 79.48 200.101 93.414C171.652 109.235 153.509 137.829 140.881 167.003C137.543 174.841 134.495 182.679 131.446 190.662C130.866 192.114 133.188 192.694 133.769 191.243C144.8 161.488 158.008 131.152 181.957 109.38C204.745 88.6242 238.419 77.4479 267.739 91.2368C294.736 103.865 306.203 135.071 305.041 163.229C304.606 174.841 302.139 186.163 298.8 197.339C281.963 190.372 262.804 189.936 245.531 197.339C221.292 207.789 196.907 236.964 206.342 264.832C210.261 276.734 220.421 285.297 233.049 285.733C246.983 286.168 259.466 278.185 267.884 267.59C278.044 254.962 284.431 239.141 290.817 224.481C294.301 216.643 297.349 208.66 300.106 200.532C317.234 208.805 330.587 224.336 336.974 243.205C346.118 270.493 346.118 299.667 362.519 324.487C378.195 348.291 403.451 365.708 431.609 370.789C461.799 376.304 493.587 368.176 517.536 349.162C518.842 348.001 517.245 346.404 516.084 347.275ZM293.575 212.434C287.624 227.529 281.092 242.915 272.674 256.704C264.546 270.057 252.353 282.54 235.807 283.265C217.954 284.136 206.487 268.315 207.068 251.478C208.084 219.982 239.871 195.016 269.771 193.855C279.931 193.42 289.511 195.452 298.22 199.226C296.768 203.87 295.171 208.225 293.575 212.434Z" fill="#DBD4FB"/>
<path d="M567.321 63.3218C566.74 61.8703 564.418 62.5961 564.999 63.9024C574.143 87.1258 569.063 114.994 551.21 132.702C542.065 141.846 529.728 147.797 516.81 150.119C526.244 130.96 522.616 106.285 500.118 97.286C488.942 92.7865 476.459 95.3991 468.621 104.543C461.364 112.962 458.897 125.154 464.702 135.024C471.379 146.055 485.168 151.135 497.36 152.877C502.44 153.603 507.521 153.603 512.746 153.022C511.149 155.49 509.407 157.812 507.375 159.844C483.281 185.1 444.527 179.439 413.756 174.359C412.305 174.068 411.579 176.391 413.176 176.681C444.527 181.906 483.571 187.422 508.391 162.166C511.149 159.263 513.617 156.07 515.504 152.732C523.632 151.571 531.47 148.958 538.582 145.039C567.321 129.363 579.078 93.3671 567.321 63.3218ZM481.394 145.91C469.637 140.394 460.929 129.508 464.993 116.155C468.767 103.963 480.669 95.6894 493.441 97.8666C505.924 100.044 516.52 110.204 519.132 122.541C521.164 132.121 518.987 142.136 514.197 150.555C503.166 152.006 491.554 150.555 481.394 145.91Z" fill="#DBD4FB"/>
<rect x="277.537" y="94.8087" width="27.6812" height="27.6812" fill="#0084F4"/>
<path d="M560.975 48.1877C560.454 53.7569 557.762 53.4089 555.806 53.989C560.882 54.7273 560.51 58.1554 560.975 59.843C561.72 54.6746 563.49 54.7801 566.005 53.989C561.674 53.3561 561.488 51.0356 560.975 48.1877Z" fill="#DBD4FB"/>
<path d="M374.551 141.43C373.583 151.176 368.584 150.567 364.952 151.582C374.378 152.874 373.686 158.873 374.551 161.826C375.935 152.782 379.221 152.966 383.891 151.582C375.848 150.474 375.503 146.413 374.551 141.43Z" fill="#DBD4FB"/>
<path d="M636.794 354.138C635.826 363.884 630.827 363.275 627.195 364.29C636.621 365.582 635.929 371.581 636.794 374.535C638.178 365.49 641.464 365.675 646.134 364.29C638.092 363.183 637.746 359.122 636.794 354.138Z" fill="#DBD4FB"/>
<path d="M128.334 201.163C127.366 210.213 122.367 209.647 118.734 210.59C128.161 211.79 127.469 217.36 128.334 220.103C129.718 211.704 133.004 211.875 137.674 210.59C129.631 209.562 129.285 205.791 128.334 201.163Z" fill="#DBD4FB"/>
<rect x="189.389" y="354.138" width="48.4106" height="48.4106" transform="rotate(45 189.389 354.138)" fill="#00C471"/>
<circle cx="616.996" cy="228.844" r="67.0177" fill="#FF7B50"/>
<circle cx="213.433" cy="228.844" r="8.74144" fill="#FF3C20"/>
<path d="M405.681 515.379L469.545 441.253L435.034 431.194L405.681 515.379Z" fill="#6F52ED"/>
<path d="M629.206 213.474L490.814 270.111L289.563 360.19L356.512 389.812L389.795 405.589L406.74 515.379L435.349 431.885L564.977 469.26L629.206 213.474Z" fill="#6F52ED"/>
<path d="M378.972 400.713L436.161 361.524C428.098 363.318 406.437 367.616 384.235 370.452C362.032 373.265 350.581 382.259 347.622 386.402L378.972 400.713Z" fill="#6F52ED"/>
<path d="M620.497 220.732L394.292 402.088L389.714 405.544L406.543 515.379L435.691 431.455L620.497 220.732Z" fill="#2C2746"/>
<path d="M497.477 373.054C496.733 371.767 490.416 357.041 486.962 349.711L511.138 341.203L514.286 350.366C520.407 353.005 534.768 357.827 538.462 359.463C543.009 361.492 542.287 363.281 541.151 363.913C546.812 365.353 546.266 368.08 545.304 369.28C546.178 369.694 548.583 371.221 547.752 373.032C546.899 374.886 544.298 374.516 542.659 373.97C543.664 374.734 545.391 376.828 543.402 377.635C540.692 378.748 528.669 376.261 519.139 373.01C523.161 374.581 526.833 376.435 528.778 376.959C531.227 377.613 532.276 381.191 528.778 381.758C510.963 382.762 498.416 374.668 497.477 373.054Z" fill="#FF9D8F"/>
<path fill-rule="evenodd" clip-rule="evenodd" d="M526.958 368.88C527.026 368.609 527.304 368.442 527.58 368.509C531.225 369.384 534.977 370.589 537.814 371.572C539.233 372.065 540.425 372.502 541.263 372.817C541.682 372.975 542.013 373.101 542.239 373.189C542.352 373.233 542.439 373.267 542.497 373.29C542.527 373.301 542.549 373.31 542.564 373.316L542.587 373.325L542.587 373.325C542.588 373.325 542.588 373.325 542.395 373.794L542.587 373.325C542.851 373.43 542.978 373.724 542.872 373.983C542.766 374.242 542.466 374.368 542.203 374.263L542.326 373.961C542.203 374.263 542.203 374.263 542.203 374.263L542.202 374.263L542.181 374.255C542.171 374.251 542.158 374.246 542.142 374.239C542.134 374.236 542.126 374.233 542.116 374.229C542.059 374.207 541.973 374.173 541.862 374.13C541.639 374.044 541.312 373.918 540.896 373.762C540.065 373.45 538.881 373.015 537.471 372.526C534.65 371.548 530.934 370.355 527.336 369.491C527.06 369.425 526.891 369.151 526.958 368.88Z" fill="#2C2746"/>
<path fill-rule="evenodd" clip-rule="evenodd" d="M530.893 365.583C530.957 365.367 531.225 365.235 531.491 365.287C534.79 365.934 538.189 366.827 540.758 367.556C542.043 367.921 543.124 368.245 543.883 368.479C544.262 368.595 544.562 368.689 544.766 368.754C544.869 368.787 544.948 368.812 545.001 368.829C545.028 368.838 545.048 368.844 545.062 368.849L545.083 368.855C545.083 368.855 545.083 368.855 544.899 369.228L545.083 368.855C545.336 368.938 545.46 369.172 545.358 369.378C545.257 369.584 544.968 369.684 544.715 369.601L544.781 369.467C544.715 369.601 544.715 369.601 544.715 369.601L544.695 369.595C544.682 369.591 544.663 369.584 544.637 369.576C544.585 369.559 544.507 369.535 544.406 369.503C544.204 369.439 543.908 369.346 543.532 369.23C542.779 368.998 541.707 368.676 540.431 368.314C537.876 367.589 534.513 366.706 531.258 366.068C530.992 366.016 530.829 365.799 530.893 365.583Z" fill="#2C2746"/>
<path fill-rule="evenodd" clip-rule="evenodd" d="M525.393 358.859C525.463 358.571 525.758 358.394 526.05 358.464C529.68 359.327 533.418 360.517 536.244 361.489C537.658 361.975 538.846 362.408 539.681 362.719C540.099 362.875 540.428 363 540.653 363.087C540.766 363.13 540.853 363.164 540.911 363.186C540.941 363.198 540.963 363.207 540.978 363.213L541.001 363.221L541.001 363.222C541.001 363.222 541.001 363.222 540.799 363.719L541.001 363.222C541.28 363.332 541.416 363.643 541.304 363.918C541.193 364.193 540.876 364.326 540.596 364.216L540.762 363.81C540.596 364.216 540.596 364.216 540.596 364.216L540.575 364.208C540.561 364.202 540.539 364.194 540.511 364.182C540.453 364.16 540.368 364.127 540.257 364.085C540.035 363.999 539.709 363.875 539.295 363.721C538.467 363.412 537.288 362.983 535.884 362.5C533.074 361.533 529.374 360.356 525.794 359.505C525.502 359.435 525.322 359.146 525.393 358.859Z" fill="#2C2746"/>
<path d="M486.962 350.275L510.186 341.203L490.674 358.621L486.962 350.275Z" fill="#FF3C20"/>
<path d="M467.503 223.343C494.568 204.515 462.707 178.979 456.853 173.098C454.781 168.626 452.89 165.205 445.031 162.254C416.368 151.476 406.888 179.046 405.312 182.758C400.268 194.565 362.98 173.344 350.619 198.097C343.053 213.236 365.097 226.741 377.211 225.154C374.441 226.54 366.268 228.977 374.779 237.363C385.047 245.01 470.61 266.856 473.56 243.914C475.631 227.748 466.467 223.029 467.503 223.343Z" fill="#2C2746"/>
<path d="M479.389 159.433C468.619 147.871 455.966 157.298 451.002 163.454C448.698 171.518 459.223 181.263 463.168 182.445C473.982 185.716 492.862 173.903 479.389 159.433Z" fill="#2C2746"/>
<path d="M413.164 211.014C400.6 206.206 403.158 186.636 409.451 179.109C424.71 179.199 433.72 169.088 433.448 169.987C426.294 194.118 441.869 200.858 441.553 201.892C447.235 221.147 450.721 223.529 450.676 223.551C442.662 233.729 431.795 231.303 424.121 228.202L420.137 210.969C419.095 211.306 415.722 212.002 413.164 211.014Z" fill="#FF9D8F"/>
<path fill-rule="evenodd" clip-rule="evenodd" d="M420.371 186.053C420.585 185.823 420.909 185.85 421.096 186.114C422.02 187.421 424.819 190.146 428.424 190.436C428.707 190.459 428.922 190.761 428.903 191.11C428.885 191.459 428.64 191.724 428.357 191.701C424.404 191.383 421.37 188.429 420.322 186.947C420.136 186.683 420.158 186.283 420.371 186.053Z" fill="#2C2746"/>
<path fill-rule="evenodd" clip-rule="evenodd" d="M402.983 180.208C403.232 180.035 403.611 180.056 403.828 180.254C404.907 181.234 408.172 183.278 412.378 183.495C412.708 183.513 412.958 183.739 412.937 184.001C412.915 184.263 412.63 184.461 412.3 184.444C407.688 184.205 404.148 181.99 402.926 180.879C402.708 180.681 402.734 180.381 402.983 180.208Z" fill="#2C2746"/>
<path fill-rule="evenodd" clip-rule="evenodd" d="M414.239 185.982C414.392 186.14 414.436 186.464 414.336 186.707L414.058 186.42L413.78 186.134C413.881 185.892 414.086 185.824 414.239 185.982ZM413.793 195.533C413.686 196.028 413.686 196.028 413.685 196.028L413.685 196.028L413.683 196.027L413.678 196.024C413.673 196.022 413.667 196.018 413.659 196.013C413.643 196.004 413.62 195.991 413.591 195.974C413.533 195.939 413.451 195.889 413.354 195.823C413.16 195.692 412.899 195.498 412.635 195.249C412.374 195.003 412.097 194.689 411.881 194.311C411.665 193.934 411.487 193.449 411.487 192.873C411.487 192.635 411.544 192.356 411.606 192.109C411.672 191.84 411.765 191.528 411.872 191.194C412.087 190.526 412.372 189.739 412.653 188.993C412.935 188.246 413.217 187.531 413.428 187.004C413.533 186.741 413.621 186.523 413.683 186.372C413.714 186.296 413.738 186.237 413.755 186.197L413.774 186.15L413.78 186.134C413.781 186.134 413.78 186.134 414.058 186.42C414.336 186.707 414.336 186.707 414.336 186.707L414.329 186.722L414.311 186.766C414.295 186.806 414.271 186.864 414.24 186.939C414.18 187.088 414.093 187.303 413.988 187.564C413.779 188.086 413.501 188.793 413.223 189.53C412.944 190.268 412.668 191.031 412.463 191.669C412.361 191.988 412.278 192.267 412.223 192.492C412.195 192.604 412.175 192.696 412.163 192.767C412.151 192.836 412.15 192.868 412.149 192.872C412.149 192.873 412.149 192.873 412.149 192.873C412.149 193.092 412.217 193.337 412.372 193.609C412.527 193.879 412.743 194.131 412.975 194.35C413.206 194.567 413.438 194.74 413.615 194.86C413.702 194.919 413.775 194.964 413.825 194.994C413.851 195.009 413.87 195.02 413.883 195.028C413.889 195.031 413.894 195.034 413.897 195.036L413.9 195.037C413.9 195.038 413.9 195.037 413.9 195.037C413.9 195.037 413.9 195.037 413.793 195.533ZM413.793 195.533L413.686 196.028C413.859 196.122 414.047 195.976 414.106 195.703C414.166 195.429 414.073 195.131 413.9 195.037" fill="#2C2746"/>
<path d="M433.259 204.766C429.014 210.12 422.131 211.103 421.647 211.471L423.56 220.732L433.259 204.766Z" fill="#FF3C20"/>
<path fill-rule="evenodd" clip-rule="evenodd" d="M437.442 199.071C437.635 199.251 437.67 199.584 437.52 199.815C436.023 202.126 431.471 207.429 425.16 210.532C424.934 210.643 424.676 210.513 424.583 210.242C424.49 209.971 424.598 209.662 424.824 209.55C430.971 206.528 435.404 201.352 436.821 199.165C436.971 198.934 437.249 198.892 437.442 199.071Z" fill="#2C2746"/>
<path d="M422.373 198.96C424.377 198.96 426.001 197.66 426.001 196.057C426.001 194.454 424.377 193.154 422.373 193.154C420.369 193.154 418.744 194.454 418.744 196.057C418.744 197.66 420.369 198.96 422.373 198.96Z" fill="#FF3C20"/>
<path d="M408.531 190.947C408.202 193.347 406.251 194.937 404.229 194.546C404.229 194.546 404.323 192.537 404.699 190.138C405.029 187.738 405.593 185.897 405.593 185.897C407.614 186.315 408.86 188.575 408.531 190.947Z" fill="#FF3C20"/>
<path d="M443.093 228.348C435.38 231.05 424.985 224.775 423.367 224.111C421.749 223.447 415.476 216.851 404.416 224.111C384.822 236.958 363.588 301.219 363.588 302.043C369.307 306.44 385.842 307.952 385.842 307.127C390.807 283.058 402.532 269.821 407.763 266.203C405.524 278.157 401.246 302.043 402.044 302.043C427.822 299.753 447.925 311.914 454.73 318.28C455.395 304.585 457.013 277.196 458.32 277.196C463.152 281.387 471.486 339.326 477.005 352.815L510.186 341.433C509.632 338.227 505.775 327.715 490.725 283.448C475.653 239.18 469.27 223.355 451.294 222.256C450.297 223.607 447.282 226.722 443.093 228.348Z" fill="#00C471"/>
<path fill-rule="evenodd" clip-rule="evenodd" d="M454.164 265.734C454.541 265.686 454.895 265.895 454.955 266.2C456.759 275.492 458.396 288.421 457.813 302.924C457.801 303.233 457.481 303.475 457.099 303.465C456.717 303.455 456.418 303.196 456.43 302.887C457.01 288.471 455.382 275.614 453.587 266.374C453.528 266.068 453.786 265.782 454.164 265.734Z" fill="#2C2746"/>
<path fill-rule="evenodd" clip-rule="evenodd" d="M412.668 257.118C412.946 257.301 413.022 257.673 412.837 257.948C409.887 262.337 406.338 268.744 403.964 276.906C403.871 277.223 403.536 277.407 403.215 277.315C402.894 277.224 402.709 276.892 402.801 276.575C405.217 268.27 408.828 261.752 411.829 257.285C412.014 257.01 412.39 256.936 412.668 257.118Z" fill="#2C2746"/>
<path fill-rule="evenodd" clip-rule="evenodd" d="M461.976 262.877C462.251 263.002 462.365 263.314 462.232 263.572C461.12 265.73 459.791 268.829 459.029 272.562C458.971 272.844 458.681 273.029 458.382 272.975C458.082 272.921 457.886 272.648 457.943 272.366C458.728 268.52 460.096 265.332 461.238 263.117C461.371 262.859 461.702 262.751 461.976 262.877Z" fill="#2C2746"/>
<path fill-rule="evenodd" clip-rule="evenodd" d="M470.521 302.028C470.849 302.098 471.056 302.405 470.981 302.715C470.184 306.038 469.386 310.682 469.313 315.962C469.309 316.279 469.032 316.532 468.695 316.528C468.359 316.524 468.089 316.264 468.094 315.947C468.167 310.57 468.979 305.845 469.792 302.461C469.866 302.152 470.192 301.958 470.521 302.028Z" fill="#2C2746"/>
<path fill-rule="evenodd" clip-rule="evenodd" d="M505.805 343.1C505.899 343.437 505.737 343.797 505.444 343.905C504.824 344.133 504.182 344.368 503.522 344.61C498.461 346.464 492.292 348.723 486.263 351.323C485.975 351.447 485.654 351.279 485.547 350.948C485.439 350.616 485.585 350.247 485.872 350.123C491.93 347.512 498.127 345.242 503.185 343.39C503.846 343.148 504.487 342.913 505.106 342.685C505.398 342.578 505.712 342.763 505.805 343.1Z" fill="#2C2746"/>
<path fill-rule="evenodd" clip-rule="evenodd" d="M450.53 223.836C450.733 224.095 450.723 224.503 450.509 224.747C446.494 229.316 441.682 230.882 437.264 230.892C432.857 230.902 428.815 229.364 426.278 227.678C426.019 227.506 425.925 227.114 426.068 226.802C426.211 226.491 426.536 226.378 426.795 226.55C429.18 228.135 433.045 229.613 437.262 229.604C441.469 229.594 445.998 228.107 449.774 223.811C449.988 223.566 450.327 223.578 450.53 223.836Z" fill="#2C2746"/>
<path fill-rule="evenodd" clip-rule="evenodd" d="M405.736 301.843C402.485 302.038 400.174 302.431 399.163 302.757C398.864 302.853 398.544 302.684 398.45 302.378C398.355 302.073 398.521 301.747 398.821 301.651C399.97 301.281 402.394 300.883 405.67 300.686C408.96 300.489 413.148 300.494 417.84 300.949C427.22 301.858 438.649 304.571 448.956 311.102C449.223 311.271 449.304 311.628 449.139 311.9C448.973 312.172 448.623 312.255 448.356 312.087C438.243 305.679 427 303.001 417.733 302.103C413.101 301.654 408.972 301.649 405.736 301.843Z" fill="#2C2746"/>
<path d="M408.584 233.795C410.988 233.795 412.938 232.17 412.938 230.166C412.938 228.162 410.988 226.538 408.584 226.538C406.179 226.538 404.229 228.162 404.229 230.166C404.229 232.17 406.179 233.795 408.584 233.795Z" fill="white"/>
<path d="M441.241 262.824C443.245 262.824 444.87 261.2 444.87 259.196C444.87 257.191 443.245 255.567 441.241 255.567C439.237 255.567 437.613 257.191 437.613 259.196C437.613 261.2 439.237 262.824 441.241 262.824Z" fill="white"/>
<path d="M411.486 278.79C413.891 278.79 415.841 276.841 415.841 274.436C415.841 272.031 413.891 270.081 411.486 270.081C409.082 270.081 407.132 272.031 407.132 274.436C407.132 276.841 409.082 278.79 411.486 278.79Z" fill="white"/>
<path d="M458.659 242.504C460.663 242.504 462.288 240.554 462.288 238.149C462.288 235.744 460.663 233.795 458.659 233.795C456.655 233.795 455.03 235.744 455.03 238.149C455.03 240.554 456.655 242.504 458.659 242.504Z" fill="white"/>
<path d="M386.086 272.984C388.09 272.984 389.715 271.36 389.715 269.356C389.715 267.352 388.09 265.727 386.086 265.727C384.082 265.727 382.457 267.352 382.457 269.356C382.457 271.36 384.082 272.984 386.086 272.984Z" fill="white"/>
<path d="M422.372 299.111C424.376 299.111 426.001 297.486 426.001 295.482C426.001 293.478 424.376 291.853 422.372 291.853C420.368 291.853 418.744 293.478 418.744 295.482C418.744 297.486 420.368 299.111 422.372 299.111Z" fill="white"/>
<path d="M449.95 291.853C451.954 291.853 453.579 289.904 453.579 287.499C453.579 285.094 451.954 283.145 449.95 283.145C447.946 283.145 446.322 285.094 446.322 287.499C446.322 289.904 447.946 291.853 449.95 291.853Z" fill="white"/>
<path d="M491.317 339.752C493.722 339.752 495.671 337.802 495.671 335.397C495.671 332.993 493.722 331.043 491.317 331.043C488.912 331.043 486.962 332.993 486.962 335.397C486.962 337.802 488.912 339.752 491.317 339.752Z" fill="white"/>
<path d="M484.06 291.853C485.663 291.853 486.963 289.904 486.963 287.499C486.963 285.094 485.663 283.145 484.06 283.145C482.456 283.145 481.157 285.094 481.157 287.499C481.157 289.904 482.456 291.853 484.06 291.853Z" fill="white"/>
<path d="M378.829 303.465C380.833 303.465 382.457 301.516 382.457 299.111C382.457 296.706 380.833 294.756 378.829 294.756C376.825 294.756 375.2 296.706 375.2 299.111C375.2 301.516 376.825 303.465 378.829 303.465Z" fill="white"/>
<path d="M278.444 508.121C285.922 498.727 292.319 479.937 293.918 473.477L255.651 432.645C255.11 433.191 253.714 435.17 251.214 436.33C245.673 438.901 236.056 439.356 215.898 437.491C199.771 435.989 184.861 442.814 179.252 446.726C212.632 466.175 278.444 508.121 278.444 508.121Z" fill="#2C2746"/>
<path d="M402.794 372.827C447.086 369.99 454.198 335.785 455.03 318.063C435.878 300.746 411.166 300.994 400.836 302.863C400.836 307.412 404.64 317.86 396.808 323.782C388.976 329.705 341.916 334.906 327.422 338.982C315.832 342.247 305.412 358.798 301.541 365.756C288.825 389.018 273.858 417.278 254.728 432.343L302.283 481.995C309.643 464.611 320.22 438.783 327.422 424.957C338.135 404.375 347.43 376.362 402.794 372.827Z" fill="#FFC700"/>
<path d="M444.87 340.858C436.468 332.268 431.845 313.877 432.956 307.82C431.112 311.234 428.844 323.48 431.734 332.356C434.134 339.779 439.869 342.18 444.87 340.858Z" fill="#FF7B50"/>
<path fill-rule="evenodd" clip-rule="evenodd" d="M432.431 308.007C432.707 308.079 432.87 308.354 432.795 308.62C429.728 319.454 430.762 327.091 432.531 331.998C433.417 334.455 434.49 336.236 435.336 337.398C435.759 337.979 436.125 338.405 436.382 338.683C436.511 338.823 436.613 338.925 436.681 338.991C436.715 339.024 436.74 339.048 436.756 339.063L436.774 339.079L436.777 339.082L436.777 339.082L436.777 339.082C436.988 339.269 437.002 339.584 436.808 339.787C436.615 339.99 436.287 340.003 436.076 339.817L436.426 339.449C436.076 339.817 436.076 339.817 436.075 339.816L436.074 339.815L436.072 339.813L436.064 339.806L436.038 339.782C436.015 339.761 435.984 339.731 435.944 339.692C435.863 339.614 435.749 339.499 435.608 339.347C435.326 339.041 434.934 338.585 434.487 337.97C433.591 336.74 432.472 334.878 431.552 332.325C429.709 327.214 428.677 319.371 431.795 308.357C431.87 308.091 432.155 307.934 432.431 308.007Z" fill="#2C2746"/>
<path d="M394.455 324.415C398.332 323.266 415.198 311.641 417.292 301.908C410.029 300.466 415.621 301.908 398.644 301.908C363.396 296.997 317.945 281.519 308.877 280.978C294.729 280.122 286.752 276.45 273.451 299.43C262.801 317.814 269.797 384.141 273.362 412.325L280.737 402.592L311.662 350.211C311.305 339.713 308.854 333.697 308.854 333.697C308.854 333.697 329.776 336.243 344.815 336.243C356.957 334.508 390.021 325.722 394.455 324.415Z" fill="#FFC700"/>
<path d="M272.32 412.325C286.696 390.708 310.602 352.361 311.649 350.866C310.534 342.679 308.419 334.827 308.419 334.827C308.419 334.827 327.617 343.081 389.714 326.975C334.031 332.864 302.55 317.181 301.481 315.464C298.888 311.247 300.457 342.59 286.4 356.51C274.458 368.356 271.319 392.426 272.32 412.325Z" fill="#FF7B50"/>
<path fill-rule="evenodd" clip-rule="evenodd" d="M304.347 322.409C304.602 322.254 304.928 322.348 305.075 322.618C307.435 326.969 310.375 333.156 312.758 340.456C312.854 340.75 312.706 341.071 312.427 341.172C312.148 341.274 311.845 341.117 311.749 340.823C309.393 333.605 306.484 327.483 304.149 323.178C304.002 322.908 304.091 322.564 304.347 322.409Z" fill="#2C2746"/>
<path fill-rule="evenodd" clip-rule="evenodd" d="M351.68 389.675C348.648 390.683 346.236 392.42 344.32 394.699C344.127 394.928 343.762 394.976 343.503 394.805C343.244 394.634 343.191 394.31 343.383 394.081C345.415 391.665 348.001 389.793 351.27 388.707C354.535 387.621 358.444 387.332 363.101 388.027C363.419 388.074 363.634 388.341 363.58 388.622C363.526 388.904 363.225 389.094 362.907 389.046C358.409 388.376 354.715 388.666 351.68 389.675Z" fill="#2C2746"/>
<path d="M340.365 423.083L335.515 409.422C334.411 411.206 332.083 414.999 331.578 415.903C331.098 416.806 324.641 429.384 321.496 435.548L340.365 423.083Z" fill="#2C2746"/>
<path fill-rule="evenodd" clip-rule="evenodd" d="M394.028 325.589C394.144 325.877 394.005 326.204 393.715 326.32C392.666 326.741 389.877 327.421 386.117 328.24C382.331 329.065 377.498 330.044 372.311 331.058C361.935 333.087 350.132 335.261 342.425 336.643L342.409 336.646L342.394 336.648C329.283 338.265 321.234 342.287 315.257 347.65C310.308 352.092 306.765 357.459 302.938 363.257C302.119 364.497 301.287 365.757 300.426 367.031L299.957 366.718L300.426 367.031C300.426 367.031 300.426 367.031 300.426 367.031C299.295 368.708 297.415 371.954 295.02 376.089L294.827 376.423C292.346 380.705 289.346 385.876 286.102 391.156C279.631 401.686 272.135 412.74 265.816 418C265.577 418.199 265.221 418.167 265.02 417.93C264.82 417.692 264.852 417.337 265.091 417.138C271.245 412.016 278.651 401.128 285.138 390.57C288.374 385.305 291.367 380.145 293.848 375.862L294.07 375.478C296.44 371.386 298.335 368.114 299.488 366.405L299.488 366.405C300.333 365.154 301.154 363.91 301.967 362.679C305.796 356.875 309.433 351.364 314.501 346.816C320.673 341.277 328.945 337.177 342.239 335.535C342.234 335.536 342.229 335.537 342.224 335.538L342.324 336.091L342.255 335.533C342.25 335.534 342.245 335.534 342.239 335.535C349.943 334.153 361.732 331.981 372.093 329.955C377.277 328.942 382.101 327.965 385.876 327.143C389.677 326.315 392.353 325.655 393.293 325.278C393.582 325.162 393.911 325.301 394.028 325.589Z" fill="#2C2746"/>
<path fill-rule="evenodd" clip-rule="evenodd" d="M295.369 277.894C295.38 278.212 295.138 278.479 294.828 278.49C284.662 278.861 278.572 285.054 274.993 292.775C271.404 300.519 270.376 309.744 270.365 315.953C270.365 316.272 270.113 316.529 269.803 316.528C269.493 316.528 269.242 316.269 269.243 315.951C269.254 309.651 270.292 300.237 273.98 292.28C277.679 284.3 284.081 277.729 294.788 277.339C295.098 277.328 295.358 277.576 295.369 277.894Z" fill="#2C2746"/>
<path fill-rule="evenodd" clip-rule="evenodd" d="M266.411 427.137C266.56 426.856 266.895 426.757 267.16 426.915C267.673 427.222 268.487 427.899 269.512 428.835C270.551 429.783 271.843 431.031 273.328 432.512C276.298 435.474 280.051 439.383 284.107 443.722C292.218 452.4 301.555 462.816 308.294 470.863C308.495 471.104 308.475 471.473 308.248 471.687C308.021 471.902 307.674 471.88 307.472 471.639C300.751 463.613 291.429 453.213 283.326 444.545C279.276 440.211 275.533 436.313 272.576 433.364C271.097 431.889 269.817 430.654 268.796 429.721C267.761 428.776 267.025 428.175 266.62 427.933C266.356 427.774 266.262 427.418 266.411 427.137Z" fill="#2C2746"/>
<path fill-rule="evenodd" clip-rule="evenodd" d="M252.822 417.848C253.618 424.456 253.244 432.619 252.655 438.118L252.464 439.903L251.555 438.326C248.761 433.482 245.064 426.108 243.078 419.73C242.087 416.551 241.503 413.562 241.705 411.241C241.806 410.077 242.108 409.038 242.698 408.224C243.299 407.395 244.173 406.836 245.328 406.612L245.328 406.612C246.486 406.388 247.524 406.576 248.422 407.116C249.304 407.645 250.012 408.49 250.586 409.524C251.73 411.585 252.425 414.553 252.822 417.848ZM245.566 407.694C246.434 407.526 247.159 407.667 247.79 408.046C248.438 408.436 249.026 409.101 249.545 410.035C250.586 411.911 251.262 414.713 251.655 417.972C252.354 423.775 252.137 430.835 251.666 436.167C249.048 431.433 245.949 425.018 244.205 419.42C243.225 416.275 242.692 413.445 242.875 411.331C242.967 410.278 243.233 409.447 243.668 408.846C244.093 408.261 244.7 407.862 245.565 407.694" fill="#2C2746"/>
<path fill-rule="evenodd" clip-rule="evenodd" d="M245.583 420.25C249.072 425.801 252.253 433.153 254.113 438.224L254.728 439.903L253.253 438.81C248.846 435.548 242.606 430.374 238.224 425.459C236.039 423.008 234.279 420.581 233.46 418.462C233.049 417.4 232.86 416.377 233.005 415.447C233.154 414.499 233.646 413.683 234.524 413.06C235.4 412.434 236.354 412.22 237.338 412.371C238.301 412.519 239.251 413.009 240.168 413.712C241.998 415.114 243.843 417.482 245.583 420.25ZM237.162 413.407C236.481 413.302 235.828 413.44 235.187 413.899L235.185 413.9L235.185 413.9C234.54 414.357 234.202 414.926 234.097 415.601C233.988 416.295 234.121 417.132 234.495 418.101C235.246 420.043 236.904 422.356 239.066 424.781C242.903 429.085 248.213 433.615 252.42 436.844C250.531 431.963 247.695 425.657 244.635 420.788C242.913 418.047 241.148 415.81 239.475 414.528C238.641 413.888 237.866 413.515 237.162 413.407Z" fill="#2C2746"/>
</svg>
