<svg width="800" height="564" viewBox="0 0 800 564" fill="none" xmlns="http://www.w3.org/2000/svg">
<rect width="800" height="563.034" fill="white"/>
<path d="M648.94 272.468L648.896 461.307L648.889 497.028H172L172.032 272.379C172.038 235.268 179.57 200.36 192.988 169.047L213.029 131.37C265.572 49.9784 361.862 3.82439 461.701 26.9649C571.06 52.309 648.959 154.447 648.94 272.468Z" fill="#F5F3FE"/>
<mask id="mask0" mask-type="alpha" maskUnits="userSpaceOnUse" x="172" y="21" width="477" height="477">
<path d="M648.94 272.468L648.896 461.307L648.889 497.028H172L172.032 272.379C172.038 235.268 179.57 200.36 192.988 169.047L213.029 131.37C265.572 49.9784 361.862 3.82439 461.701 26.9649C571.06 52.309 648.959 154.447 648.94 272.468Z" fill="#F5F3FE"/>
</mask>
<g mask="url(#mask0)">
<path d="M534.605 137.192C543.761 137.192 590.574 146.977 605.072 230.684C609.582 263.359 614.587 279.337 616.45 283.332C616.696 283.332 616.898 283.309 617.078 283.309C617.37 284.656 617.1 284.745 616.45 283.332C605.408 283.893 541.45 288.605 494.435 283.309C456.352 279.023 414.88 244.373 414.88 244.373C452.581 214.952 468.044 185.576 473.789 167.623C490.238 132.659 529.915 137.192 534.605 137.192Z" fill="#2C2746"/>
<path d="M488.084 248.57C458.483 237.17 464.498 190.648 479.331 172.785C515.283 173.009 536.557 148.997 535.929 151.106C529.197 174.019 531.014 190.334 535.57 201.802C535.57 201.802 543.851 187.978 552.558 199.984C557.428 209.028 547.038 219.261 547.038 219.261C547.038 219.261 544.232 229.337 547.038 245.989C552.895 264.638 567.415 271.707 567.325 271.797C548.429 295.989 532.069 296.774 513.981 289.391L504.601 248.458C502.065 249.243 494.098 250.904 488.084 248.57Z" fill="#FF9D8F"/>
<path d="M547.284 201.016C544.03 199.714 540.44 201.891 539.049 203.148C539.049 203.148 543.021 202.16 545.557 202.497C547.98 202.811 549.192 204.831 549.192 204.831C549.327 203.911 549.102 201.869 547.284 201.016Z" fill="#FF3C20"/>
<path d="M541.36 221.797C538.533 222.178 536.737 220.787 536.199 220.047C536.176 221.034 536.49 223.054 537.77 223.278C539.049 223.502 540.709 222.38 541.36 221.797Z" fill="#FF3C20"/>
<path d="M508.079 223.57C512.715 223.57 516.472 219.812 516.472 215.177C516.472 210.541 512.715 206.783 508.079 206.783C503.444 206.783 499.686 210.541 499.686 215.177C499.686 219.812 503.444 223.57 508.079 223.57Z" fill="#FF3C20"/>
<path d="M476.818 201.083C476.055 205.662 471.634 208.714 467.056 207.951C467.056 207.951 467.28 204.113 468.156 199.535C468.919 194.957 470.198 191.434 470.198 191.434C474.753 192.197 477.581 196.528 476.818 201.083Z" fill="#FF3C20"/>
<path d="M504.601 248.457C513.398 245.428 533.348 236.182 543.986 223.816L544.614 223.076C544.412 223.323 544.21 223.57 543.986 223.816L508.618 265.894L504.601 248.457Z" fill="#FF3C20"/>
<path d="M487.68 213.987C487.68 213.987 479.735 211.294 479.735 207.21C479.735 204.607 488.734 190.76 488.734 190.76" stroke="#2C2746" stroke-width="2.06499" stroke-linecap="round"/>
<path d="M540.889 227.004C536.984 232.008 525.696 242.421 511.625 247.246" stroke="#2C2746" stroke-width="1.83091" stroke-linecap="round"/>
<path d="M510.123 197.796C511.572 196.424 511.897 194.414 510.848 193.307C509.8 192.201 507.775 192.416 506.327 193.788C504.878 195.16 504.554 197.17 505.602 198.277C506.65 199.384 508.675 199.168 510.123 197.796Z" fill="#2C2746"/>
<path d="M481.584 188.285C482.671 186.611 482.516 184.581 481.237 183.751C479.958 182.921 478.041 183.604 476.954 185.278C475.868 186.952 476.023 188.981 477.302 189.812C478.58 190.642 480.498 189.958 481.584 188.285Z" fill="#2C2746"/>
<path d="M662.343 337.393C630.969 296.639 584.717 276.217 565.709 271.123C532.698 289.503 517.415 280.863 511.872 277.721C510.66 277.025 509.897 276.599 509.538 276.801C509.179 276.98 508.192 277.339 506.688 277.901C499.552 280.549 480.992 287.438 464.879 298.277C447.779 309.79 431.621 327.855 417.012 344.215C401.011 362.101 386.873 377.923 375.405 380.773C353.704 386.181 322.465 341.994 314.723 331.065C313.825 329.808 313.242 328.977 313.04 328.731L284.921 386.809C305.455 403.955 350.517 438.762 366.428 440.804C389.319 443.744 406.554 426.912 423.161 410.71C432.99 401.105 442.595 391.747 453.008 386.809C475.427 376.217 475.427 386.809 475.427 386.809L443.852 498.366L612.455 528.416V498.366C637.253 492.599 689.968 474.421 702.603 447.94C718.379 414.816 701.57 388.313 662.343 337.393ZM609.919 444.305L608.012 368.542C619.614 374.915 643.896 391.5 648.182 406.805C652.468 422.11 624.461 438.178 609.919 444.305Z" fill="#FFC700"/>
<path d="M546.724 358.421L555.184 339.368L563.129 358.421L580.588 350.477L568.941 368.475L575.292 384.363L558.887 379.067L551.481 397.065L546.724 379.067H521.836L540.373 368.475L528.726 350.477L546.724 358.421Z" fill="#6F52ED"/>
<path d="M581.127 506.468L611.805 498.703V528.55C586.805 524.107 536.782 515.063 536.782 514.389C540.553 505.076 564.767 495.785 576.414 492.307L581.127 506.468Z" fill="#FF7B50"/>
<path d="M488.735 355.75C485.189 361.473 478.165 379.381 475.427 387.123C475.831 385.956 475.36 381.76 466.72 382.276C454.646 383.016 439.767 397.222 437.074 398.703C433.327 400.768 419.772 417.173 398.273 432.208C381.083 444.215 366.316 441.768 361.065 439.031C377.111 440.4 387.681 429.807 419.772 397.402C445.445 371.437 476.437 358.824 488.735 355.75Z" fill="#FF7B50"/>
<path d="M575.651 497.289C565.485 500.274 541.675 510.283 527.649 526.373" stroke="#2C2746" stroke-width="1.05005" stroke-linecap="round"/>
<path d="M559.201 448.726C572.576 448.928 606.396 445.674 625.022 434.677" stroke="#2C2746" stroke-width="1.05005" stroke-linecap="round"/>
<path d="M482.564 364.009C473.385 382.635 453.928 438.335 447.6 464.12" stroke="#2C2746" stroke-width="1.05005" stroke-linecap="round"/>
<path d="M569.255 462.123C570.332 467.98 575.359 490.96 580.611 503.056" stroke="#2C2746" stroke-width="1.05005" stroke-linecap="round"/>
<path d="M587.253 466.095C588.331 471.953 593.358 494.955 598.609 507.029" stroke="#2C2746" stroke-width="1.05005" stroke-linecap="round"/>
<path d="M619.479 377.227C615.103 374.175 603.86 366.545 593.784 360.418" stroke="#2C2746" stroke-width="1.05005" stroke-linecap="round"/>
<path d="M474.125 374.13C472.756 369.44 472.173 359.229 475.292 350.499" stroke="#2C2746" stroke-width="1.05005" stroke-linecap="round"/>
<path d="M512.523 277.9C519.435 282.097 539.296 286.899 563.465 272.425" stroke="#2C2746" stroke-width="1.05005" stroke-linecap="round"/>
<path d="M385.122 384.543C372.533 382.545 362.928 376.351 355.679 369.08" stroke="#2C2746" stroke-width="1.05005" stroke-linecap="round"/>
<path d="M287.501 380.772L315.665 323.255" stroke="#2C2746" stroke-width="1.05005" stroke-linecap="round"/>
<path d="M306.105 381.154L334.269 323.636" stroke="#2C2746" stroke-width="1.05005" stroke-linecap="round"/>
</g>
<path d="M267.441 321.381C267.692 321.774 268.215 321.89 268.608 321.639C268.999 321.389 269.115 320.867 268.864 320.474L267.441 321.381ZM274.691 345.633C274.691 371.006 254.121 391.577 228.747 391.577V393.264C255.054 393.264 276.378 371.94 276.378 345.633H274.691ZM228.747 299.687C245.029 299.687 259.275 308.57 267.441 321.381L268.864 320.474C260.42 307.226 245.662 298 228.747 298V299.687ZM271.932 329.914C273.718 334.816 274.691 340.11 274.691 345.633H276.378C276.378 339.91 275.369 334.421 273.518 329.336L271.932 329.914ZM182.936 349.17C182.847 348.003 182.801 346.822 182.801 345.633H181.114C181.114 346.865 181.161 348.088 181.253 349.297L182.936 349.17ZM205.983 385.55C195.143 379.355 187.07 368.875 184.074 356.417L182.434 356.811C185.541 369.73 193.911 380.596 205.145 387.016L205.983 385.55ZM228.747 391.577C221.323 391.577 214.31 389.816 208.106 386.692L207.347 388.199C213.781 391.439 221.053 393.264 228.747 393.264V391.577ZM182.801 345.633C182.801 340.432 183.665 335.435 185.256 330.776L183.66 330.23C182.009 335.063 181.114 340.244 181.114 345.633H182.801ZM185.759 329.379C192.324 312.024 209.096 299.687 228.747 299.687V298C208.371 298 190.986 310.793 184.181 328.782L185.759 329.379Z" fill="#2C2746"/>
<path d="M206.785 403.53C213.251 403.53 218.493 398.288 218.493 391.822C218.493 385.356 213.251 380.114 206.785 380.114C200.319 380.114 195.077 385.356 195.077 391.822C195.077 398.288 200.319 403.53 206.785 403.53Z" fill="#6F52ED"/>
<path d="M177.208 325.366C177.18 330.076 180.976 333.917 185.686 333.944C190.395 333.972 194.236 330.177 194.264 325.467C194.292 320.757 190.496 316.916 185.786 316.888C181.076 316.861 177.235 320.656 177.208 325.366Z" fill="#6F52ED"/>
<path fill-rule="evenodd" clip-rule="evenodd" d="M166.412 356.935C167.777 352.03 172.276 348.434 177.615 348.434C184.037 348.434 189.243 353.639 189.243 360.062C189.243 366.482 184.037 371.687 177.615 371.687C175.241 371.687 173.032 370.976 171.192 369.755" fill="#2B11A2"/>
<path d="M166.412 356.935C167.777 352.03 172.276 348.434 177.615 348.434C184.037 348.434 189.243 353.639 189.243 360.062C189.243 366.482 184.037 371.687 177.615 371.687C175.241 371.687 173.032 370.976 171.192 369.755" stroke="#2B11A2" stroke-width="1.69358"/>
<path d="M171.206 368.996L171.175 368.856L171.206 368.996ZM171.206 368.996C171.534 368.989 171.83 369.212 171.905 369.544C171.979 369.876 171.806 370.205 171.508 370.338L171.206 368.996ZM166.794 357.491L166.442 356.16C166.768 356.14 167.074 356.353 167.16 356.681C167.247 357.009 167.086 357.346 166.794 357.491ZM166.165 356.219L166.524 357.577L128.011 367.75L125.528 366.953L166.165 356.219ZM125.098 367.066L125.018 367.316L124.962 367.102L125.098 367.066ZM124.689 367.174L124.858 367.814L124.656 368.444L122.502 367.752L124.689 367.174ZM162.961 371.847L159.057 368.321L159.525 367.541L159.598 367.42L159.477 367.348L158.901 367.002L159.256 366.608L163.479 370.423L163.321 370.458L163.183 370.489L163.214 370.627L163.382 371.38L162.961 371.847ZM163.52 370.703L163.735 370.655L163.902 370.806L163.615 371.124L163.614 371.122L163.614 371.123L163.52 370.703ZM163.335 372.186L163.17 372.037L163.458 371.718L163.552 372.137L163.335 372.186ZM163.828 372.075L163.69 371.461L164.206 370.89L164.301 370.785L164.196 370.691L164.073 370.579L170.928 369.043L171.235 370.413L163.828 372.075ZM170.897 368.906L163.944 370.463L170.897 368.906L170.897 368.906ZM125.354 367.194L127.504 367.884L125.321 368.461L125.152 367.822L125.354 367.194ZM141.729 373.925L125.483 368.71L128.003 368.044L141.575 372.401L141.366 372.619L141.269 372.721L141.371 372.818L141.916 373.341L141.729 373.925ZM142.282 374.104L141.997 374.012L142.143 373.559L142.488 373.888L142.282 374.104ZM142.683 373.684L142.239 373.259L142.47 372.54L142.513 372.406L142.379 372.362L142.09 372.27L144.918 369.314L145.358 369.735L145.09 370.436L145.039 370.567L145.171 370.618L145.496 370.743L142.683 373.684ZM141.668 372.712L141.873 372.497L142.158 372.588L142.012 373.042L141.668 372.712ZM145.404 370.405L145.579 369.947L145.58 369.948L145.58 369.947L145.934 370.285L145.708 370.521L145.404 370.405ZM146.231 370.179L145.689 369.661L145.907 369.091L154.355 372.329L154.077 372.793L154.005 372.914L154.125 372.986L154.747 373.36L154.538 373.906L145.994 370.631L146.235 370.378L146.333 370.276L146.231 370.179ZM145.339 368.874L145.643 368.99L145.468 369.449L145.114 369.11L145.339 368.874ZM155.22 374.167L154.802 374.007L154.993 373.508L155.451 373.783L155.22 374.167ZM155.597 373.54L155.096 373.24L155.355 372.561L155.406 372.43L155.274 372.379L154.77 372.186L158.006 366.794L158.46 367.068L158.01 367.565L157.916 367.67L158.02 367.765L158.696 368.375L155.597 373.54ZM159.211 367.517L158.844 368.128L158.314 367.65L158.707 367.216L158.707 367.217L158.708 367.216L159.211 367.517ZM158.518 365.942L159.047 366.419L158.654 366.854L158.151 366.552L158.518 365.942ZM154.392 372.817L154.623 372.432L155.041 372.592L154.85 373.092L154.392 372.817ZM125.059 368.574L124.925 368.531L124.992 368.321L125.059 368.574Z" fill="#2B11A2" stroke="#2B11A2" stroke-width="0.282263"/>
<path d="M124.887 368.943L167.65 357.794L172.59 370.637L171.178 371.06L163.416 372.19L159.041 368.943L155.654 374.589L145.916 371.06L142.105 374.589L124.887 368.943Z" fill="#2B11A2" stroke="#2B11A2" stroke-width="1.41132"/>
<path fill-rule="evenodd" clip-rule="evenodd" d="M200.874 404.997L191.439 422.73L200.874 404.997ZM191.439 422.73L182.007 440.463L197.322 449.228C197.958 446.284 196.158 440.463 196.158 440.463C196.158 440.463 203.829 441.096 203.669 438.016C203.576 436.217 200.874 434.346 200.874 434.346C200.874 434.346 206.295 434.906 209.259 433.475L191.439 422.73Z" fill="#2B11A2" stroke="#2B11A2" stroke-width="1.69358"/>
<path fill-rule="evenodd" clip-rule="evenodd" d="M175.925 320.945L162.727 313.823L175.925 320.945ZM162.727 313.823L149.529 306.702L142.916 318.097C145.111 318.586 149.467 317.267 149.467 317.267C149.467 317.267 148.959 322.993 151.26 322.887C152.603 322.825 154.011 320.816 154.011 320.816C154.011 320.816 153.57 324.861 154.627 327.081L162.727 313.823Z" fill="#2B11A2" stroke="#2B11A2" stroke-width="1.69358"/>
<path d="M182.356 363.109C184.041 363.109 185.406 361.743 185.406 360.059C185.406 358.374 184.041 357.009 182.356 357.009C180.672 357.009 179.306 358.374 179.306 360.059C179.306 361.743 180.672 363.109 182.356 363.109Z" fill="white" stroke="#2B11A2" stroke-width="1.69358"/>
<path d="M662.422 337.27C631.049 296.516 584.797 276.094 565.789 271C532.777 289.38 517.495 280.74 511.951 277.598C510.74 276.902 509.977 276.476 509.618 276.678C509.258 276.857 508.271 277.216 506.767 277.777C499.631 280.425 481.072 287.315 464.959 298.154C447.858 309.667 431.7 327.732 417.091 344.092C401.09 361.978 386.952 377.799 375.484 380.649C353.783 386.058 322.545 341.87 314.802 330.941C313.905 329.685 313.321 328.854 313.119 328.607L285 386.686C305.534 403.832 350.597 438.638 366.508 440.681C389.398 443.62 406.633 426.789 423.24 410.586C433.069 400.981 442.674 391.623 453.087 386.686C475.506 376.094 475.506 386.686 475.506 386.686L443.5 496L577.5 495L585.5 514L614 501C638.798 495.233 690.048 474.298 702.682 447.817C718.459 414.693 701.65 388.19 662.422 337.27ZM609.999 444.181L608.091 368.419C619.693 374.792 643.975 391.376 648.261 406.682C652.548 421.987 624.541 438.055 609.999 444.181Z" fill="#FFC700"/>
<path d="M546.803 358.298L555.264 339.245L563.208 358.298L580.668 350.353L569.02 368.352L575.371 384.24L558.967 378.944L551.561 396.942L546.803 378.944H521.916L540.452 368.352L528.805 350.353L546.803 358.298Z" fill="#6F52ED"/>
<path d="M488.814 355.627C485.269 361.349 478.244 379.258 475.507 387C475.91 385.833 475.439 381.637 466.799 382.153C454.726 382.893 439.847 397.099 437.154 398.58C433.406 400.645 419.852 417.049 398.353 432.085C381.162 444.091 366.396 441.645 361.144 438.907C377.19 440.276 387.76 429.684 419.851 397.278C445.525 371.313 476.516 358.701 488.814 355.627Z" fill="#FF7B50"/>
<path d="M575.73 497.166C565.564 500.151 541.754 510.16 527.728 526.25" stroke="#2C2746" stroke-width="1.05005" stroke-linecap="round"/>
<path d="M559.281 448.603C572.656 448.805 606.475 445.551 625.102 434.554" stroke="#2C2746" stroke-width="1.05005" stroke-linecap="round"/>
<path d="M482.643 363.885C473.464 382.512 454.008 438.212 447.679 463.997" stroke="#2C2746" stroke-width="1.05005" stroke-linecap="round"/>
<path d="M569.334 462C570.412 467.857 575.439 490.837 580.69 502.933" stroke="#2C2746" stroke-width="1.05005" stroke-linecap="round"/>
<path d="M587.333 465.972C588.41 471.829 593.437 494.832 598.688 506.906" stroke="#2C2746" stroke-width="1.05005" stroke-linecap="round"/>
<path d="M708.517 391.87C711.502 404.527 713.207 433.724 696.197 449.298" stroke="#2C2746" stroke-width="1.05005" stroke-linecap="round"/>
<path d="M619.559 377.104C615.183 374.052 603.939 366.421 593.863 360.295" stroke="#2C2746" stroke-width="1.05005" stroke-linecap="round"/>
<path d="M474.205 374.007C472.836 369.317 472.252 359.106 475.372 350.376" stroke="#2C2746" stroke-width="1.05005" stroke-linecap="round"/>
<path d="M512.602 277.777C519.514 281.974 539.375 286.776 563.545 272.301" stroke="#2C2746" stroke-width="1.05005" stroke-linecap="round"/>
<path d="M385.202 384.419C372.612 382.422 363.007 376.228 355.758 368.957" stroke="#2C2746" stroke-width="1.05005" stroke-linecap="round"/>
<path d="M287.581 380.649L315.745 323.131" stroke="#2C2746" stroke-width="1.05005" stroke-linecap="round"/>
<path d="M306.185 381.031L334.349 323.513" stroke="#2C2746" stroke-width="1.05005" stroke-linecap="round"/>
<path d="M242.214 380.459C247.421 385.732 263.489 381.042 287.187 382.456L308.798 337.438C284.561 325.724 239.117 300.297 233.754 305.167C228.39 310.037 254.422 317.555 253.794 320.068C253.188 322.582 220.199 309.274 216.586 314.278C213.377 318.722 248.161 328.417 248.655 329.696C249.059 330.728 248.498 330.414 247.914 330.638L222.488 325.028C216.967 323.479 206.622 321.707 209.494 327.093C213.085 333.825 243.538 341.253 240.89 342.039C238.242 342.824 222.555 350.634 224.216 360.059C225.248 365.916 229.49 373.03 233.933 371.819C238.377 370.584 230.881 362.662 237.681 357.321C252.874 352.676 257.385 360.53 261.424 362.662C265.464 364.794 262.389 367.712 258.776 369.844C255.185 371.976 235.729 373.838 242.214 380.459Z" fill="#FF9D8F"/>
<path d="M266.339 323.861L270.423 325.634" stroke="#2C2746" stroke-width="1.05005" stroke-linecap="round"/>
<path d="M261.649 331.222L265.733 332.994" stroke="#2C2746" stroke-width="1.05005" stroke-linecap="round"/>
<path d="M256.913 337.663L260.998 339.435" stroke="#2C2746" stroke-width="1.05005" stroke-linecap="round"/>
<path d="M492.056 454.852C496.118 453.955 536.894 466.948 555.947 460.194L567.707 457.209C567.707 457.209 577.177 494.731 578.075 495.449C578.097 495.449 578.119 495.449 578.119 495.449C578.097 495.449 578.097 495.449 578.075 495.449C577.76 495.427 575.314 495.449 565.597 498.591C552.424 502.855 536.603 516.454 528.277 522.379C519.951 528.304 498.25 543.968 496.096 539.749C493.941 535.53 512.859 522.603 514.52 521.414C516.181 520.225 514.991 517.981 513.016 519.664C483.887 541.028 484.246 535.62 484.628 532.635C485.009 529.65 508.012 515.13 505.274 511.921C503.928 510.35 484.965 524.601 480.454 527.002C475.943 529.426 470.804 532.141 470.31 528.438C469.816 524.735 492.954 508.802 496.185 506.019C498.766 503.797 498.07 502.877 496.387 502.743C491.248 505.189 478.479 512.572 473.003 512.796C467.55 513.021 468.492 510.283 469.659 508.892L503.389 486.787C508.64 483.982 516.921 478.304 508.708 473.748C484.628 463.448 483.169 456.805 492.056 454.852Z" fill="#FF9D8F"/>
<path d="M512.725 495.988L516.517 493.654" stroke="#2C2746" stroke-width="1.05005" stroke-linecap="round"/>
<path d="M516.069 504.044L519.861 501.71" stroke="#2C2746" stroke-width="1.05005" stroke-linecap="round"/>
<path d="M518.649 511.607L522.442 509.273" stroke="#2C2746" stroke-width="1.05005" stroke-linecap="round"/>
<path fill-rule="evenodd" clip-rule="evenodd" d="M355.645 142.945C355.898 124.233 348.867 86.4545 318.726 85.0381C298.129 84.0703 286.905 101.706 281.463 119.157L292.884 123.836C296.643 108.688 305.463 95.3582 319.916 96.7145C340.26 98.6228 343.927 128.7 344.014 142.945H355.645Z" fill="#80E1B8"/>
<path fill-rule="evenodd" clip-rule="evenodd" d="M133.888 154.652C118.037 161.728 122.92 183.832 127.344 194L134.234 191.5C130.274 182.231 125.266 164.204 136.534 159.787C147.481 155.494 158.255 170.297 162.026 177.506L168 174.498C163.234 164.935 149.738 147.576 133.888 154.652Z" fill="#80E1B8"/>
<path fill-rule="evenodd" clip-rule="evenodd" d="M205.407 76.1805C197.489 73.9097 191.589 83.8374 189.628 89.0853L192.872 90.2914C194.684 85.5299 199.141 77.1127 204.56 78.9597C209.824 80.754 208.471 89.7505 207.3 93.6698L210.402 94.3958C212.036 89.2703 213.325 78.4515 205.407 76.1805Z" fill="#80E1B8"/>
<path d="M499.586 40.7995C499.006 39.348 496.683 40.0737 497.264 41.3801C506.408 64.6035 501.328 92.4715 483.475 110.179C474.331 119.324 461.993 125.275 449.075 127.597C458.51 108.438 454.881 83.7628 432.384 74.7637C421.207 70.2642 408.725 72.8768 400.887 82.021C393.63 90.4395 391.162 102.632 396.968 112.502C403.645 123.533 417.434 128.613 429.626 130.355C434.706 131.08 439.786 131.08 445.011 130.5C443.415 132.967 441.673 135.29 439.641 137.322C415.547 162.577 376.793 156.917 346.022 151.836C344.57 151.546 343.844 153.868 345.441 154.159C376.793 159.384 415.837 164.9 440.657 139.644C443.415 136.741 445.882 133.548 447.769 130.21C455.897 129.048 463.735 126.436 470.847 122.517C499.586 106.841 511.343 70.8448 499.586 40.7995ZM413.66 123.388C401.903 117.872 393.194 106.986 397.258 93.6327C401.032 81.4404 412.934 73.1671 425.707 75.3443C438.189 77.5215 448.785 87.6817 451.398 100.019C453.43 109.599 451.253 119.614 446.463 128.032C435.432 129.484 423.82 128.032 413.66 123.388Z" fill="#DBD4FB"/>
<path d="M362.478 137.473V209.865H267.386V137.473H362.478ZM314.932 155.403C309.648 155.403 305.365 159.686 305.365 164.97C305.365 168.742 307.548 172.004 310.72 173.562L303.076 195.599H326.788L318.952 173.653C322.227 172.135 324.499 168.817 324.499 164.97C324.499 159.686 320.216 155.403 314.932 155.403Z" fill="#00C471"/>
<path d="M170.276 170L189 207.143L140.724 232L122 194.857L170.276 170ZM158.107 194.036C156.74 191.325 153.458 190.247 150.775 191.628C148.093 193.009 147.026 196.326 148.393 199.037C149.369 200.973 151.321 202.076 153.334 202.046L155.153 215.354L167.192 209.154L157.536 199.941C158.807 198.306 159.102 196.01 158.107 194.036Z" fill="#00C471"/>
<path d="M213.532 93.1663L208.13 113.316L181.621 106.11L187.024 85.961L213.532 93.1663ZM200.893 97.9417C201.287 96.4711 200.413 94.9544 198.94 94.5541C197.467 94.1537 195.953 95.0213 195.559 96.4919C195.277 97.5419 195.643 98.6154 196.411 99.2893L192.634 104.845L199.245 106.641L198.698 99.9385C199.725 99.764 200.606 99.0128 200.893 97.9417Z" fill="#00C471"/>
<path d="M238.6 170C237.631 179.746 232.632 179.137 229 180.152C238.427 181.444 237.735 187.443 238.6 190.397C239.983 181.352 243.27 181.537 247.94 180.152C239.897 179.045 239.551 174.984 238.6 170Z" fill="#DBD4FB"/>
<path d="M379.6 315C378.631 324.746 373.632 324.137 370 325.152C379.427 326.444 378.735 332.443 379.6 335.397C380.983 326.352 384.27 326.537 388.94 325.152C380.897 324.045 380.551 319.984 379.6 315Z" fill="#DBD4FB"/>
<path d="M156.6 114C155.631 123.05 150.632 122.484 147 123.427C156.427 124.627 155.735 130.197 156.6 132.94C157.983 124.541 161.27 124.713 165.94 123.427C157.897 122.399 157.551 118.628 156.6 114Z" fill="#DBD4FB"/>
<circle cx="275.741" cy="267.741" r="8.74144" fill="#FF3C20"/>
<path d="M247 495C252.583 482.251 258.496 472.957 268.751 463.687C280.783 452.811 295.111 443.5 311.428 440.73C324.914 438.441 342.174 441.223 350.415 453.535C356.749 462.999 353.171 484.03 338.319 481.996C327.426 480.504 322.185 468.159 327.159 458.611C333.307 446.81 345.189 445.892 355.895 451.767C368.318 458.583 379.307 466.857 393.064 471.159C413.01 477.397 434.764 475.552 454 468.307" stroke="#DBD4FB" stroke-width="2" stroke-linecap="round" stroke-linejoin="round"/>
</svg>
