<svg width="1001" height="592" viewBox="0 0 1001 592" fill="none" xmlns="http://www.w3.org/2000/svg">
<rect width="1000.73" height="592" rx="4.82281" fill="#F5F3FE"/>
<rect opacity="0.5" x="296.496" y="109.912" width="292.582" height="292.582" fill="#DBD4FB"/>
<path d="M244.758 435.782C270.075 422.808 290.473 411.212 306.094 386.877C326.7 354.775 337.171 312.272 322.584 275.455C314.867 255.98 296.196 234.134 272.755 242.013C250.593 249.463 253.94 281.109 261.71 297.699C268.433 312.053 278.788 326.243 294.176 332.014C311.686 338.58 332.362 336.428 348.32 326.774C364.954 316.711 373.455 299.345 379.245 281.568C387.515 256.176 392.21 229.621 395.067 203.126C399.435 162.618 398.447 114.699 423.012 79.8379C450.402 40.9686 502.61 32.8737 546.506 41.9781C597.322 52.5178 644.792 91.3353 670.514 135.575C694.367 176.6 702.692 233.356 679.401 276.534C660.974 310.695 622.167 330.943 583.903 319.48C555.365 310.93 529.407 285.636 534.28 253.418C541.051 208.653 592.336 191.705 631.37 199.993C687.427 211.895 714.99 267.022 719.726 319.839C723.955 366.999 708.543 408.499 676.472 443.282C659.657 461.519 639.046 478.023 615.496 486.587C590.678 495.611 565.534 494.68 539.725 494.96" stroke="#B7A8F6" stroke-width="1.2057" stroke-linecap="round" stroke-linejoin="round"/>
<g opacity="0.5">
<path d="M753.818 424.119L751.94 408.073L709.568 412.514L711.446 428.56L753.818 424.119Z" fill="#DBD4FB"/>
<path d="M740.339 482.54L707.839 455.511L697.095 467.943L729.997 495.242L740.339 482.54Z" fill="#DBD4FB"/>
<path d="M674.88 517.924L670.11 477.174L653.68 478.896L658.45 519.646L674.88 517.924Z" fill="#DBD4FB"/>
</g>
<path d="M475.145 406.644C475.145 403.981 472.985 401.822 470.322 401.822H265.772C263.108 401.822 260.949 403.981 260.949 406.644V486.323C260.949 488.987 263.108 491.146 265.772 491.146H470.322C472.985 491.146 475.145 488.987 475.145 486.323V406.644Z" fill="#CAC3E8"/>
<path d="M488.39 145.245C488.723 146.107 458.003 185.821 458.003 185.821C458.003 185.821 457.471 185.816 456.68 185.927C456.12 186.014 455.162 186.191 455.162 186.191C455.162 186.191 487.86 145.451 488.39 145.245Z" fill="#2C2746"/>
<path fill-rule="evenodd" clip-rule="evenodd" d="M503.116 125.987C502.942 125.856 502.705 125.892 502.586 126.07L496.889 134.612C496.771 134.79 496.816 135.04 496.991 135.172C497.165 135.304 497.403 135.267 497.521 135.09L503.218 126.548C503.336 126.37 503.291 126.119 503.116 125.987Z" fill="#2C2746"/>
<path fill-rule="evenodd" clip-rule="evenodd" d="M509.779 137.96C509.746 137.769 509.557 137.646 509.357 137.684L499.742 139.544C499.542 139.583 499.407 139.769 499.44 139.96C499.474 140.152 499.662 140.275 499.862 140.237L509.478 138.377C509.677 138.338 509.812 138.152 509.779 137.96Z" fill="#2C2746"/>
<path fill-rule="evenodd" clip-rule="evenodd" d="M490.203 123.61C490.011 123.627 489.877 123.807 489.904 124.011L491.183 133.84C491.21 134.044 491.387 134.195 491.579 134.177C491.77 134.16 491.904 133.98 491.878 133.776L490.598 123.947C490.572 123.743 490.395 123.592 490.203 123.61Z" fill="#2C2746"/>
<path fill-rule="evenodd" clip-rule="evenodd" d="M492.623 146.891C492.396 146.922 492.227 147.116 492.244 147.323L493.084 157.323C493.102 157.53 493.299 157.673 493.526 157.642C493.752 157.611 493.921 157.418 493.904 157.21L493.064 147.211C493.046 147.004 492.849 146.86 492.623 146.891Z" fill="#2C2746"/>
<path fill-rule="evenodd" clip-rule="evenodd" d="M486.356 141.686C486.282 141.474 486.068 141.354 485.878 141.419L476.733 144.526C476.543 144.591 476.449 144.815 476.523 145.027C476.597 145.239 476.811 145.359 477.001 145.294L486.147 142.187C486.336 142.122 486.43 141.898 486.356 141.686Z" fill="#2C2746"/>
<path fill-rule="evenodd" clip-rule="evenodd" d="M486.838 136.608C486.954 136.436 486.907 136.211 486.733 136.104L478.358 130.965C478.184 130.858 477.949 130.911 477.833 131.082C477.717 131.253 477.764 131.479 477.938 131.586L486.314 136.725C486.487 136.832 486.722 136.779 486.838 136.608Z" fill="#2C2746"/>
<path fill-rule="evenodd" clip-rule="evenodd" d="M506.857 151.107C506.973 150.935 506.926 150.71 506.752 150.603L498.377 145.463C498.203 145.357 497.968 145.409 497.852 145.581C497.736 145.752 497.783 145.978 497.957 146.084L506.332 151.224C506.506 151.33 506.741 151.278 506.857 151.107Z" fill="#2C2746"/>
<path d="M461.102 173.402C456.579 180.91 442.584 196.365 438.611 198.168L447.755 203.314C456.427 201.109 474.323 196.11 476.482 193.862C478.656 191.623 477.934 190.051 477.39 189.292C477.745 188.703 478.681 186.561 478.865 184.594C479.052 182.687 477.503 182.715 476.558 182.655C477.034 182.452 477.499 178.909 477.382 177.898C477.268 176.849 475.243 174.473 474.677 175.445C475.154 174.36 475.794 171.472 473.215 169.918C471.069 168.625 467.488 173.231 465.969 175.688C467.044 173.415 470.735 165.464 469.535 163.545C468.098 161.268 466.968 163.665 461.102 173.402Z" fill="#FF9D8F"/>
<path fill-rule="evenodd" clip-rule="evenodd" d="M464.74 180.583C464.526 180.609 464.352 180.815 464.35 181.042C464.347 181.583 464.182 182.356 463.878 183.267C463.577 184.17 463.15 185.177 462.648 186.174C461.634 188.186 460.351 190.08 459.229 190.998C459.05 191.145 458.999 191.406 459.116 191.58C459.232 191.755 459.473 191.778 459.652 191.631C460.931 190.583 462.29 188.539 463.321 186.493C463.841 185.462 464.287 184.411 464.605 183.456C464.921 182.51 465.121 181.628 465.125 180.946C465.127 180.719 464.954 180.557 464.74 180.583Z" fill="#2C2746"/>
<path fill-rule="evenodd" clip-rule="evenodd" d="M471.665 177.414C471.482 177.284 471.228 177.327 471.098 177.511L466.756 183.616C466.625 183.8 466.667 184.054 466.85 184.184C467.033 184.314 467.287 184.271 467.417 184.088L471.759 177.982C471.89 177.799 471.848 177.544 471.665 177.414Z" fill="#2C2746"/>
<path fill-rule="evenodd" clip-rule="evenodd" d="M473.197 181.562C473.014 181.431 472.76 181.475 472.629 181.658L468.287 187.764C468.157 187.947 468.199 188.201 468.382 188.332C468.565 188.462 468.819 188.418 468.949 188.235L473.291 182.13C473.422 181.946 473.379 181.692 473.197 181.562Z" fill="#2C2746"/>
<path fill-rule="evenodd" clip-rule="evenodd" d="M474.251 187.84C474.068 187.71 473.815 187.753 473.684 187.937L469.342 194.042C469.211 194.226 469.254 194.48 469.436 194.61C469.619 194.74 469.873 194.697 470.004 194.513L474.346 188.408C474.476 188.224 474.434 187.97 474.251 187.84Z" fill="#2C2746"/>
<path d="M382.189 241.213C386.287 249.345 381.28 260.041 376.552 262.722C376.999 266.891 378.204 275.653 379.553 277.321C380.902 278.988 393.916 279.866 400.259 280.107C399.974 281.795 396.621 287.526 385.556 296.84C362.092 313.685 343.758 297.853 343.308 296.872C362.169 274.435 353.957 263.685 353.535 262.811C353.085 263.015 346.801 261.461 343.481 258.554C340.922 256.323 339.557 254.5 338.166 251.386C336.524 247.72 335.791 245.329 335.971 241.3C336.369 232.48 343.735 225.863 349.481 223.156C355.221 220.428 360.787 222.661 367.192 226.803C374.159 231.283 378.085 233.059 382.189 241.213Z" fill="#FF9D8F"/>
<path d="M353.786 258.49C355.44 257.902 356.05 256.789 356.133 256.309C356.4 256.767 356.78 257.787 356.126 258.212C355.5 258.652 354.291 258.582 353.786 258.49Z" fill="#FF3C20"/>
<path d="M345.636 254.102C346.999 253.15 348.897 253.71 349.687 254.106C349.687 254.106 347.733 254.114 346.602 254.569C345.522 254.991 345.17 256.035 345.17 256.035C345.011 255.634 344.894 254.688 345.636 254.102Z" fill="#FF3C20"/>
<path d="M363.076 263.598C363.076 263.598 366.651 264.884 376.851 262.577C376.851 262.577 378.709 274.359 378.776 274.717C369.096 267.67 363.076 263.598 363.076 263.598Z" fill="#FF3C20"/>
<path fill-rule="evenodd" clip-rule="evenodd" d="M368.227 236.391C367.954 236.254 367.633 236.372 367.509 236.654C367.385 236.936 367.506 237.276 367.779 237.412L368.003 236.901L368.227 236.391ZM373.585 245.361C374.007 245.727 374.007 245.727 374.007 245.727L374.008 245.726L374.01 245.724L374.016 245.716C374.021 245.71 374.028 245.7 374.037 245.689C374.055 245.666 374.08 245.632 374.111 245.59C374.173 245.505 374.26 245.383 374.361 245.233C374.561 244.933 374.822 244.513 375.053 244.038C375.283 243.567 375.498 243.017 375.588 242.461C375.677 241.907 375.652 241.287 375.325 240.74C375.192 240.515 374.953 240.302 374.726 240.122C374.479 239.926 374.169 239.712 373.827 239.491C373.14 239.048 372.288 238.555 371.462 238.098C370.634 237.64 369.826 237.213 369.225 236.902C368.924 236.746 368.675 236.618 368.501 236.53C368.414 236.485 368.346 236.451 368.299 236.427L368.246 236.4L368.227 236.391C368.227 236.391 368.227 236.391 368.003 236.901C367.779 237.412 367.779 237.412 367.779 237.412L367.796 237.421L367.848 237.447C367.894 237.47 367.961 237.504 368.047 237.548C368.219 237.635 368.465 237.761 368.763 237.916C369.358 238.225 370.158 238.647 370.974 239.098C371.792 239.551 372.619 240.029 373.274 240.452C373.602 240.664 373.878 240.857 374.086 241.021C374.189 241.103 374.269 241.173 374.327 241.231C374.385 241.288 374.405 241.317 374.407 241.32C374.408 241.32 374.408 241.32 374.408 241.32L374.409 241.322L374.41 241.324C374.54 241.542 374.584 241.844 374.519 242.245C374.454 242.645 374.291 243.082 374.086 243.502C373.883 243.918 373.651 244.293 373.468 244.566C373.377 244.702 373.299 244.811 373.245 244.885C373.218 244.922 373.196 244.951 373.182 244.969C373.175 244.978 373.17 244.985 373.167 244.989L373.163 244.994L373.163 244.994C372.975 245.233 373.012 245.591 373.245 245.794C373.478 245.996 373.82 245.966 374.007 245.727L373.585 245.361Z" fill="#2C2746"/>
<path d="M364.781 215.581C369.221 219.541 352.086 240.573 343.449 249.422L346.926 252.197C345.735 252.313 342.518 252.708 342.577 255.068C342.976 259.81 349.449 259.735 353.501 258.815C353.499 260.377 353.784 262.907 353.784 262.907C328.258 258.025 332.183 235.716 335.274 228.996C335.3 225.868 334.521 219.14 339.672 216.069C349.057 210.496 353.395 217.649 353.395 217.649C353.395 217.649 360.341 211.62 364.781 215.581Z" fill="#2C2746"/>
<path d="M361.58 243.251C360.766 242.67 360.387 241.804 360.734 241.317C361.081 240.831 362.023 240.907 362.838 241.488C363.652 242.069 364.031 242.935 363.684 243.421C363.337 243.908 362.395 243.832 361.58 243.251Z" fill="#2C2746"/>
<path d="M370.683 234.16C370.078 233.379 369.97 232.448 370.443 232.082C370.916 231.716 371.789 232.053 372.395 232.834C373 233.615 373.108 234.546 372.635 234.912C372.162 235.278 371.288 234.941 370.683 234.16Z" fill="#2C2746"/>
<path fill-rule="evenodd" clip-rule="evenodd" d="M360.137 263.649C360.077 263.944 360.267 264.233 360.561 264.294C362.789 264.754 365.754 264.707 368.518 264.476C371.294 264.244 373.919 263.822 375.494 263.509C375.788 263.451 375.979 263.164 375.92 262.868C375.861 262.572 375.575 262.379 375.281 262.438C373.74 262.744 371.155 263.159 368.425 263.387C365.683 263.616 362.846 263.652 360.777 263.224C360.483 263.163 360.196 263.353 360.137 263.649Z" fill="#2C2746"/>
<path d="M471.694 525.2C471.694 525.2 468.983 510.138 473.023 497.674C472.874 497.297 515.006 491.376 515.006 491.376C521.524 502.429 536.941 505.595 543.866 513.454C550.79 521.314 552.02 530.652 551.778 534.349L471.694 525.2Z" fill="#2C2746"/>
<path fill-rule="evenodd" clip-rule="evenodd" d="M542.047 497.262C535.575 498.617 525.763 499.463 518.704 499.829L517.651 499.884L518.266 499.066C520.073 496.666 523.576 493.392 528.245 491.314C532.927 489.232 538.797 488.348 545.288 490.776L545.289 490.776C546.882 491.374 547.972 491.969 548.557 492.587C548.858 492.905 549.057 493.264 549.081 493.657C549.106 494.055 548.946 494.407 548.696 494.702C548.219 495.267 547.322 495.734 546.218 496.137C545.092 496.548 543.667 496.922 542.047 497.262ZM544.954 491.664C546.526 492.255 547.425 492.783 547.84 493.222C548.04 493.433 548.094 493.588 548.1 493.69C548.106 493.789 548.073 493.918 547.93 494.087C547.623 494.45 546.938 494.847 545.852 495.244C544.788 495.632 543.414 495.995 541.817 496.329C535.75 497.6 526.662 498.424 519.726 498.818C521.582 496.637 524.688 493.955 528.673 492.183C533.165 490.185 538.758 489.347 544.954 491.664Z" fill="#2C2746"/>
<path fill-rule="evenodd" clip-rule="evenodd" d="M525.245 484.376C523.937 489.275 521.129 496.283 518.942 501.242L518.616 501.982L518.269 501.278C517.249 499.213 516.218 495.684 516.408 491.77C516.599 487.847 518.021 483.524 521.924 479.919L521.924 479.918C522.884 479.034 523.667 478.494 524.293 478.307C524.614 478.211 524.928 478.198 525.206 478.317C525.487 478.438 525.672 478.668 525.788 478.941C526.01 479.463 526.02 480.238 525.915 481.133C525.808 482.046 525.572 483.151 525.245 484.376ZM522.417 480.454C523.364 479.582 524.036 479.149 524.48 479.017C524.693 478.953 524.817 478.969 524.89 479C524.96 479.03 525.036 479.097 525.103 479.253C525.245 479.589 525.28 480.195 525.177 481.076C525.076 481.938 524.85 483.003 524.527 484.212C523.302 488.804 520.728 495.309 518.602 500.193C517.751 498.169 516.988 495.117 517.15 491.777C517.334 488.013 518.691 483.895 522.417 480.454Z" fill="#2C2746"/>
<path d="M596.327 315.766C596.327 315.766 581.33 318.822 568.777 315.068C568.404 315.225 561.52 273.24 561.52 273.24C572.421 266.471 575.234 250.985 582.933 243.882C590.632 236.78 599.939 235.337 603.641 235.494L596.327 315.766Z" fill="#2C2746"/>
<path fill-rule="evenodd" clip-rule="evenodd" d="M566.785 246.07C568.289 252.51 569.358 262.3 569.887 269.349L569.965 270.4L569.134 269.804C566.693 268.053 563.339 264.626 561.156 260.005C558.966 255.372 557.948 249.524 560.227 242.979L560.227 242.978C560.789 241.372 561.358 240.269 561.963 239.669C562.275 239.361 562.628 239.154 563.021 239.121C563.418 239.087 563.773 239.239 564.074 239.481C564.65 239.946 565.137 240.832 565.566 241.927C566.003 243.043 566.409 244.459 566.785 246.07ZM561.123 243.292C561.677 241.707 562.185 240.797 562.615 240.371C562.821 240.167 562.974 240.11 563.077 240.101C563.175 240.093 563.305 240.123 563.477 240.262C563.847 240.56 564.259 241.236 564.681 242.313C565.094 243.368 565.488 244.733 565.859 246.322C567.268 252.359 568.299 261.425 568.852 268.35C566.63 266.544 563.877 263.5 562.014 259.557C559.913 255.112 558.948 249.539 561.123 243.292Z" fill="#2C2746"/>
<path fill-rule="evenodd" clip-rule="evenodd" d="M554.288 263.163C559.215 264.358 566.286 267.006 571.293 269.078L572.04 269.388L571.344 269.751C569.303 270.817 565.799 271.929 561.882 271.828C557.955 271.727 553.601 270.405 549.907 266.585L549.907 266.585C549.001 265.646 548.443 264.875 548.242 264.254C548.138 263.935 548.118 263.621 548.231 263.34C548.345 263.057 548.572 262.866 548.842 262.744C549.359 262.51 550.133 262.483 551.03 262.568C551.946 262.654 553.055 262.865 554.288 263.163ZM550.431 266.08C549.537 265.153 549.09 264.492 548.947 264.051C548.878 263.839 548.892 263.714 548.921 263.641C548.95 263.571 549.015 263.493 549.169 263.423C549.502 263.272 550.107 263.223 550.99 263.307C551.854 263.388 552.924 263.59 554.14 263.885C558.759 265.004 565.321 267.429 570.252 269.442C568.249 270.339 565.215 271.172 561.872 271.086C558.104 270.989 553.956 269.726 550.431 266.08Z" fill="#2C2746"/>
<path d="M418.049 369.847C418.832 369.336 434.313 328.279 444.203 301.883C446.64 295.383 450.873 289.715 456.402 285.548C461.931 281.381 468.526 278.889 475.409 278.365L564.535 271.593L570.035 316.844L489.085 328.321L473.98 382.341" fill="#FFC700"/>
<path fill-rule="evenodd" clip-rule="evenodd" d="M552.975 273.415C553.18 273.39 553.363 273.538 553.384 273.745L557.212 310.88C557.234 311.087 557.085 311.276 556.881 311.301C556.676 311.326 556.493 311.178 556.471 310.971L552.643 273.836C552.622 273.628 552.77 273.44 552.975 273.415Z" fill="#2C2746"/>
<path fill-rule="evenodd" clip-rule="evenodd" d="M453.96 279.773C452.351 281.006 451.273 282.088 450.818 282.733C450.705 282.894 450.488 282.919 450.335 282.789C450.181 282.66 450.148 282.425 450.262 282.264C450.776 281.536 451.916 280.404 453.544 279.157C455.18 277.905 457.327 276.521 459.873 275.294C464.962 272.842 471.659 271.009 479.041 272.138C479.231 272.167 479.37 272.356 479.351 272.561C479.332 272.765 479.163 272.907 478.972 272.878C471.754 271.774 465.187 273.565 460.177 275.979C457.673 277.186 455.562 278.546 453.96 279.773Z" fill="#2C2746"/>
<path d="M358.676 363.654L360.417 371.288C362.203 379.105 366.381 386.168 372.368 391.495C378.355 396.821 385.853 400.144 393.819 401.003L448.557 406.886L465.577 499.251C465.577 499.251 518.224 496.388 517.133 494.156C516.371 492.591 505.312 425.032 498.733 384.56C497.362 376.111 493.149 368.383 486.799 362.654C480.446 356.924 472.33 353.534 463.793 353.043L385.424 348.533" fill="#FFC700"/>
<path fill-rule="evenodd" clip-rule="evenodd" d="M493.648 392.709C493.907 392.667 494.153 392.84 494.198 393.096L502.277 438.856C502.323 439.111 502.15 439.353 501.891 439.396C501.633 439.438 501.387 439.265 501.341 439.009L493.262 393.249C493.217 392.993 493.39 392.751 493.648 392.709Z" fill="#2C2746"/>
<path d="M360.154 386.57L410.788 376.166L406.806 345.299L353.045 347.832L360.154 386.57Z" fill="#0084F4"/>
<path d="M362.363 319.712L364.71 345.858L406.353 342.436L410.653 376.608L344.065 390.539C341.102 391.161 338.04 391.12 335.097 390.418C332.154 389.715 329.403 388.37 327.039 386.477C324.676 384.584 322.759 382.19 321.424 379.467C320.09 376.743 319.371 373.756 319.32 370.72C318.811 337.616 324.714 281.996 369.394 280.833C381.166 280.526 419.257 239.284 419.257 239.284L435.646 195.195L469.846 198.158L455.223 253.35C453.655 259.248 450.48 264.593 446.053 268.783L410.441 302.474L427.496 350.269L355.593 374.945" fill="#00C471"/>
<path d="M456.376 409.259L449.013 407.047L453.245 398.28" stroke="#2C2746" stroke-linecap="square"/>
<mask id="mask0" mask-type="alpha" maskUnits="userSpaceOnUse" x="312" y="175" width="159" height="234">
<path fill-rule="evenodd" clip-rule="evenodd" d="M362.794 319.795L365.167 345.946L406.95 342.551L411.287 376.73L344.48 390.619C341.508 391.239 338.435 391.196 335.481 390.492C332.528 389.787 329.766 388.44 327.393 386.545C325.021 384.65 323.095 382.255 321.755 379.53C320.414 376.805 319.691 373.818 319.637 370.781C319.105 337.673 324.992 282.049 369.824 280.915C381.636 280.616 419.831 239.394 419.831 239.394L436.247 195.31L470.565 198.296L455.929 253.485C454.36 259.383 451.177 264.726 446.737 268.914L411.026 302.586L428.17 350.398L356.037 375.03" fill="white"/>
</mask>
<g mask="url(#mask0)">
<path d="M345.538 347.825C350.874 348.843 356.027 345.341 357.045 340.003C358.064 334.664 354.564 329.511 349.227 328.492C343.89 327.474 338.738 330.976 337.719 336.315C336.701 341.653 340.201 346.806 345.538 347.825Z" fill="#80E1B8"/>
<path d="M383.828 358.408C389.165 359.427 394.317 355.925 395.336 350.586C396.355 345.247 392.854 340.094 387.517 339.076C382.181 338.057 377.029 341.559 376.01 346.898C374.991 352.237 378.491 357.39 383.828 358.408Z" fill="#80E1B8"/>
<path d="M371.999 326.642C377.336 327.661 382.488 324.159 383.507 318.82C384.525 313.482 381.025 308.328 375.688 307.31C370.352 306.291 365.2 309.793 364.181 315.132C363.162 320.471 366.662 325.624 371.999 326.642Z" fill="#80E1B8"/>
<path d="M410.288 337.229C415.624 338.248 420.777 334.746 421.795 329.407C422.814 324.069 419.314 318.916 413.977 317.897C408.64 316.879 403.488 320.381 402.469 325.719C401.451 331.058 404.951 336.211 410.288 337.229Z" fill="#80E1B8"/>
<path d="M448.583 347.815C453.919 348.833 459.071 345.331 460.09 339.993C461.109 334.654 457.609 329.501 452.272 328.482C446.935 327.464 441.783 330.966 440.764 336.304C439.746 341.643 443.246 346.796 448.583 347.815Z" fill="#80E1B8"/>
<path d="M333.708 316.058C339.045 317.077 344.197 313.575 345.216 308.236C346.235 302.898 342.735 297.744 337.398 296.726C332.061 295.708 326.909 299.209 325.89 304.548C324.871 309.887 328.372 315.04 333.708 316.058Z" fill="#80E1B8"/>
<path d="M357.273 379.565C362.609 380.583 367.762 377.081 368.781 371.743C369.8 366.404 366.299 361.251 360.962 360.232C355.626 359.214 350.474 362.716 349.455 368.054C348.436 373.393 351.936 378.546 357.273 379.565Z" fill="#80E1B8"/>
<path d="M395.564 390.149C400.9 391.167 406.053 387.665 407.071 382.326C408.09 376.988 404.589 371.835 399.253 370.816C393.916 369.798 388.764 373.3 387.745 378.638C386.727 383.977 390.227 389.13 395.564 390.149Z" fill="#80E1B8"/>
<path d="M433.853 400.736C439.189 401.755 444.341 398.253 445.36 392.914C446.379 387.576 442.878 382.422 437.542 381.404C432.205 380.385 427.053 383.887 426.034 389.226C425.015 394.565 428.516 399.718 433.853 400.736Z" fill="#80E1B8"/>
<path d="M318.984 368.977C324.321 369.995 329.473 366.493 330.492 361.155C331.511 355.816 328.01 350.663 322.673 349.645C317.337 348.626 312.185 352.128 311.166 357.467C310.147 362.805 313.647 367.959 318.984 368.977Z" fill="#80E1B8"/>
<path d="M413.235 252.555C418.572 253.574 423.724 250.072 424.743 244.733C425.762 239.395 422.261 234.241 416.925 233.223C411.588 232.204 406.436 235.706 405.417 241.045C404.398 246.384 407.899 251.537 413.235 252.555Z" fill="#80E1B8"/>
<path d="M451.525 263.139C456.862 264.158 462.014 260.656 463.033 255.317C464.052 249.978 460.551 244.825 455.215 243.807C449.878 242.788 444.726 246.29 443.707 251.629C442.688 256.968 446.188 262.121 451.525 263.139Z" fill="#80E1B8"/>
<path d="M336.655 231.383C341.992 232.402 347.144 228.9 348.163 223.561C349.182 218.223 345.681 213.07 340.345 212.051C335.008 211.033 329.856 214.535 328.837 219.873C327.818 225.212 331.318 230.365 336.655 231.383Z" fill="#80E1B8"/>
<path d="M386.681 273.707C392.017 274.726 397.169 271.224 398.188 265.885C399.207 260.546 395.707 255.393 390.37 254.375C385.033 253.356 379.881 256.858 378.862 262.197C377.843 267.536 381.344 272.689 386.681 273.707Z" fill="#80E1B8"/>
<path d="M424.97 284.295C430.307 285.314 435.459 281.812 436.478 276.473C437.497 271.134 433.996 265.981 428.66 264.963C423.323 263.944 418.171 267.446 417.152 272.785C416.133 278.123 419.634 283.277 424.97 284.295Z" fill="#80E1B8"/>
<path d="M348.391 263.124C353.727 264.142 358.879 260.64 359.898 255.302C360.917 249.963 357.417 244.81 352.08 243.791C346.744 242.773 341.591 246.275 340.572 251.614C339.553 256.952 343.054 262.105 348.391 263.124Z" fill="#80E1B8"/>
<path d="M401.452 220.802C406.789 221.821 411.941 218.319 412.96 212.98C413.979 207.642 410.478 202.488 405.142 201.47C399.805 200.451 394.653 203.953 393.634 209.292C392.615 214.631 396.115 219.784 401.452 220.802Z" fill="#80E1B8"/>
<path d="M439.743 231.386C445.08 232.405 450.232 228.903 451.251 223.564C452.269 218.226 448.769 213.072 443.432 212.054C438.096 211.035 432.944 214.537 431.925 219.876C430.906 225.215 434.406 230.368 439.743 231.386Z" fill="#80E1B8"/>
<path d="M363.163 210.215C368.5 211.233 373.652 207.731 374.671 202.392C375.69 197.054 372.189 191.901 366.853 190.882C361.516 189.864 356.364 193.366 355.345 198.704C354.326 204.043 357.826 209.196 363.163 210.215Z" fill="#80E1B8"/>
<path d="M398.554 305.486C403.89 306.505 409.042 303.003 410.061 297.664C411.08 292.326 407.579 287.172 402.243 286.154C396.906 285.135 391.754 288.637 390.735 293.976C389.716 299.315 393.217 304.468 398.554 305.486Z" fill="#80E1B8"/>
<path d="M436.842 316.073C442.179 317.092 447.331 313.59 448.35 308.251C449.369 302.913 445.868 297.759 440.531 296.741C435.195 295.723 430.043 299.225 429.024 304.563C428.005 309.902 431.506 315.055 436.842 316.073Z" fill="#80E1B8"/>
<path d="M321.974 284.315C327.31 285.333 332.463 281.831 333.482 276.492C334.5 271.154 331 266.001 325.663 264.982C320.327 263.964 315.174 267.466 314.156 272.804C313.137 278.143 316.637 283.296 321.974 284.315Z" fill="#80E1B8"/>
</g>
<path d="M357.924 380.679C363.8 380.679 368.564 375.915 368.564 370.039C368.564 364.163 363.8 359.4 357.924 359.4C352.048 359.4 347.285 364.163 347.285 370.039C347.285 375.915 352.048 380.679 357.924 380.679Z" fill="#80E1B8"/>
<path d="M488.871 319.438L488.323 327.984L477.503 325.754" stroke="#2C2746" stroke-linecap="square"/>
<path d="M360.256 319.114L361.174 346.626L406.517 342.373L409 362.154L425.589 351.059L464.702 353.291C464.702 353.291 476.086 353.65 480.831 358.176" stroke="#2C2746" stroke-linecap="square"/>
<path d="M430.828 326.423C428.417 325.414 416.116 337.276 407.527 346.036L409.246 364.404C410.962 362.391 415.078 360.03 416.519 359.313C420.351 357.416 448.408 356.706 448.512 354.214C448.587 352.222 441.683 352.694 438.22 353.172C442.644 352.461 451.559 350.606 451.725 348.828C451.891 347.05 442.574 347.717 437.911 348.266C442.493 347.468 452.021 345.732 453.469 345.055L453.514 345.03C455.274 344.197 455.885 343.92 455.112 342.569C454.494 341.471 443.52 342.812 438.118 343.62C441.241 342.405 447.835 339.623 449.22 338.306C450.591 336.967 448.743 336.25 447.641 336.048C440.75 337.541 426.58 340.283 425.153 339.292C423.343 338.04 433.835 327.678 430.828 326.423Z" fill="#FF9D8F"/>
<path fill-rule="evenodd" clip-rule="evenodd" d="M429.405 353.628C429.466 353.903 429.73 354.069 429.994 353.998L432.246 353.394C432.511 353.323 432.677 353.042 432.617 352.766C432.557 352.491 432.293 352.325 432.028 352.396L429.776 353C429.511 353.071 429.345 353.352 429.405 353.628Z" fill="#2C2746"/>
<path fill-rule="evenodd" clip-rule="evenodd" d="M429.177 349.006C429.26 349.202 429.532 349.339 429.784 349.314L431.926 349.094C432.178 349.068 432.315 348.888 432.232 348.693C432.149 348.497 431.877 348.359 431.625 348.385L429.483 348.604C429.231 348.63 429.094 348.81 429.177 349.006Z" fill="#2C2746"/>
<path fill-rule="evenodd" clip-rule="evenodd" d="M428.769 345.016C428.852 345.212 429.124 345.349 429.376 345.324L431.518 345.104C431.77 345.078 431.907 344.898 431.824 344.703C431.741 344.507 431.469 344.369 431.217 344.395L429.075 344.614C428.823 344.64 428.686 344.82 428.769 345.016Z" fill="#2C2746"/>
<path d="M360.255 319.114L361.173 346.626L406.516 342.373L409 362.154" stroke="#2C2746" stroke-linecap="square"/>
<path fill-rule="evenodd" clip-rule="evenodd" d="M662.168 148.314H673.737C678.329 148.314 682.573 145.865 684.87 141.889C687.168 137.913 691.411 135.464 696.003 135.464H701.056C705.941 135.464 710.55 137.92 713.321 141.943C716.047 145.899 720.579 148.314 725.383 148.314C733.447 148.314 739.985 154.852 739.985 162.916V181.504C739.985 192.824 730.808 202.001 719.488 202.001H676.668C665.347 202.001 656.171 192.824 656.171 181.504V154.311C656.171 150.999 658.856 148.314 662.168 148.314ZM698.006 193.149C708.179 193.149 716.425 184.902 716.425 174.73C716.425 164.557 708.179 156.311 698.006 156.311C687.834 156.311 679.587 164.557 679.587 174.73C679.587 184.902 687.834 193.149 698.006 193.149Z" fill="#B7A8F6"/>
<path d="M709.908 335.737C690.463 364.424 673.259 374.33 666.56 375.822C666.302 375.879 666.047 375.879 665.785 375.848C660.4 375.205 649.978 376.718 648.404 387.787C646.809 399.008 656.451 402.986 662.054 401.666C662.178 401.637 662.299 401.616 662.424 401.598C666.36 401.039 672.872 394.732 674.615 384.337C676.288 374.363 704.073 355.589 720.048 346.041C721.407 345.229 721.643 343.357 720.524 342.238L713.649 335.363C712.569 334.282 710.766 334.472 709.908 335.737Z" fill="#B7A8F6"/>
<path d="M690.956 430.325L579.757 367.889C566.996 414.83 580.668 431.237 614.848 446.276C642.339 458.372 676.069 442.478 690.956 430.325Z" fill="#B7A8F6"/>
<path d="M738.871 253.064H733.785C732.424 253.064 731.105 253.441 729.954 254.174C728.803 254.906 727.902 255.932 727.316 257.167L724.888 261.982H695.393L692.944 257.146C692.358 255.911 691.437 254.885 690.307 254.153C689.155 253.42 687.837 253.043 686.476 253.043H681.368C679.966 253.043 678.584 253.315 677.307 253.86C676.009 254.404 674.837 255.178 673.853 256.183C672.869 257.167 672.074 258.36 671.551 259.637C671.027 260.935 670.734 262.317 670.755 263.719V271.59C670.755 272.992 671.027 274.374 671.572 275.672C672.095 276.97 672.89 278.142 673.874 279.126C674.858 280.11 676.03 280.905 677.328 281.428C678.626 281.973 680.008 282.245 681.389 282.245H686.497C687.858 282.245 689.176 281.868 690.328 281.135C691.479 280.403 692.379 279.377 692.965 278.142L695.414 273.306H724.909L727.358 278.142C727.944 279.377 728.865 280.403 729.996 281.135C731.147 281.868 732.466 282.245 733.827 282.245H738.913C740.316 282.245 741.697 281.973 742.974 281.428C744.251 280.884 745.423 280.11 746.428 279.126C747.412 278.142 748.187 276.97 748.731 275.672C749.254 274.374 749.547 272.992 749.547 271.59V263.719C749.547 262.317 749.275 260.935 748.731 259.637C748.187 258.339 747.412 257.167 746.428 256.183C745.444 255.199 744.272 254.404 742.974 253.881C741.655 253.336 740.274 253.064 738.871 253.064Z" fill="#B7A8F6"/>
<path fill-rule="evenodd" clip-rule="evenodd" d="M529.476 43.4053C517.396 43.4053 507.601 53.2006 507.601 65.2806C507.601 77.3606 517.396 87.1559 529.476 87.1559C531.494 87.1559 533.122 85.5274 533.122 83.51C533.122 82.5621 532.757 81.7114 532.174 81.0551C531.615 80.4232 531.25 79.5725 531.25 78.6488C531.25 76.6314 532.879 75.0029 534.896 75.0029H539.199C545.907 75.0029 551.351 69.5584 551.351 62.85C551.351 52.1068 541.556 43.4053 529.476 43.4053ZM516.108 65.2807C514.091 65.2807 512.462 63.6522 512.462 61.6349C512.462 59.6175 514.091 57.989 516.108 57.989C518.126 57.989 519.754 59.6175 519.754 61.6349C519.754 63.6522 518.126 65.2807 516.108 65.2807ZM519.754 51.9125C519.754 53.9299 521.382 55.5584 523.4 55.5584C525.417 55.5584 527.046 53.9299 527.046 51.9125C527.046 49.8951 525.417 48.2666 523.4 48.2666C521.382 48.2666 519.754 49.8951 519.754 51.9125ZM535.553 55.5584C533.535 55.5584 531.907 53.9299 531.907 51.9125C531.907 49.8951 533.535 48.2666 535.553 48.2666C537.57 48.2666 539.198 49.8951 539.198 51.9125C539.198 53.9299 537.57 55.5584 535.553 55.5584ZM539.198 61.6349C539.198 63.6522 540.827 65.2807 542.844 65.2807C544.862 65.2807 546.49 63.6522 546.49 61.6349C546.49 59.6175 544.862 57.989 542.844 57.989C540.827 57.989 539.198 59.6175 539.198 61.6349Z" fill="#B7A8F6"/>
<path fill-rule="evenodd" clip-rule="evenodd" d="M664.739 71.8432H652.707C652.707 65.1959 647.323 59.8118 640.676 59.8118C634.028 59.8118 628.644 65.1959 628.644 71.8432H616.613C613.304 71.8432 610.597 74.5503 610.597 77.8589V86.8825C610.597 90.2212 613.274 92.8982 616.613 92.8982H634.66V89.8904C634.66 88.236 636.014 86.8825 637.668 86.8825H643.684C645.338 86.8825 646.692 88.236 646.692 89.8904V92.8982H664.739C668.047 92.8982 670.754 90.1911 670.754 86.8825V77.8589C670.754 74.5503 668.047 71.8432 664.739 71.8432ZM643.684 98.9142H637.668C636.014 98.9142 634.66 97.5607 634.66 95.9063H613.635V107.938C613.635 111.246 616.342 113.953 619.651 113.953H661.731C665.04 113.953 667.747 111.246 667.747 107.938V95.9063H646.692C646.692 97.5607 645.338 98.9142 643.684 98.9142ZM640.676 65.8278C637.367 65.8278 634.66 68.5349 634.66 71.8435H646.692C646.692 68.5349 643.985 65.8278 640.676 65.8278Z" fill="#B7A8F6"/>
<path d="M513.221 72.5058C513.952 73.9891 514.638 75.3779 515.787 76.5767C516.47 77.2908 517.205 77.8981 518.008 78.4719C518.751 79.0028 519.484 79.5649 520.261 80.0464C521.063 80.5433 521.959 80.904 522.806 81.3175" stroke="#2C2746" stroke-linecap="round" stroke-linejoin="round"/>
<path d="M671.085 97.3587C670.382 101.389 669.51 105.477 669.741 109.595C669.82 110.996 670.134 112.399 670.352 113.783C670.569 115.16 670.515 115.816 668.996 115.921C667.182 116.046 665.325 115.793 663.501 115.847C656.98 116.04 650.532 116.663 644.048 117.362" stroke="#2C2746" stroke-linecap="round" stroke-linejoin="round"/>
<path d="M634.706 74.4986C630.062 74.7781 625.27 74.6898 620.699 75.6282C619.086 75.9593 616.748 76.9228 616.272 78.7056C615.876 80.1906 616.067 81.8891 616.132 83.401C616.205 85.1256 616.329 86.8459 616.461 88.5665" stroke="#2C2746" stroke-linecap="round" stroke-linejoin="round"/>
<path d="M702.77 128.251C704.421 128.316 706.067 128.418 707.716 128.501C708.824 128.556 709.925 128.413 711.032 128.548C712.244 128.696 713.544 128.985 714.566 129.687C715.814 130.544 716.305 132.185 716.914 133.486C718.41 136.683 720.196 140.296 723.288 142.231C728.782 145.671 735.651 146.838 741.808 148.473" stroke="#2C2746" stroke-linecap="round" stroke-linejoin="round"/>
<path d="M710.569 168.342C710.872 168.832 711.253 169.328 711.434 169.883C711.601 170.398 711.724 170.944 711.838 171.472C712.27 173.469 712.573 175.535 712.356 177.576C712.135 179.645 711.25 182.07 709.707 183.532C708.387 184.783 706.633 185.836 704.924 186.457C703.377 187.018 701.792 187.198 700.17 187.361" stroke="#2C2746" stroke-linecap="round" stroke-linejoin="round"/>
<path d="M667.876 273.081C667.932 274.686 667.736 276.422 668.143 277.993C668.793 280.503 670.823 282.804 672.671 284.531C674.6 286.333 676.951 287.375 679.429 288.223C681.743 289.015 684.132 289.138 686.552 289.233" stroke="#2C2746" stroke-linecap="round" stroke-linejoin="round"/>
<path d="M733.075 257.802C734.422 256.952 735.221 256.115 736.749 255.733C738.539 255.285 741.107 256.127 742.492 257.195C744.962 259.101 746.531 262.165 746.808 265.221C746.981 267.137 747.254 269.266 746.763 271.151C746.261 273.08 745.153 274.549 743.99 276.1" stroke="#2C2746" stroke-linecap="round" stroke-linejoin="round"/>
<path d="M697.084 337.448C693.636 344.192 690.197 351.205 684.73 356.577C682.103 359.159 678.676 361.433 675.212 362.728C672.622 363.697 669.737 363.753 667.012 364.026" stroke="#2C2746" stroke-linecap="round" stroke-linejoin="round"/>
<path d="M669.279 390.791C668.73 391.744 668.126 392.662 667.511 393.572C666.795 394.633 666.056 396.015 664.904 396.683C663.573 397.455 662.144 397.927 660.609 398.023C659.263 398.107 657.884 398.022 656.591 397.619C655.377 397.242 654.316 396.666 653.27 395.955" stroke="#2C2746" stroke-linecap="round" stroke-linejoin="round"/>
<path d="M585.982 381.001C591.186 383.818 589.998 383.115 596.768 387.226C607.053 393.471 617.235 399.886 627.403 406.317C630.495 408.273 633.544 410.267 636.811 411.921C637.897 412.471 639.085 412.919 640.241 413.304" stroke="#2C2746" stroke-linecap="round" stroke-linejoin="round"/>
<path d="M591.786 428.983C593.339 432.676 596.327 435.297 599.46 437.685C600.912 438.791 602.437 439.83 603.975 440.812C606.977 442.729 610.438 443.952 613.742 445.237C622.835 448.775 632.574 449.795 642.26 449.004" stroke="#2C2746" stroke-linecap="round" stroke-linejoin="round"/>
</svg>
