<svg width="1130" height="1009" viewBox="0 0 1130 1009" fill="none" xmlns="http://www.w3.org/2000/svg">
<g clip-path="url(#clip0)">
<rect width="1130" height="1009" fill="white"/>
<path d="M417.463 61.7527C549.448 61.7527 656.456 168.676 656.456 300.585V787.474H178.471V300.585C178.471 168.688 285.465 61.7527 417.463 61.7527Z" fill="#00C471"/>
<path d="M173.493 388.828C118.03 370.029 79.9238 329.117 63.4573 290.019C46.412 249.547 53.2714 204.41 64.2698 163.654C82.5993 95.7305 149.262 -10.9089 234.453 27.6918C266.953 42.4177 302.745 88.3148 300.189 125.411C298.632 148.021 280.711 164.923 258.373 167.019C233.132 169.388 212.431 148.32 209.812 137.974C206.073 123.208 204.798 111.825 212.635 96.9674C225.836 71.9446 244.801 57.1408 263.514 43.4146C289.529 24.3325 335.229 12.8579 367.584 17.1108C404.288 21.9356 422.238 54.8284 424.877 88.242C427.639 123.198 431.898 151.735 457.857 178.3C487.211 208.34 550.969 204.9 586.864 193.502C629.325 180.019 665.126 140.836 680.22 99.338C688.973 75.2734 690.456 42.3079 670.285 23.2553C651.895 5.88593 640.908 37.7596 640.475 50.981C638.738 103.996 663.39 140.308 695.131 179.824" stroke="#DBD4FB" stroke-width="1.45727" stroke-linecap="round" stroke-linejoin="round"/>
<path d="M207.013 697.923C205.758 676.95 203.872 658.019 215.07 639.356C223.158 625.876 234.309 611.302 251.149 609.771C298.703 605.448 334.272 656.598 329.859 700.448C328.065 718.279 321.817 736.893 306.228 747.049C291.094 756.909 268.549 756.186 253.794 745.365C245.656 739.398 244.09 727.634 247.421 718.668C253.154 703.231 272.458 706.992 284.341 711.753C308.789 721.548 328.641 739.551 351.326 752.521C375.586 766.391 402.425 779.398 430.578 782.225C458.337 785.013 491.94 781.559 515.963 766.351C533.626 755.169 548.667 734.554 531.717 715.721C524.781 708.015 512.155 700.394 502.013 706.822C484.385 717.994 489.093 752.724 491.791 769.117C497.333 802.8 512.672 836.089 537.73 859.673C556.653 877.483 577.557 885.024 602.07 891.663" stroke="#DBD4FB" stroke-width="1.45727" stroke-linecap="round" stroke-linejoin="round"/>
<circle cx="187.943" cy="639.561" r="70.6777" fill="#FF7B50"/>
<path opacity="0.6" d="M394.936 563.293L433.429 439.374L471.774 563.293H510.712L568.304 379.561H526.405L490.429 506.293L452.232 379.561H414.33L376.874 503.776" fill="white"/>
<path d="M339.712 379.857L303.143 390.961L356.442 563.145H394.935L339.712 379.857Z" fill="white"/>
<path d="M322.835 325.817L286.415 337.217L296.63 369.789L333.051 358.241L322.835 325.817Z" fill="white"/>
<path d="M294.771 280.343L283.468 283.881L292.578 312.985L303.881 309.447L294.771 280.343Z" fill="white"/>
<path d="M338.676 281.551L323.871 308.2L334.235 313.974L349.336 287.029L338.676 281.551Z" fill="white"/>
<path d="M373.353 322.637L344.672 331.614L348.21 342.917L376.891 333.94L373.353 322.637Z" fill="white"/>
<path d="M275.606 323.301L248.217 309.977L242.591 320.488L270.276 333.961L275.606 323.301Z" fill="white"/>
<path d="M271.805 354.466L243.124 363.443L246.662 374.746L275.343 365.769L271.805 354.466Z" fill="white"/>
<path d="M645.771 797.293C647.344 791.813 640.791 760.438 639.688 756.829L709.834 747.22L738.065 801.021L717.616 816.195L707.205 800.077C700.087 803.249 699.7 820.691 700.367 828.961L627.02 881.867C626.694 881.253 625.626 878.583 623.774 872.674C618.234 843.473 644.277 802.499 645.771 797.293Z" fill="#2C2746"/>
<path d="M670.641 805.45L591.138 816.202C594.338 833.459 599.828 863.561 599.594 873.61C599.436 878.936 588.26 911.687 560.548 941.677C538.373 965.652 537.71 988.663 540.147 997.161L657.226 960.346C657.569 952.189 671 941.177 677.676 936.706L684.378 952.321L717.233 942.14C712.598 898.359 683.346 831.033 670.641 805.45Z" fill="#2C2746"/>
<path fill-rule="evenodd" clip-rule="evenodd" d="M584.318 845.645C590.132 858.269 596.378 877.896 600.348 892.103L600.93 894.186L598.95 893.288C593.034 890.601 584.502 884.811 577.981 876.155C571.444 867.478 566.911 855.891 569.113 841.688L569.113 841.687C569.659 838.199 570.426 835.74 571.471 834.3C572.008 833.559 572.675 833.01 573.495 832.802C574.323 832.591 575.137 832.772 575.874 833.158C577.286 833.898 578.681 835.53 580.039 837.614C581.423 839.738 582.863 842.486 584.318 845.645ZM571.117 841.999C571.657 838.556 572.371 836.509 573.116 835.48C573.475 834.986 573.78 834.81 574 834.755C574.212 834.701 574.505 834.717 574.931 834.941C575.845 835.42 577.002 836.657 578.337 838.707C579.646 840.716 581.039 843.366 582.474 846.482C587.931 858.329 593.809 876.517 597.781 890.468C592.303 887.591 585.184 882.357 579.604 874.948C573.327 866.617 569.014 855.565 571.117 841.999Z" fill="#2C2746"/>
<path fill-rule="evenodd" clip-rule="evenodd" d="M572.025 877.064C579.698 880.408 590.466 886.785 598.027 891.619L599.69 892.682L597.836 893.348C590.687 895.914 573.769 897.354 563.603 882.179C562.36 880.337 561.613 878.84 561.425 877.675C561.328 877.078 561.362 876.472 561.654 875.943C561.959 875.391 562.468 875.061 563.032 874.895C564.064 874.591 565.437 874.787 566.864 875.169C568.347 875.566 570.105 876.227 572.025 877.064ZM563.449 877.399C563.568 878.13 564.106 879.331 565.321 881.134L565.323 881.137L565.323 881.137C573.906 893.95 587.683 894.023 595.123 892.114C587.749 887.474 578.132 881.868 571.195 878.844C569.32 878.027 567.671 877.412 566.334 877.054C564.94 876.681 564.079 876.643 563.658 876.767C563.501 876.813 563.476 876.86 563.469 876.873C563.469 876.874 563.469 876.874 563.468 876.874C563.45 876.909 563.392 877.049 563.449 877.399Z" fill="#2C2746"/>
<path d="M577.908 606.549C596.842 583.075 666.242 581.884 698.858 583.785L702.549 664.197L647.9 660.578C674.518 685.808 700.744 721.544 708.563 742.144L643.634 780.054C638.427 764.315 635.998 758.415 632.893 752.134C622.136 730.23 597.643 706.93 585.259 687.136C572.921 667.307 556.234 633.454 577.908 606.549Z" fill="#FF9D8F"/>
<path d="M583.276 759.678C589.68 704.715 668.713 680.059 707.368 674.593L723.625 758.793C715.439 757.832 676.411 753.776 668.662 771.407C665.506 778.567 663.473 790.982 668.089 806.597L590.525 817.577C590.422 804.908 585.346 809.64 583.276 759.678Z" fill="#FF9D8F"/>
<path d="M586.797 639.234C580.643 643.264 569.91 638.936 568.351 636.7L581.636 665.995L586.797 639.234Z" fill="#FF3C20"/>
<path d="M710.733 757.925L696.006 675.923C693.143 704.401 668.334 771.88 668.334 771.88C677.743 759.208 691.554 758.567 710.733 757.925Z" fill="#FF3C20"/>
<path fill-rule="evenodd" clip-rule="evenodd" d="M653.912 686.578C654.104 687.089 653.831 687.65 653.304 687.831C623.752 697.938 602.088 718.082 595.788 723.947C595.386 724.321 594.742 724.307 594.351 723.914C593.96 723.521 593.969 722.899 594.371 722.525C600.689 716.644 622.618 696.235 652.61 685.978C653.138 685.797 653.721 686.066 653.912 686.578Z" fill="#2C2746"/>
<path fill-rule="evenodd" clip-rule="evenodd" d="M588.955 589.139C589.34 589.529 589.332 590.15 588.937 590.527C575.151 603.652 571.007 616.576 570.479 626.483C570.214 631.448 570.857 635.675 571.669 638.81C572.489 641.975 573.464 643.965 573.812 644.479C574.119 644.932 573.995 645.541 573.535 645.839C573.076 646.138 572.455 646.013 572.148 645.561C571.623 644.786 570.578 642.556 569.73 639.285C568.875 635.983 568.205 631.558 568.481 626.37C569.036 615.97 573.395 602.582 587.54 589.114C587.936 588.738 588.569 588.749 588.955 589.139Z" fill="#2C2746"/>
<path fill-rule="evenodd" clip-rule="evenodd" d="M634.853 647.886C635.144 647.412 635.76 647.266 636.23 647.559C643.629 652.173 653.479 659.048 663.354 668.138C663.761 668.513 663.789 669.15 663.416 669.561C663.043 669.972 662.411 670.001 662.004 669.627C652.242 660.641 642.498 653.84 635.174 649.272C634.705 648.98 634.561 648.359 634.853 647.886Z" fill="#2C2746"/>
<path d="M849.319 338.575C865.867 339.626 897.1 365.681 894.806 441.499C892.855 469.965 891.816 469.21 891.537 465.3C884.929 464.678 845.33 454.958 810.624 446.156C810.624 446.156 762.456 482.17 756.264 431.881C752.058 431.304 717.887 416.828 727.288 389.1C737.064 360.121 798.188 361.996 801.63 354.766C817.209 330.782 845.874 338.102 849.319 338.575Z" fill="#2C2746"/>
<path d="M803.785 414.852C783.416 403.744 792.381 371.06 804.899 359.778C830.958 363.517 848.751 348.467 848.067 349.924C830.209 389.219 855.228 404.345 854.472 406.03C859.676 440.064 865.094 444.943 865.049 444.977C848.936 460.417 830.943 453.73 818.573 446.624L815.787 416.421C813.852 416.712 807.913 417.089 803.785 414.852Z" fill="#FF9D8F"/>
<path d="M820.172 398.042C823.698 398.527 826.906 396.378 827.337 393.244C827.768 390.109 825.258 387.175 821.731 386.69C818.205 386.206 814.997 388.354 814.566 391.489C814.135 394.624 816.645 397.558 820.172 398.042Z" fill="#FF3C20"/>
<path d="M800.19 379.713C799.159 383.153 795.667 385.061 792.459 384.024C792.459 384.024 793.018 381.115 794.127 377.686C795.158 374.246 796.471 371.654 796.471 371.654C799.634 372.728 801.215 376.314 800.19 379.713Z" fill="#FF3C20"/>
<path d="M815.5 416.266C822.351 414.935 838.155 410.25 847.324 402.3L847.842 401.844C847.652 402.02 847.468 402.157 847.324 402.3L816.763 429.381L815.5 416.266Z" fill="#FF3C20"/>
<path fill-rule="evenodd" clip-rule="evenodd" d="M809.609 372.174C809.95 372.519 809.975 373.135 809.665 373.55L809.047 372.925L808.429 372.3C808.739 371.885 809.268 371.828 809.609 372.174ZM806.152 389.344C805.763 390.228 805.763 390.228 805.763 390.228L805.761 390.227L805.757 390.225L805.745 390.218C805.734 390.212 805.72 390.203 805.701 390.192C805.664 390.17 805.611 390.139 805.544 390.098C805.412 390.017 805.225 389.899 805.003 389.748C804.562 389.448 803.971 389.013 803.389 388.475C802.812 387.942 802.21 387.28 801.775 386.518C801.342 385.759 801.026 384.811 801.171 383.753C801.231 383.319 801.442 382.829 801.653 382.401C801.883 381.936 802.186 381.399 802.53 380.83C803.22 379.69 804.107 378.36 804.977 377.102C805.848 375.842 806.711 374.642 807.355 373.758C807.677 373.316 807.945 372.952 808.133 372.698C808.226 372.571 808.3 372.472 808.351 372.404L808.408 372.327L808.429 372.3C808.429 372.3 808.429 372.3 809.047 372.925C809.665 373.55 809.665 373.55 809.665 373.55L809.646 373.575L809.59 373.651C809.541 373.717 809.468 373.814 809.376 373.939C809.191 374.19 808.926 374.549 808.607 374.987C807.969 375.863 807.117 377.049 806.258 378.291C805.397 379.536 804.538 380.825 803.881 381.911C803.552 382.455 803.283 382.933 803.092 383.321C802.996 383.514 802.926 383.673 802.879 383.798C802.835 383.914 802.823 383.97 802.821 383.979C802.821 383.98 802.821 383.981 802.821 383.98C802.766 384.378 802.87 384.843 803.178 385.384C803.485 385.922 803.947 386.447 804.459 386.92C804.966 387.387 805.489 387.775 805.89 388.047C806.089 388.182 806.255 388.287 806.37 388.358C806.428 388.393 806.472 388.419 806.501 388.436C806.516 388.445 806.527 388.451 806.534 388.455L806.541 388.459L806.541 388.459C806.95 388.69 807.107 389.272 806.892 389.76C806.677 390.249 806.172 390.458 805.763 390.228L806.152 389.344Z" fill="#2C2746"/>
<path fill-rule="evenodd" clip-rule="evenodd" d="M847.479 401.98C847.822 402.326 847.816 402.875 847.464 403.208C844.015 406.471 834.02 413.665 820.992 416.885C820.516 417.003 820.03 416.721 819.906 416.256C819.782 415.791 820.067 415.318 820.543 415.2C833.222 412.067 842.952 405.047 846.219 401.957C846.571 401.624 847.135 401.634 847.479 401.98Z" fill="#2C2746"/>
<path d="M824.599 380.293C825.794 379.437 826.226 377.995 825.564 377.072C824.903 376.148 823.398 376.094 822.203 376.95C821.009 377.806 820.577 379.249 821.238 380.172C821.9 381.095 823.404 381.149 824.599 380.293Z" fill="#2C2746"/>
<path d="M804.652 370.459C805.613 369.347 805.695 367.843 804.835 367.101C803.976 366.359 802.5 366.659 801.54 367.771C800.579 368.883 800.497 370.386 801.356 371.129C802.216 371.871 803.691 371.571 804.652 370.459Z" fill="#2C2746"/>
<path d="M970.283 268.303L845.313 338.06C844.169 339.811 844.214 345.46 853.46 353.835C862.706 362.211 872.592 365.924 876.385 366.729L970.283 268.303Z" fill="#6F52ED"/>
<path d="M903.45 328.65L907.56 321.855L909.525 329.485L914.357 328.111L903.307 340.066L902.373 336.486L893.14 335.218L900.564 332.163L897.184 324.754L903.45 328.65Z" fill="#FFC700"/>
<path d="M863.69 335.079L866.59 330.684L868.072 335.681L873.017 334.357L869.319 338.367L870.495 342.496L866.293 340.583L863.723 344.748L863.08 340.142L856.444 339.23L861.729 337.285L859.25 332.426L863.69 335.079Z" fill="#FFC700"/>
<path d="M936.227 290.73L929.563 291.089L944.824 282.155L941.985 287.39L943.943 291.658L939.478 290.517L937.798 295.648L936.227 290.73Z" fill="#FFC700"/>
<path d="M1020.24 716.121C1014.45 716.017 993.862 665.441 984.297 639.887L1010.49 619.367C1012.17 625.007 1018.39 633.509 1020.67 636.262C1026.74 643.562 1082.95 670.155 1080.93 675.328C1079.3 679.455 1065.73 672.305 1059.14 668.227C1067.47 673.642 1083.88 685.412 1082.62 689.185C1081.37 692.958 1063.09 683.248 1054.13 677.95C1062.7 683.683 1080.45 695.76 1082.78 698.439L1082.85 698.53C1085.67 701.805 1086.66 702.917 1083.88 704.976C1081.65 706.662 1060.62 694.093 1050.39 687.604C1055.64 692.88 1066.51 704.46 1068.13 708.384C1069.71 712.343 1065.33 712.147 1062.92 711.572C1050.29 702.353 1024.03 684.065 1020.25 684.806C1015.47 685.735 1027.46 716.258 1020.24 716.121Z" fill="#FF9D8F"/>
<path d="M639.251 365.65C636.402 386.392 641.408 408.376 646.148 417.691L619.117 441.265C606.154 424.14 580.084 387.967 579.424 380.549C578.724 373.124 582.457 371.289 584.627 370.696C584.85 369.067 586.327 363.683 588.956 359.753C591.487 355.93 594.355 358.308 596.222 359.617C595.635 358.524 600.116 351.245 601.865 349.542C603.665 347.765 611.061 346.392 610.655 349.049C611.399 346.317 614.561 339.991 621.756 340.979C627.744 341.802 627.509 355.737 626.65 362.583C628.067 356.745 633.15 336.431 638.306 334.67C644.447 332.598 642.947 338.748 639.251 365.65Z" fill="#FF9D8F"/>
<path d="M712.275 241.534C709.883 241.205 626.999 346.598 626.999 346.598C626.999 346.598 627.328 347.984 627.514 350.122C627.625 351.641 627.745 354.258 627.745 354.258C627.745 354.258 712.067 243.049 712.275 241.534Z" fill="#2C2746"/>
<path fill-rule="evenodd" clip-rule="evenodd" d="M753.218 192.387C753.687 192.76 753.743 193.398 753.343 193.811L734.074 213.71C733.673 214.124 732.968 214.156 732.499 213.783C732.029 213.41 731.973 212.772 732.373 212.359L751.643 192.459C752.043 192.046 752.748 192.013 753.218 192.387Z" fill="#2C2746"/>
<path fill-rule="evenodd" clip-rule="evenodd" d="M718.451 181.678C719.019 181.65 719.503 182.083 719.533 182.645L720.967 209.7C720.997 210.262 720.561 210.741 719.994 210.769C719.426 210.797 718.942 210.364 718.913 209.802L717.478 182.746C717.448 182.184 717.884 181.706 718.451 181.678Z" fill="#2C2746"/>
<path fill-rule="evenodd" clip-rule="evenodd" d="M768.316 222.741C768.366 223.45 767.943 224.111 767.371 224.218L739.834 229.372C739.263 229.479 738.759 228.991 738.709 228.283C738.659 227.574 739.082 226.913 739.653 226.806L767.19 221.652C767.762 221.545 768.266 222.033 768.316 222.741Z" fill="#2C2746"/>
<path fill-rule="evenodd" clip-rule="evenodd" d="M704.799 232.566C704.866 233.102 704.483 233.588 703.945 233.654L678.026 236.796C677.488 236.861 676.998 236.48 676.932 235.944C676.866 235.409 677.248 234.922 677.786 234.857L703.705 231.715C704.243 231.65 704.733 232.031 704.799 232.566Z" fill="#2C2746"/>
<path fill-rule="evenodd" clip-rule="evenodd" d="M722.924 244.443C723.449 244.495 723.832 244.962 723.78 245.484L721.281 270.69C721.23 271.213 720.762 271.595 720.237 271.542C719.713 271.49 719.329 271.024 719.381 270.501L721.88 245.296C721.932 244.773 722.399 244.391 722.924 244.443Z" fill="#2C2746"/>
<path fill-rule="evenodd" clip-rule="evenodd" d="M735.896 239.435C736.293 239.013 736.949 238.998 737.36 239.4L757.185 258.788C757.597 259.19 757.608 259.858 757.211 260.28C756.814 260.701 756.158 260.717 755.747 260.314L735.922 240.927C735.511 240.524 735.499 239.856 735.896 239.435Z" fill="#2C2746"/>
<path fill-rule="evenodd" clip-rule="evenodd" d="M685.238 197.743C685.63 197.358 686.285 197.35 686.7 197.727L706.697 215.856C707.113 216.232 707.131 216.85 706.739 217.235C706.347 217.621 705.692 217.628 705.277 217.252L685.279 199.123C684.864 198.746 684.846 198.129 685.238 197.743Z" fill="#2C2746"/>
<path fill-rule="evenodd" clip-rule="evenodd" d="M1040.94 660.202C1041.32 659.773 1042.06 659.706 1042.58 660.052L1047.03 662.992C1047.55 663.337 1047.66 663.966 1047.28 664.395C1046.9 664.825 1046.16 664.892 1045.64 664.546L1041.19 661.606C1040.67 661.26 1040.55 660.632 1040.94 660.202Z" fill="#2C2746"/>
<path fill-rule="evenodd" clip-rule="evenodd" d="M622.672 373.975C623.211 374.359 623.277 374.987 622.819 375.377C621.726 376.309 620.61 377.895 619.597 379.936C618.593 381.959 617.725 384.361 617.088 386.863C615.802 391.911 615.503 397.185 616.741 400.531C616.939 401.067 616.549 401.594 615.869 401.709C615.19 401.823 614.479 401.482 614.281 400.947C612.868 397.128 613.264 391.48 614.572 386.345C615.232 383.755 616.135 381.249 617.195 379.111C618.247 376.991 619.488 375.162 620.866 373.988C621.324 373.597 622.132 373.592 622.672 373.975Z" fill="#2C2746"/>
<path fill-rule="evenodd" clip-rule="evenodd" d="M615.009 355.403C615.475 355.422 615.816 355.909 615.772 356.491L614.305 375.841C614.26 376.423 613.847 376.879 613.381 376.86C612.916 376.841 612.574 376.354 612.618 375.772L614.086 356.422C614.13 355.84 614.543 355.384 615.009 355.403Z" fill="#2C2746"/>
<path fill-rule="evenodd" clip-rule="evenodd" d="M604.101 361.134C604.567 361.153 604.908 361.64 604.864 362.221L603.397 381.572C603.353 382.153 602.939 382.609 602.474 382.59C602.008 382.571 601.666 382.084 601.71 381.503L603.178 362.152C603.222 361.571 603.635 361.115 604.101 361.134Z" fill="#2C2746"/>
<path fill-rule="evenodd" clip-rule="evenodd" d="M593.447 372.682C593.683 372.672 593.828 373.103 593.771 373.644L591.895 391.634C591.839 392.175 591.602 392.621 591.367 392.631C591.131 392.64 590.986 392.21 591.043 391.669L592.919 373.678C592.975 373.137 593.212 372.691 593.447 372.682Z" fill="#2C2746"/>
<path fill-rule="evenodd" clip-rule="evenodd" d="M1036.93 668.327C1037.31 667.898 1038.05 667.83 1038.57 668.176L1043.02 671.116C1043.54 671.462 1043.66 672.09 1043.27 672.52C1042.89 672.949 1042.15 673.016 1041.63 672.671L1037.18 669.731C1036.66 669.385 1036.55 668.756 1036.93 668.327Z" fill="#2C2746"/>
<path fill-rule="evenodd" clip-rule="evenodd" d="M1033.09 675.028C1033.41 674.59 1034 674.503 1034.41 674.833L1037.91 677.642C1038.32 677.973 1038.39 678.596 1038.07 679.034C1037.75 679.472 1037.16 679.559 1036.75 679.229L1033.25 676.419C1032.84 676.089 1032.77 675.466 1033.09 675.028Z" fill="#2C2746"/>
<path d="M817.726 439.625L797.993 449.694C785.375 455.653 769.633 470.137 729.539 470.857C689.445 471.576 657.491 434.666 646.533 416.107L603.63 453.56C606.008 459.055 623.526 476.073 674.439 499.958C725.352 523.844 779.814 511.83 800.659 502.849C800.736 515.314 806.345 566.595 809.141 590.667C784.066 579.204 722.109 572.035 694.25 569.877L699.135 768.883C748.223 760.445 855.88 734.086 893.518 696.155C931.157 658.223 922.932 580.372 914.119 546.194C932.108 560.672 954.354 638.333 968.58 671.016L1019.87 633.495C1008.11 611.325 975.557 554.186 939.502 502.997C903.447 451.808 873.404 440.965 862.938 441.929C842.326 449.801 824.211 443.65 817.726 439.625Z" fill="#6F52ED"/>
<path fill-rule="evenodd" clip-rule="evenodd" d="M693.696 551.283C694.246 551.267 694.702 551.705 694.716 552.259L699.534 744.626C699.548 745.181 699.114 745.643 698.565 745.659C698.016 745.674 697.559 745.237 697.545 744.682L692.727 552.316C692.713 551.761 693.147 551.299 693.696 551.283Z" fill="#2C2746"/>
<path fill-rule="evenodd" clip-rule="evenodd" d="M710.717 553.623C711.267 553.601 711.73 554.036 711.749 554.593L716.93 702.181C716.949 702.738 716.519 703.207 715.968 703.228C715.417 703.25 714.955 702.816 714.935 702.259L709.755 554.671C709.735 554.114 710.166 553.645 710.717 553.623Z" fill="#2C2746"/>
<path fill-rule="evenodd" clip-rule="evenodd" d="M907.101 521.438C907.605 521.233 908.169 521.489 908.362 522.011C914.091 537.549 920.935 559.367 925.331 584.635C925.426 585.185 925.074 585.716 924.543 585.822C924.012 585.927 923.504 585.566 923.408 585.016C919.039 559.903 912.235 538.209 906.536 522.753C906.344 522.232 906.597 521.643 907.101 521.438Z" fill="#2C2746"/>
<path fill-rule="evenodd" clip-rule="evenodd" d="M800.422 490.751C800.884 490.825 801.191 491.327 801.107 491.872C798.936 505.931 796.365 526.402 797.331 548.384C797.355 548.931 796.994 549.417 796.524 549.469C796.055 549.522 795.655 549.12 795.631 548.573C794.655 526.365 797.253 505.717 799.432 491.602C799.516 491.058 799.959 490.676 800.422 490.751Z" fill="#2C2746"/>
<path fill-rule="evenodd" clip-rule="evenodd" d="M916.169 500.869C916.716 500.923 917.114 501.415 917.058 501.967C916.305 509.49 915.748 519.935 916.75 531.514C916.797 532.067 916.393 532.555 915.845 532.605C915.298 532.655 914.815 532.247 914.768 531.695C913.752 519.953 914.317 509.375 915.079 501.77C915.134 501.218 915.622 500.815 916.169 500.869Z" fill="#2C2746"/>
<path fill-rule="evenodd" clip-rule="evenodd" d="M926.711 626.658C927.268 626.679 927.703 627.15 927.682 627.709C926.65 654.988 910.205 720.82 834.276 742.542C833.739 742.696 833.18 742.384 833.028 741.845C832.875 741.307 833.187 740.745 833.724 740.592C908.466 719.209 924.647 654.46 925.662 627.635C925.684 627.075 926.153 626.638 926.711 626.658Z" fill="#2C2746"/>
<path fill-rule="evenodd" clip-rule="evenodd" d="M654.075 410.178C654.426 410.598 654.377 411.233 653.967 411.598L615.049 446.146C614.639 446.51 614.021 446.466 613.671 446.046C613.32 445.626 613.368 444.99 613.779 444.626L652.697 410.078C653.107 409.713 653.724 409.758 654.075 410.178Z" fill="#2C2746"/>
<path fill-rule="evenodd" clip-rule="evenodd" d="M1027.8 626.394C1028.12 626.842 1028.02 627.473 1027.58 627.803L986.213 659.121C985.777 659.451 985.167 659.356 984.851 658.908C984.535 658.46 984.633 657.829 985.069 657.499L1026.44 626.182C1026.88 625.851 1027.49 625.946 1027.8 626.394Z" fill="#2C2746"/>
<path fill-rule="evenodd" clip-rule="evenodd" d="M1015.62 620.382C1015.93 620.83 1015.83 621.461 1015.4 621.791L974.029 653.109C973.592 653.439 972.982 653.344 972.665 652.897C972.349 652.449 972.446 651.818 972.883 651.488L1014.25 620.17C1014.69 619.839 1015.3 619.934 1015.62 620.382Z" fill="#2C2746"/>
<path fill-rule="evenodd" clip-rule="evenodd" d="M659.585 422.479C659.959 422.884 659.929 423.508 659.519 423.872L620.651 458.469C620.241 458.834 619.605 458.802 619.232 458.398C618.858 457.993 618.888 457.369 619.298 457.004L658.166 422.407C658.576 422.043 659.212 422.075 659.585 422.479Z" fill="#2C2746"/>
<path fill-rule="evenodd" clip-rule="evenodd" d="M859.414 442.993C859.611 443.509 859.354 444.089 858.839 444.287C852.064 446.897 844.377 447.233 837.573 446.621C830.763 446.008 824.751 444.436 821.273 443.151C820.755 442.96 820.49 442.384 820.682 441.865C820.873 441.346 821.447 441.08 821.965 441.271C825.279 442.496 831.119 444.029 837.753 444.626C844.394 445.223 851.741 444.875 858.124 442.417C858.639 442.219 859.216 442.477 859.414 442.993Z" fill="#2C2746"/>
<path d="M868.454 500.893L878.468 484.123L883.118 502.908L899.745 497.624L887.042 513.021L890.687 528.658L876.704 521.678L867.767 537.592L865.804 520.18L843.572 517.126L861.477 509.509L853.398 491.257L868.454 500.893Z" fill="#FFC700"/>
<path d="M893.289 629.198L898.356 621.312L900.826 630.234L909.325 627.842L902.872 635.063L904.808 642.488L897.592 639.123L893.114 646.616L892.031 638.359L880.626 636.792L889.774 633.264L885.508 624.57L893.289 629.198Z" fill="#FFC700"/>
<path d="M808.927 657.147L813.009 650.069L814.874 657.964L821.637 655.743L816.44 662.236L817.893 668.78L812.231 665.887L808.559 672.59L807.809 665.28L798.81 664.044L806.11 660.817L802.856 653.163L808.927 657.147Z" fill="#FFC700"/>
<path d="M797.663 476.323L801.745 469.245L803.571 477.135L810.334 474.914L805.137 481.407L806.59 487.951L800.928 485.058L797.256 491.761L796.507 484.451L787.507 483.215L794.807 479.988L791.554 472.334L797.663 476.323Z" fill="#FFC700"/>
<path d="M981.366 615.3L986.203 607.356L988.489 616.279L996.553 613.816L990.407 621.065L992.201 628.452L985.399 625.137L981.086 632.677L980.115 624.411L969.278 622.923L977.999 619.36L974.036 610.723L981.366 615.3Z" fill="#FFC700"/>
<path d="M696.598 463.476C696.598 463.476 700.587 465.597 703.285 466.63C705.45 467.466 706.897 467.996 709.09 468.629C710.975 469.177 714.15 469.945 714.15 469.945L711.089 471.843L712.585 478.135L706.891 475.324L703.249 481.739L702.454 474.715L693.424 473.474L700.724 470.419L696.598 463.476Z" fill="#FFC700"/>
<path d="M724.662 593.514L731.592 582.499L734.971 594.93L746.602 591.539L737.776 601.603L740.413 611.904L730.553 607.223L724.365 617.651L722.882 606.17L707.296 604.028L719.801 599.094L714.016 587.021L724.662 593.514Z" fill="#FFC700"/>
<path d="M781.723 741.981L790.337 727.918L794.443 743.729L810.057 740.038C810.057 740.038 789.27 748.072 760.21 755.587C766.207 752.918 775.702 749.25 775.702 749.25L768.623 733.853L781.723 741.981Z" fill="#FFC700"/>
<circle cx="531.859" cy="206.751" r="16.7586" fill="#FF3C20"/>
<rect x="83.8188" y="104.014" width="42.2609" height="42.2609" transform="rotate(36.007 83.8188 104.014)" fill="#0084F4"/>
<path d="M938.069 816.619C935.386 842.383 921.54 840.773 911.479 843.457C937.59 846.873 935.673 862.731 938.069 870.538C941.902 846.629 951.005 847.117 963.94 843.457C941.662 840.529 940.704 829.794 938.069 816.619Z" fill="#DBD4FB"/>
<path d="M110.338 443.558C107.655 469.322 93.8093 467.712 83.7482 470.395C109.859 473.811 107.943 489.67 110.338 497.477C114.171 473.567 123.274 474.055 136.21 470.395C113.932 467.468 112.973 456.733 110.338 443.558Z" fill="#DBD4FB"/>
</g>
<defs>
<clipPath id="clip0">
<rect width="1130" height="1009" fill="white"/>
</clipPath>
</defs>
</svg>
