<svg width="1280" height="1225" viewBox="0 0 1280 1225" fill="none" xmlns="http://www.w3.org/2000/svg">
<rect width="1280" height="1225" fill="white"/>
<path d="M483.463 178.753C615.448 178.753 722.456 285.676 722.456 417.585V904.474H244.471V417.585C244.471 285.688 351.465 178.753 483.463 178.753Z" fill="#00C471"/>
<path d="M239.493 505.828C184.03 487.029 145.924 446.117 129.457 407.019C112.412 366.547 119.271 321.41 130.27 280.654C148.599 212.73 215.262 106.091 300.453 144.692C332.953 159.418 368.745 205.315 366.189 242.411C364.632 265.021 346.711 281.923 324.373 284.019C299.132 286.388 278.431 265.32 275.812 254.974C272.073 240.208 270.798 228.825 278.635 213.967C291.836 188.945 310.801 174.141 329.514 160.415C355.529 141.332 401.229 129.858 433.584 134.111C470.288 138.936 488.238 171.828 490.877 205.242C493.639 240.198 497.898 268.735 523.857 295.3C553.211 325.34 616.969 321.9 652.864 310.502C695.325 297.019 731.126 257.836 746.22 216.338C754.973 192.273 756.456 159.308 736.285 140.255C717.895 122.886 706.908 154.76 706.475 167.981C704.738 220.996 729.39 257.308 761.131 296.824" stroke="#DBD4FB" stroke-width="1.45727" stroke-linecap="round" stroke-linejoin="round"/>
<path d="M273.013 814.923C271.758 793.95 269.872 775.019 281.07 756.356C289.158 742.876 300.309 728.302 317.149 726.771C364.703 722.448 400.272 773.598 395.859 817.448C394.065 835.279 387.817 853.893 372.228 864.049C357.094 873.909 334.549 873.186 319.794 862.365C311.656 856.398 310.09 844.634 313.421 835.668C319.154 820.231 338.458 823.992 350.341 828.753C374.789 838.548 394.641 856.551 417.326 869.521C441.586 883.391 468.425 896.398 496.578 899.225C524.337 902.013 557.94 898.559 581.963 883.351C599.626 872.169 614.667 851.554 597.717 832.721C590.781 825.015 578.155 817.394 568.013 823.822C550.385 834.994 555.093 869.724 557.791 886.117C563.333 919.8 578.672 953.089 603.73 976.673C622.653 994.483 643.557 1002.02 668.07 1008.66" stroke="#DBD4FB" stroke-width="1.45727" stroke-linecap="round" stroke-linejoin="round"/>
<circle cx="253.943" cy="756.561" r="70.6777" fill="#FF7B50"/>
<path opacity="0.6" d="M460.936 680.293L499.429 556.374L537.774 680.293H576.712L634.304 496.561H592.405L556.429 623.293L518.232 496.561H480.33L442.874 620.776" fill="white"/>
<path d="M405.712 496.857L369.143 507.961L422.442 680.145H460.935L405.712 496.857Z" fill="white"/>
<path d="M388.835 442.817L352.415 454.217L362.63 486.789L399.051 475.241L388.835 442.817Z" fill="white"/>
<path d="M360.771 397.343L349.468 400.881L358.578 429.985L369.881 426.447L360.771 397.343Z" fill="white"/>
<path d="M404.676 398.551L389.871 425.2L400.235 430.974L415.336 404.029L404.676 398.551Z" fill="white"/>
<path d="M439.353 439.637L410.672 448.614L414.21 459.917L442.891 450.94L439.353 439.637Z" fill="white"/>
<path d="M341.606 440.301L314.217 426.977L308.591 437.488L336.276 450.961L341.606 440.301Z" fill="white"/>
<path d="M337.805 471.466L309.124 480.443L312.662 491.746L341.343 482.769L337.805 471.466Z" fill="white"/>
<path d="M711.771 914.293C713.344 908.813 706.791 877.438 705.688 873.829L775.834 864.22L804.065 918.021L783.616 933.195L773.205 917.077C766.087 920.249 765.7 937.691 766.367 945.961L693.02 998.867C692.694 998.253 691.626 995.583 689.774 989.674C684.234 960.473 710.277 919.499 711.771 914.293Z" fill="#2C2746"/>
<path d="M736.641 922.45L657.138 933.202C660.338 950.459 665.828 980.561 665.594 990.61C665.436 995.936 654.26 1028.69 626.548 1058.68C604.373 1082.65 603.71 1105.66 606.147 1114.16L723.226 1077.35C723.569 1069.19 737 1058.18 743.676 1053.71L750.378 1069.32L783.233 1059.14C778.598 1015.36 749.346 948.033 736.641 922.45Z" fill="#2C2746"/>
<path fill-rule="evenodd" clip-rule="evenodd" d="M650.318 962.645C656.132 975.269 662.378 994.896 666.348 1009.1L666.93 1011.19L664.95 1010.29C659.034 1007.6 650.502 1001.81 643.981 993.155C637.444 984.478 632.911 972.891 635.113 958.688L635.113 958.687C635.659 955.199 636.426 952.74 637.471 951.3C638.008 950.559 638.675 950.01 639.495 949.802C640.323 949.591 641.137 949.772 641.874 950.158C643.286 950.898 644.681 952.53 646.039 954.614C647.423 956.738 648.863 959.486 650.318 962.645ZM637.117 958.999C637.657 955.556 638.371 953.509 639.116 952.48C639.475 951.986 639.78 951.81 640 951.755C640.212 951.701 640.505 951.717 640.931 951.941C641.845 952.42 643.002 953.657 644.337 955.707C645.646 957.716 647.039 960.366 648.474 963.482C653.931 975.329 659.809 993.517 663.781 1007.47C658.303 1004.59 651.184 999.357 645.604 991.948C639.327 983.617 635.014 972.565 637.117 958.999Z" fill="#2C2746"/>
<path fill-rule="evenodd" clip-rule="evenodd" d="M638.025 994.064C645.698 997.408 656.466 1003.79 664.027 1008.62L665.69 1009.68L663.836 1010.35C656.687 1012.91 639.769 1014.35 629.603 999.179C628.36 997.337 627.613 995.84 627.425 994.675C627.328 994.078 627.362 993.472 627.654 992.943C627.959 992.391 628.468 992.061 629.032 991.895C630.064 991.591 631.437 991.787 632.864 992.169C634.347 992.566 636.105 993.227 638.025 994.064ZM629.449 994.399C629.568 995.13 630.106 996.331 631.321 998.134L631.323 998.137L631.323 998.137C639.906 1010.95 653.683 1011.02 661.123 1009.11C653.749 1004.47 644.132 998.868 637.195 995.844C635.32 995.027 633.671 994.412 632.334 994.054C630.94 993.681 630.079 993.643 629.658 993.767C629.501 993.813 629.476 993.86 629.469 993.873C629.469 993.874 629.469 993.874 629.468 993.874C629.45 993.909 629.392 994.049 629.449 994.399Z" fill="#2C2746"/>
<path d="M643.908 723.549C662.842 700.075 732.242 698.884 764.858 700.785L768.549 781.197L713.9 777.578C740.518 802.808 766.744 838.544 774.563 859.144L709.634 897.054C704.427 881.315 701.998 875.415 698.893 869.134C688.136 847.23 663.643 823.93 651.259 804.136C638.921 784.307 622.234 750.454 643.908 723.549Z" fill="#FF9D8F"/>
<path d="M649.276 876.678C655.68 821.715 734.713 797.059 773.368 791.593L789.625 875.793C781.439 874.832 742.411 870.776 734.662 888.407C731.506 895.567 729.473 907.982 734.089 923.597L656.525 934.577C656.422 921.908 651.346 926.64 649.276 876.678Z" fill="#FF9D8F"/>
<path d="M652.797 756.234C646.643 760.264 635.91 755.936 634.351 753.7L647.636 782.995L652.797 756.234Z" fill="#FF3C20"/>
<path d="M776.733 874.925L762.006 792.923C759.143 821.401 734.334 888.88 734.334 888.88C743.743 876.208 757.554 875.567 776.733 874.925Z" fill="#FF3C20"/>
<path fill-rule="evenodd" clip-rule="evenodd" d="M719.912 803.578C720.104 804.089 719.831 804.65 719.304 804.831C689.752 814.938 668.088 835.082 661.788 840.947C661.386 841.321 660.742 841.307 660.351 840.914C659.96 840.521 659.969 839.899 660.371 839.525C666.689 833.644 688.618 813.235 718.61 802.978C719.138 802.797 719.721 803.066 719.912 803.578Z" fill="#2C2746"/>
<path fill-rule="evenodd" clip-rule="evenodd" d="M654.955 706.139C655.34 706.529 655.332 707.15 654.937 707.527C641.151 720.652 637.007 733.576 636.479 743.483C636.214 748.448 636.857 752.675 637.669 755.81C638.489 758.975 639.464 760.965 639.812 761.479C640.119 761.932 639.995 762.541 639.535 762.839C639.076 763.138 638.455 763.013 638.148 762.561C637.623 761.786 636.578 759.556 635.73 756.285C634.875 752.983 634.205 748.558 634.481 743.37C635.036 732.97 639.395 719.582 653.54 706.114C653.936 705.738 654.569 705.749 654.955 706.139Z" fill="#2C2746"/>
<path fill-rule="evenodd" clip-rule="evenodd" d="M700.853 764.886C701.144 764.412 701.76 764.266 702.23 764.559C709.629 769.173 719.479 776.048 729.354 785.138C729.761 785.513 729.789 786.15 729.416 786.561C729.043 786.972 728.411 787.001 728.004 786.627C718.242 777.641 708.498 770.84 701.174 766.272C700.705 765.98 700.561 765.359 700.853 764.886Z" fill="#2C2746"/>
<path d="M915.319 455.575C931.867 456.626 963.1 482.681 960.806 558.499C958.855 586.965 957.816 586.21 957.537 582.3C950.929 581.678 911.33 571.958 876.624 563.156C876.624 563.156 828.456 599.17 822.264 548.881C818.058 548.304 783.887 533.828 793.288 506.1C803.064 477.121 864.188 478.996 867.63 471.766C883.209 447.782 911.874 455.102 915.319 455.575Z" fill="#2C2746"/>
<path d="M869.785 531.852C849.416 520.744 858.381 488.06 870.899 476.778C896.958 480.517 914.751 465.467 914.067 466.924C896.209 506.219 921.228 521.345 920.472 523.03C925.676 557.064 931.094 561.943 931.049 561.977C914.936 577.417 896.943 570.73 884.573 563.624L881.787 533.421C879.852 533.712 873.913 534.089 869.785 531.852Z" fill="#FF9D8F"/>
<path d="M886.172 515.042C889.698 515.527 892.906 513.378 893.337 510.244C893.768 507.109 891.258 504.175 887.731 503.69C884.205 503.206 880.997 505.354 880.566 508.489C880.135 511.624 882.645 514.558 886.172 515.042Z" fill="#FF3C20"/>
<path d="M866.19 496.713C865.159 500.153 861.667 502.061 858.459 501.024C858.459 501.024 859.018 498.115 860.127 494.686C861.158 491.246 862.471 488.654 862.471 488.654C865.634 489.728 867.215 493.314 866.19 496.713Z" fill="#FF3C20"/>
<path d="M881.5 533.266C888.351 531.935 904.155 527.25 913.324 519.3L913.842 518.844C913.652 519.02 913.468 519.157 913.324 519.3L882.763 546.381L881.5 533.266Z" fill="#FF3C20"/>
<path fill-rule="evenodd" clip-rule="evenodd" d="M875.609 489.174C875.95 489.519 875.975 490.135 875.665 490.55L875.047 489.925L874.429 489.3C874.739 488.885 875.268 488.828 875.609 489.174ZM872.152 506.344C871.763 507.228 871.763 507.228 871.763 507.228L871.761 507.227L871.757 507.225L871.745 507.218C871.734 507.212 871.72 507.203 871.701 507.192C871.664 507.17 871.611 507.139 871.544 507.098C871.412 507.017 871.225 506.899 871.003 506.748C870.562 506.448 869.971 506.013 869.389 505.475C868.812 504.942 868.21 504.28 867.775 503.518C867.342 502.759 867.026 501.811 867.171 500.753C867.231 500.319 867.442 499.829 867.653 499.401C867.883 498.936 868.186 498.399 868.53 497.83C869.22 496.69 870.107 495.36 870.977 494.102C871.848 492.842 872.711 491.642 873.355 490.758C873.677 490.316 873.945 489.952 874.133 489.698C874.226 489.571 874.3 489.472 874.351 489.404L874.408 489.327L874.429 489.3C874.429 489.3 874.429 489.3 875.047 489.925C875.665 490.55 875.665 490.55 875.665 490.55L875.646 490.575L875.59 490.651C875.541 490.717 875.468 490.814 875.376 490.939C875.191 491.19 874.926 491.549 874.607 491.987C873.969 492.863 873.117 494.049 872.258 495.291C871.397 496.536 870.538 497.825 869.881 498.911C869.552 499.455 869.283 499.933 869.092 500.321C868.996 500.514 868.926 500.673 868.879 500.798C868.835 500.914 868.823 500.97 868.821 500.979C868.821 500.98 868.821 500.981 868.821 500.98C868.766 501.378 868.87 501.843 869.178 502.384C869.485 502.922 869.947 503.447 870.459 503.92C870.966 504.387 871.489 504.775 871.89 505.047C872.089 505.182 872.255 505.287 872.37 505.358C872.428 505.393 872.472 505.419 872.501 505.436C872.516 505.445 872.527 505.451 872.534 505.455L872.541 505.459L872.541 505.459C872.95 505.69 873.107 506.272 872.892 506.76C872.677 507.249 872.172 507.458 871.763 507.228L872.152 506.344Z" fill="#2C2746"/>
<path fill-rule="evenodd" clip-rule="evenodd" d="M913.479 518.98C913.822 519.326 913.816 519.875 913.464 520.208C910.015 523.471 900.02 530.665 886.992 533.885C886.516 534.003 886.03 533.721 885.906 533.256C885.782 532.791 886.067 532.318 886.543 532.2C899.222 529.067 908.952 522.047 912.219 518.957C912.571 518.624 913.135 518.634 913.479 518.98Z" fill="#2C2746"/>
<path d="M890.599 497.293C891.794 496.437 892.226 494.995 891.564 494.072C890.903 493.148 889.398 493.094 888.203 493.95C887.009 494.806 886.577 496.249 887.238 497.172C887.9 498.095 889.404 498.149 890.599 497.293Z" fill="#2C2746"/>
<path d="M870.652 487.459C871.613 486.347 871.695 484.843 870.835 484.101C869.976 483.359 868.5 483.659 867.54 484.771C866.579 485.883 866.497 487.386 867.356 488.129C868.216 488.871 869.691 488.571 870.652 487.459Z" fill="#2C2746"/>
<path d="M1036.28 385.303L911.313 455.06C910.169 456.811 910.214 462.46 919.46 470.835C928.706 479.211 938.592 482.924 942.385 483.729L1036.28 385.303Z" fill="#6F52ED"/>
<path d="M969.45 445.65L973.56 438.855L975.525 446.485L980.357 445.111L969.307 457.066L968.373 453.486L959.14 452.218L966.564 449.163L963.184 441.754L969.45 445.65Z" fill="#FFC700"/>
<path d="M929.69 452.079L932.59 447.684L934.072 452.681L939.017 451.357L935.319 455.367L936.495 459.496L932.293 457.583L929.723 461.748L929.08 457.142L922.444 456.23L927.729 454.285L925.25 449.426L929.69 452.079Z" fill="#FFC700"/>
<path d="M1002.23 407.73L995.563 408.089L1010.82 399.155L1007.99 404.39L1009.94 408.658L1005.48 407.517L1003.8 412.648L1002.23 407.73Z" fill="#FFC700"/>
<path d="M1086.24 833.121C1080.45 833.017 1059.86 782.441 1050.3 756.887L1076.49 736.367C1078.17 742.007 1084.39 750.509 1086.67 753.262C1092.74 760.562 1148.95 787.155 1146.93 792.328C1145.3 796.455 1131.73 789.305 1125.14 785.227C1133.47 790.642 1149.88 802.412 1148.62 806.185C1147.37 809.958 1129.09 800.248 1120.13 794.95C1128.7 800.683 1146.45 812.76 1148.78 815.439L1148.85 815.53C1151.67 818.805 1152.66 819.917 1149.88 821.976C1147.65 823.662 1126.62 811.093 1116.39 804.604C1121.64 809.88 1132.51 821.46 1134.13 825.384C1135.71 829.343 1131.33 829.147 1128.92 828.572C1116.29 819.353 1090.03 801.065 1086.25 801.806C1081.47 802.735 1093.46 833.258 1086.24 833.121Z" fill="#FF9D8F"/>
<path d="M705.251 482.65C702.402 503.392 707.408 525.376 712.148 534.691L685.117 558.265C672.154 541.14 646.084 504.967 645.424 497.549C644.724 490.124 648.457 488.289 650.627 487.696C650.85 486.067 652.327 480.683 654.956 476.753C657.487 472.93 660.355 475.308 662.222 476.617C661.635 475.524 666.116 468.245 667.865 466.542C669.665 464.765 677.061 463.392 676.655 466.049C677.399 463.317 680.561 456.991 687.756 457.979C693.744 458.802 693.509 472.737 692.65 479.583C694.067 473.745 699.15 453.431 704.306 451.67C710.447 449.598 708.947 455.748 705.251 482.65Z" fill="#FF9D8F"/>
<path d="M778.275 358.534C775.883 358.205 692.999 463.598 692.999 463.598C692.999 463.598 693.328 464.984 693.514 467.122C693.625 468.641 693.745 471.258 693.745 471.258C693.745 471.258 778.067 360.049 778.275 358.534Z" fill="#2C2746"/>
<path fill-rule="evenodd" clip-rule="evenodd" d="M819.218 309.387C819.687 309.76 819.743 310.398 819.343 310.811L800.074 330.71C799.673 331.124 798.968 331.156 798.499 330.783C798.029 330.41 797.973 329.772 798.373 329.359L817.643 309.459C818.043 309.046 818.748 309.013 819.218 309.387Z" fill="#2C2746"/>
<path fill-rule="evenodd" clip-rule="evenodd" d="M784.451 298.678C785.019 298.65 785.503 299.083 785.533 299.645L786.967 326.7C786.997 327.262 786.561 327.741 785.994 327.769C785.426 327.797 784.942 327.364 784.913 326.802L783.478 299.746C783.448 299.184 783.884 298.706 784.451 298.678Z" fill="#2C2746"/>
<path fill-rule="evenodd" clip-rule="evenodd" d="M834.316 339.741C834.366 340.45 833.943 341.111 833.371 341.218L805.834 346.372C805.263 346.479 804.759 345.991 804.709 345.283C804.659 344.574 805.082 343.913 805.653 343.806L833.19 338.652C833.762 338.545 834.266 339.033 834.316 339.741Z" fill="#2C2746"/>
<path fill-rule="evenodd" clip-rule="evenodd" d="M770.799 349.566C770.866 350.102 770.483 350.588 769.945 350.654L744.026 353.796C743.488 353.861 742.998 353.48 742.932 352.944C742.866 352.409 743.248 351.922 743.786 351.857L769.705 348.715C770.243 348.65 770.733 349.031 770.799 349.566Z" fill="#2C2746"/>
<path fill-rule="evenodd" clip-rule="evenodd" d="M788.924 361.443C789.449 361.495 789.832 361.962 789.78 362.484L787.281 387.69C787.23 388.213 786.762 388.595 786.237 388.542C785.713 388.49 785.329 388.024 785.381 387.501L787.88 362.296C787.932 361.773 788.399 361.391 788.924 361.443Z" fill="#2C2746"/>
<path fill-rule="evenodd" clip-rule="evenodd" d="M801.896 356.435C802.293 356.013 802.949 355.998 803.36 356.4L823.185 375.788C823.597 376.19 823.608 376.858 823.211 377.28C822.814 377.701 822.158 377.717 821.747 377.314L801.922 357.927C801.511 357.524 801.499 356.856 801.896 356.435Z" fill="#2C2746"/>
<path fill-rule="evenodd" clip-rule="evenodd" d="M751.238 314.743C751.63 314.358 752.285 314.35 752.7 314.727L772.697 332.856C773.113 333.232 773.131 333.85 772.739 334.235C772.347 334.621 771.692 334.628 771.277 334.252L751.279 316.123C750.864 315.746 750.846 315.129 751.238 314.743Z" fill="#2C2746"/>
<path fill-rule="evenodd" clip-rule="evenodd" d="M1106.94 777.202C1107.32 776.773 1108.06 776.706 1108.58 777.052L1113.03 779.992C1113.55 780.337 1113.66 780.966 1113.28 781.395C1112.9 781.825 1112.16 781.892 1111.64 781.546L1107.19 778.606C1106.67 778.26 1106.55 777.632 1106.94 777.202Z" fill="#2C2746"/>
<path fill-rule="evenodd" clip-rule="evenodd" d="M688.672 490.975C689.211 491.359 689.277 491.987 688.819 492.377C687.726 493.309 686.61 494.895 685.597 496.936C684.593 498.959 683.725 501.361 683.088 503.863C681.802 508.911 681.503 514.185 682.741 517.531C682.939 518.067 682.549 518.594 681.869 518.709C681.19 518.823 680.479 518.482 680.281 517.947C678.868 514.128 679.264 508.48 680.572 503.345C681.232 500.755 682.135 498.249 683.195 496.111C684.247 493.991 685.488 492.162 686.866 490.988C687.324 490.597 688.132 490.592 688.672 490.975Z" fill="#2C2746"/>
<path fill-rule="evenodd" clip-rule="evenodd" d="M681.009 472.403C681.475 472.422 681.816 472.909 681.772 473.491L680.305 492.841C680.26 493.423 679.847 493.879 679.381 493.86C678.916 493.841 678.574 493.354 678.618 492.772L680.086 473.422C680.13 472.84 680.543 472.384 681.009 472.403Z" fill="#2C2746"/>
<path fill-rule="evenodd" clip-rule="evenodd" d="M670.101 478.134C670.567 478.153 670.908 478.64 670.864 479.221L669.397 498.572C669.353 499.153 668.939 499.609 668.474 499.59C668.008 499.571 667.666 499.084 667.71 498.503L669.178 479.152C669.222 478.571 669.635 478.115 670.101 478.134Z" fill="#2C2746"/>
<path fill-rule="evenodd" clip-rule="evenodd" d="M659.447 489.682C659.683 489.672 659.828 490.103 659.771 490.644L657.895 508.634C657.839 509.175 657.602 509.621 657.367 509.631C657.131 509.64 656.986 509.21 657.043 508.669L658.919 490.678C658.975 490.137 659.212 489.691 659.447 489.682Z" fill="#2C2746"/>
<path fill-rule="evenodd" clip-rule="evenodd" d="M1102.93 785.327C1103.31 784.898 1104.05 784.83 1104.57 785.176L1109.02 788.116C1109.54 788.462 1109.66 789.09 1109.27 789.52C1108.89 789.949 1108.15 790.016 1107.63 789.671L1103.18 786.731C1102.66 786.385 1102.55 785.756 1102.93 785.327Z" fill="#2C2746"/>
<path fill-rule="evenodd" clip-rule="evenodd" d="M1099.09 792.028C1099.41 791.59 1100 791.503 1100.41 791.833L1103.91 794.642C1104.32 794.973 1104.39 795.596 1104.07 796.034C1103.75 796.472 1103.16 796.559 1102.75 796.229L1099.25 793.419C1098.84 793.089 1098.77 792.466 1099.09 792.028Z" fill="#2C2746"/>
<path d="M883.726 556.625L863.993 566.694C851.375 572.653 835.633 587.137 795.539 587.857C755.445 588.576 723.491 551.666 712.533 533.107L669.63 570.56C672.008 576.055 689.526 593.073 740.439 616.958C791.352 640.844 845.814 628.83 866.659 619.849C866.736 632.314 872.345 683.595 875.141 707.667C850.066 696.204 788.109 689.035 760.25 686.877L765.135 885.883C814.223 877.445 921.88 851.086 959.518 813.155C997.157 775.223 988.932 697.372 980.119 663.194C998.108 677.672 1020.35 755.333 1034.58 788.016L1085.87 750.495C1074.11 728.325 1041.56 671.186 1005.5 619.997C969.447 568.808 939.404 557.965 928.938 558.929C908.326 566.801 890.211 560.65 883.726 556.625Z" fill="#6F52ED"/>
<path fill-rule="evenodd" clip-rule="evenodd" d="M759.696 668.283C760.246 668.267 760.702 668.705 760.716 669.259L765.534 861.626C765.548 862.181 765.114 862.643 764.565 862.659C764.016 862.674 763.559 862.237 763.545 861.682L758.727 669.316C758.713 668.761 759.147 668.299 759.696 668.283Z" fill="#2C2746"/>
<path fill-rule="evenodd" clip-rule="evenodd" d="M776.717 670.623C777.267 670.601 777.73 671.036 777.749 671.593L782.93 819.181C782.949 819.738 782.519 820.207 781.968 820.228C781.417 820.25 780.955 819.816 780.935 819.259L775.755 671.671C775.735 671.114 776.166 670.645 776.717 670.623Z" fill="#2C2746"/>
<path fill-rule="evenodd" clip-rule="evenodd" d="M973.101 638.438C973.605 638.233 974.169 638.489 974.362 639.011C980.091 654.549 986.935 676.367 991.331 701.635C991.426 702.185 991.074 702.716 990.543 702.822C990.012 702.927 989.504 702.566 989.408 702.016C985.039 676.903 978.235 655.209 972.536 639.753C972.344 639.232 972.597 638.643 973.101 638.438Z" fill="#2C2746"/>
<path fill-rule="evenodd" clip-rule="evenodd" d="M866.422 607.751C866.884 607.825 867.191 608.327 867.107 608.872C864.936 622.931 862.365 643.402 863.331 665.384C863.355 665.931 862.994 666.417 862.524 666.469C862.055 666.522 861.655 666.12 861.631 665.573C860.655 643.365 863.253 622.717 865.432 608.602C865.516 608.058 865.959 607.676 866.422 607.751Z" fill="#2C2746"/>
<path fill-rule="evenodd" clip-rule="evenodd" d="M982.169 617.869C982.716 617.923 983.114 618.415 983.058 618.967C982.305 626.49 981.748 636.935 982.75 648.514C982.797 649.067 982.393 649.555 981.845 649.605C981.298 649.655 980.815 649.247 980.768 648.695C979.752 636.953 980.317 626.375 981.079 618.77C981.134 618.218 981.622 617.815 982.169 617.869Z" fill="#2C2746"/>
<path fill-rule="evenodd" clip-rule="evenodd" d="M992.711 743.658C993.268 743.679 993.703 744.15 993.682 744.709C992.65 771.988 976.205 837.82 900.276 859.542C899.739 859.696 899.18 859.384 899.028 858.845C898.875 858.307 899.187 857.745 899.724 857.592C974.466 836.209 990.647 771.46 991.662 744.635C991.684 744.075 992.153 743.638 992.711 743.658Z" fill="#2C2746"/>
<path fill-rule="evenodd" clip-rule="evenodd" d="M720.075 527.178C720.426 527.598 720.377 528.233 719.967 528.598L681.049 563.146C680.639 563.51 680.021 563.466 679.671 563.046C679.32 562.626 679.368 561.99 679.779 561.626L718.697 527.078C719.107 526.713 719.724 526.758 720.075 527.178Z" fill="#2C2746"/>
<path fill-rule="evenodd" clip-rule="evenodd" d="M1093.8 743.394C1094.12 743.842 1094.02 744.473 1093.58 744.803L1052.21 776.121C1051.78 776.451 1051.17 776.356 1050.85 775.908C1050.54 775.46 1050.63 774.829 1051.07 774.499L1092.44 743.182C1092.88 742.851 1093.49 742.946 1093.8 743.394Z" fill="#2C2746"/>
<path fill-rule="evenodd" clip-rule="evenodd" d="M1081.62 737.382C1081.93 737.83 1081.83 738.461 1081.4 738.791L1040.03 770.109C1039.59 770.439 1038.98 770.344 1038.67 769.897C1038.35 769.449 1038.45 768.818 1038.88 768.488L1080.25 737.17C1080.69 736.839 1081.3 736.934 1081.62 737.382Z" fill="#2C2746"/>
<path fill-rule="evenodd" clip-rule="evenodd" d="M725.585 539.479C725.959 539.884 725.929 540.508 725.519 540.872L686.651 575.469C686.241 575.834 685.605 575.802 685.232 575.398C684.858 574.993 684.888 574.369 685.298 574.004L724.166 539.407C724.576 539.043 725.212 539.075 725.585 539.479Z" fill="#2C2746"/>
<path fill-rule="evenodd" clip-rule="evenodd" d="M925.414 559.993C925.611 560.509 925.354 561.089 924.839 561.287C918.064 563.897 910.377 564.233 903.573 563.621C896.763 563.008 890.751 561.436 887.273 560.151C886.755 559.96 886.49 559.384 886.682 558.865C886.873 558.346 887.447 558.08 887.965 558.271C891.279 559.496 897.119 561.029 903.753 561.626C910.394 562.223 917.741 561.875 924.124 559.417C924.639 559.219 925.216 559.477 925.414 559.993Z" fill="#2C2746"/>
<path d="M934.454 617.893L944.468 601.123L949.118 619.908L965.745 614.624L953.042 630.021L956.687 645.658L942.704 638.678L933.767 654.592L931.804 637.18L909.572 634.126L927.477 626.509L919.398 608.257L934.454 617.893Z" fill="#FFC700"/>
<path d="M959.289 746.198L964.356 738.312L966.826 747.234L975.325 744.842L968.872 752.063L970.808 759.488L963.592 756.123L959.114 763.616L958.031 755.359L946.626 753.792L955.774 750.264L951.508 741.57L959.289 746.198Z" fill="#FFC700"/>
<path d="M874.927 774.147L879.009 767.069L880.874 774.964L887.637 772.743L882.44 779.236L883.893 785.78L878.231 782.887L874.559 789.59L873.809 782.28L864.81 781.044L872.11 777.817L868.856 770.163L874.927 774.147Z" fill="#FFC700"/>
<path d="M863.663 593.323L867.745 586.245L869.571 594.135L876.334 591.914L871.137 598.407L872.59 604.951L866.928 602.058L863.256 608.761L862.507 601.451L853.507 600.215L860.807 596.988L857.554 589.334L863.663 593.323Z" fill="#FFC700"/>
<path d="M1047.37 732.3L1052.2 724.356L1054.49 733.279L1062.55 730.816L1056.41 738.065L1058.2 745.452L1051.4 742.137L1047.09 749.677L1046.11 741.411L1035.28 739.923L1044 736.36L1040.04 727.723L1047.37 732.3Z" fill="#FFC700"/>
<path d="M762.598 580.476C762.598 580.476 766.587 582.597 769.285 583.63C771.45 584.466 772.897 584.996 775.09 585.629C776.975 586.177 780.15 586.945 780.15 586.945L777.089 588.843L778.585 595.135L772.891 592.324L769.249 598.739L768.454 591.715L759.424 590.474L766.724 587.419L762.598 580.476Z" fill="#FFC700"/>
<path d="M790.662 710.514L797.592 699.499L800.971 711.93L812.602 708.539L803.776 718.603L806.413 728.904L796.553 724.223L790.365 734.651L788.882 723.17L773.296 721.028L785.801 716.094L780.016 704.021L790.662 710.514Z" fill="#FFC700"/>
<path d="M847.723 858.981L856.337 844.918L860.443 860.729L876.057 857.038C876.057 857.038 855.27 865.072 826.21 872.587C832.207 869.918 841.702 866.25 841.702 866.25L834.623 850.853L847.723 858.981Z" fill="#FFC700"/>
<circle cx="597.859" cy="323.751" r="16.7586" fill="#FF3C20"/>
<rect x="149.819" y="221.014" width="42.2609" height="42.2609" transform="rotate(36.007 149.819 221.014)" fill="#0084F4"/>
<path d="M1004.07 933.619C1001.39 959.383 987.54 957.773 977.479 960.457C1003.59 963.873 1001.67 979.731 1004.07 987.538C1007.9 963.629 1017 964.117 1029.94 960.457C1007.66 957.529 1006.7 946.794 1004.07 933.619Z" fill="#DBD4FB"/>
<path d="M176.338 560.558C173.655 586.322 159.809 584.712 149.748 587.395C175.859 590.811 173.943 606.67 176.338 614.477C180.171 590.567 189.274 591.055 202.21 587.395C179.932 584.468 178.973 573.733 176.338 560.558Z" fill="#DBD4FB"/>
</svg>
