<svg width="1260" height="950" viewBox="0 0 1260 950" fill="none" xmlns="http://www.w3.org/2000/svg">
<rect width="1260" height="950" fill="white"/>
<circle cx="630.67" cy="455.773" r="337.114" fill="#F5F3FE"/>
<path d="M317.928 178.905C376.125 189.198 439.371 204.299 498.526 193.503C541.078 185.738 593.117 172.413 618.623 133.304C636.976 105.162 619.311 72.3122 589.727 61.8181C562.122 52.0261 541.04 68.7346 536.601 96.7335C531.997 125.776 538.102 160.07 559.026 182.216C587.748 212.617 634.57 221.428 673.705 229.322C705.519 235.739 737.808 239.352 769.647 245.576C803.826 252.257 836.702 264.113 868.599 277.933C926.418 302.983 983.39 347.383 997.801 411.349C1009.09 461.454 998.856 527.879 949.491 555.074C922.169 570.126 887.541 574.443 857.914 564.179C838.376 557.41 810.505 544.34 799.897 525.125C787.468 502.611 794.721 460.213 828.642 474.934C862.478 489.617 882.909 526.66 875.371 563.125C863.146 622.272 795.804 648.872 741.88 655.079C706.027 659.206 669.105 657.818 633.823 650.113C605.307 643.886 579.715 636.602 550.221 635.741C494.57 634.116 443.703 645.666 398.595 679.159C380.085 692.904 363.673 708.585 350.586 727.619C346.434 733.659 342.772 743.537 335.537 746.431" stroke="#B7A8F6" stroke-width="1.64446" stroke-linecap="round" stroke-linejoin="round"/>
<circle cx="349.574" cy="711.538" r="89.5229" fill="#FF7B50"/>
<circle cx="1010.97" cy="365.472" r="12.0255" fill="#FF3C20"/>
<path d="M986.429 271.941C985.131 284.71 978.431 283.912 973.562 285.242C986.198 286.935 985.27 294.794 986.429 298.664C988.284 286.814 992.689 287.056 998.949 285.242C988.168 283.791 987.705 278.47 986.429 271.941Z" fill="#DBD4FB"/>
<path d="M673.767 320.042C672.469 332.173 665.769 331.415 660.9 332.678C673.535 334.287 672.608 341.753 673.767 345.429C675.622 334.172 680.027 334.402 686.287 332.678C675.506 331.3 675.042 326.246 673.767 320.042Z" fill="#DBD4FB"/>
<rect x="980.939" y="477.151" width="36.0764" height="36.0764" fill="#0084F4"/>
<rect x="312.229" y="128.971" width="64.3418" height="64.3418" transform="rotate(45 312.229 128.971)" fill="#00C471"/>
<path d="M481.459 271.144C485.783 286.109 474.052 302.502 465.216 305.51C464.652 312.654 463.938 327.769 465.705 331.003C467.472 334.237 489.054 339.801 499.657 342.17C498.642 344.915 491.235 353.488 469.691 365.67C424.985 386.613 399.154 354.24 398.703 352.472C437.43 320.701 427.015 300.058 426.601 298.442C425.774 298.667 415.735 294.043 411.073 288.102C407.463 283.552 405.771 280.056 404.38 274.378C402.763 267.685 402.312 263.474 403.854 256.744C407.275 242.042 421.751 233.244 432.241 230.499C442.732 227.717 451.38 233.206 460.855 242.155C471.082 251.931 477.098 256.18 481.459 271.144Z" fill="#FF9D8F"/>
<path d="M441.377 302.916C441.377 302.916 447.017 306.074 465.14 305.398C465.14 305.398 464.501 325.213 464.501 325.814C450.288 311.413 441.377 302.916 441.377 302.916Z" fill="#FF3C20"/>
<path fill-rule="evenodd" clip-rule="evenodd" d="M458.249 259.427C458.553 259.006 459.14 258.911 459.561 259.215L459.011 259.977L458.461 260.739C458.04 260.435 457.945 259.848 458.249 259.427ZM470.302 268.436C470.147 268.032 469.807 267.615 469.477 267.255C469.117 266.862 468.657 266.42 468.142 265.957C467.111 265.028 465.811 263.969 464.545 262.975C463.277 261.978 462.031 261.039 461.104 260.349C460.64 260.004 460.255 259.721 459.985 259.524C459.851 259.426 459.745 259.349 459.673 259.296L459.59 259.236L459.561 259.215C459.561 259.215 459.561 259.215 459.011 259.977C458.461 260.739 458.461 260.739 458.461 260.739L458.487 260.759L458.568 260.817C458.639 260.869 458.743 260.944 458.876 261.042C459.142 261.236 459.523 261.516 459.982 261.858C460.902 262.542 462.133 263.47 463.384 264.453C464.637 265.438 465.899 266.467 466.884 267.354C467.378 267.798 467.789 268.195 468.091 268.525C468.242 268.69 468.357 268.828 468.438 268.94C468.525 269.059 468.549 269.113 468.548 269.112L468.549 269.115L468.551 269.119C468.707 269.517 468.684 270.026 468.443 270.662C468.203 271.296 467.78 271.961 467.29 272.585C466.805 273.204 466.284 273.747 465.88 274.138C465.679 274.333 465.509 274.488 465.392 274.592C465.333 274.645 465.287 274.684 465.257 274.71C465.241 274.723 465.23 274.733 465.223 274.739L465.216 274.745L465.215 274.746C465.215 274.746 465.215 274.746 465.215 274.746C464.816 275.078 464.762 275.67 465.094 276.069C465.426 276.469 466.018 276.523 466.418 276.191L465.816 275.468C466.418 276.191 466.418 276.191 466.418 276.191L466.418 276.19L466.42 276.189L466.424 276.186L466.436 276.175C466.447 276.166 466.462 276.153 466.481 276.137C466.519 276.104 466.573 276.057 466.641 275.997C466.776 275.877 466.965 275.705 467.187 275.489C467.631 275.06 468.216 274.452 468.77 273.745C469.319 273.044 469.867 272.21 470.201 271.328C470.534 270.449 470.69 269.427 470.302 268.436Z" fill="#2C2746"/>
<path d="M465.554 214.933C470.781 218.505 430.737 260.278 413.629 272.498L418.555 278.288C416.525 278.1 411.073 277.724 410.433 281.747C409.606 289.869 420.435 291.824 427.428 291.523C426.977 294.155 426.639 298.517 426.639 298.517C385.693 282.161 399.154 245.652 406.335 235.274C426.037 211.022 445.965 209.105 449.575 209.105C454.274 211.737 445.063 225.762 445.063 225.762C445.063 225.762 460.328 211.323 465.554 214.933Z" fill="#2C2746"/>
<path d="M449.504 269.032C450.237 268.326 449.874 266.759 448.692 265.533C447.511 264.306 445.96 263.884 445.227 264.59C444.494 265.296 444.857 266.862 446.038 268.089C447.22 269.315 448.771 269.737 449.504 269.032Z" fill="#2C2746"/>
<path d="M467.212 257.614C468.117 257.149 468.22 255.544 467.442 254.03C466.664 252.515 465.3 251.664 464.394 252.129C463.489 252.594 463.386 254.199 464.164 255.713C464.942 257.228 466.307 258.079 467.212 257.614Z" fill="#2C2746"/>
<path fill-rule="evenodd" clip-rule="evenodd" d="M436.634 302.224C436.83 301.743 437.378 301.511 437.859 301.707C441.245 303.083 446.097 303.919 450.853 304.396C455.589 304.872 460.14 304.984 462.872 304.946C463.391 304.939 463.818 305.354 463.825 305.874C463.832 306.393 463.417 306.819 462.898 306.826C460.103 306.864 455.48 306.75 450.665 306.267C445.871 305.786 440.797 304.93 437.151 303.448C436.67 303.253 436.439 302.705 436.634 302.224Z" fill="#2C2746"/>
<path d="M460.63 739.146C507.291 747.494 522.444 719.52 531.205 708.089C539.965 696.659 540.642 682.484 540.642 682.484C525.828 653.946 488.304 631.236 473.79 625.295C468.789 643.155 467.473 672.106 416.902 661.014C402.276 657.781 389.003 656.051 377.272 655.299L393.853 733.018C404.983 730.987 422.805 732.379 460.63 739.146Z" fill="#00C471"/>
<path d="M537.22 695.982C520.338 659.36 486.385 639.77 472.21 632.326C480.182 639.883 501.989 664.549 500.937 683.875C499.621 708.879 482.475 705.232 480.934 740.726C516.014 740.763 536.355 700.268 537.22 695.982Z" fill="#27AE60"/>
<path d="M482.551 639.996C419.534 596.719 406.638 532.875 408.743 509.789C408.743 509.789 442.132 494.185 466.609 489.184C506.276 481.1 531.919 487.944 531.919 487.944C531.919 487.944 544.365 517.76 549.817 533.74C557.675 556.6 562.864 595.441 562.864 595.441C563.052 595.554 565.721 597.396 565.721 597.396C612.758 631.424 643.853 711.022 652.614 744.485C655.133 754.976 660.66 772.76 672.203 788.59L566.962 825.663C561.811 764.376 544.252 682.371 482.551 639.996Z" fill="#00C471"/>
<path fill-rule="evenodd" clip-rule="evenodd" d="M639.658 783.599C639.84 784.085 639.592 784.627 639.106 784.808L557.966 815.076C557.48 815.257 556.938 815.01 556.757 814.523C556.575 814.037 556.823 813.496 557.309 813.314L638.449 783.047C638.935 782.865 639.477 783.112 639.658 783.599Z" fill="#2C2746"/>
<path fill-rule="evenodd" clip-rule="evenodd" d="M383.39 637.536C383.897 637.426 384.397 637.749 384.507 638.256L402.818 722.893C402.928 723.4 402.606 723.9 402.098 724.01C401.591 724.12 401.091 723.798 400.981 723.29L382.67 638.654C382.56 638.146 382.882 637.646 383.39 637.536Z" fill="#2C2746"/>
<path d="M562.9 595.441C519.36 559.796 507.478 528.814 499.094 516.256C505.335 521.445 514.246 537.086 532.219 544.456C550.192 551.825 557.524 565.211 558.426 568.444C559.328 571.678 562.9 595.441 562.9 595.441Z" fill="#27AE60"/>
<path d="M567.224 891.801C562.712 871.722 564.668 836.83 567.036 825.663L662.464 791.823C662.915 793.064 664.156 795.658 666.374 798.478C670.059 803.141 682.317 817.203 714.953 829.648C741.085 839.612 758.945 863.639 764.66 873.903C725.18 877.099 686.189 881.461 643.664 885.597C643.664 885.597 641.333 885.785 633.663 882.363C626.03 878.942 620.127 880.521 614.487 881.047L609.975 888.83C594.634 890.221 567.3 892.327 567.224 891.801Z" fill="#2C2746"/>
<path d="M330.272 649.547C344.936 648.155 369.564 652.667 377.272 655.374L392.725 726.212C391.785 726.4 389.83 727.077 387.65 728.393C384.002 730.574 372.91 738.018 361.142 760.089C351.704 777.761 333.017 788.289 325.234 791.447C326.513 763.097 326.926 735.01 327.828 704.442C327.828 704.442 327.904 702.75 331.024 697.636C334.145 692.523 333.544 688.199 333.694 684.138L328.58 680.228C328.956 669.136 329.934 649.509 330.272 649.547Z" fill="#2C2746"/>
<path d="M460.968 509.638C462.134 522.385 458.599 552.088 435.401 569.083L460.968 509.638Z" fill="#27AE60"/>
<path fill-rule="evenodd" clip-rule="evenodd" d="M432.579 656.811C432.72 656.311 433.24 656.021 433.739 656.162C441.127 658.251 455.467 661.59 472.393 658.027C472.902 657.92 473.4 658.245 473.507 658.753C473.614 659.261 473.289 659.759 472.781 659.866C455.416 663.522 440.729 660.093 433.228 657.971C432.728 657.83 432.438 657.31 432.579 656.811Z" fill="#2C2746"/>
<path fill-rule="evenodd" clip-rule="evenodd" d="M505.186 664.949C505.546 664.575 506.141 664.565 506.515 664.925C528.972 686.587 538.47 711.309 542.775 724.338C542.938 724.831 542.67 725.363 542.178 725.526C541.685 725.689 541.153 725.421 540.99 724.928C536.723 712.014 527.345 687.63 505.21 666.278C504.836 665.918 504.825 665.323 505.186 664.949Z" fill="#2C2746"/>
<path fill-rule="evenodd" clip-rule="evenodd" d="M460.645 509.829C461.163 509.795 461.61 510.188 461.643 510.706L460.705 510.767C461.643 510.706 461.643 510.706 461.643 510.707L461.644 510.709L461.644 510.715L461.645 510.735C461.646 510.753 461.648 510.778 461.649 510.811C461.653 510.877 461.658 510.974 461.663 511.1C461.673 511.352 461.684 511.72 461.69 512.195C461.703 513.145 461.694 514.521 461.611 516.237C461.444 519.668 460.977 524.466 459.777 529.946C457.378 540.899 452.038 554.634 440.252 565.598C439.872 565.952 439.277 565.93 438.924 565.55C438.57 565.17 438.592 564.575 438.972 564.222C450.385 553.604 455.592 540.267 457.94 529.544C459.113 524.186 459.57 519.494 459.733 516.146C459.814 514.472 459.823 513.135 459.811 512.22C459.805 511.763 459.794 511.411 459.784 511.175C459.779 511.057 459.775 510.968 459.772 510.91C459.77 510.881 459.769 510.859 459.768 510.845L459.768 510.83L459.767 510.827L459.767 510.827" fill="#2C2746"/>
<path fill-rule="evenodd" clip-rule="evenodd" d="M498.926 516.493C499.397 516.275 499.955 516.481 500.173 516.952C503.624 524.426 513.95 538.254 527.871 553.98C541.762 569.673 559.148 587.162 576.63 601.942L576.63 601.942C604.684 625.705 623.085 657.595 635.727 686.33C642.049 700.703 646.938 714.301 650.872 725.715C651.738 728.226 652.556 730.627 653.332 732.906C656.095 741.015 658.328 747.568 660.278 751.962C660.488 752.437 660.274 752.992 659.8 753.203C659.325 753.413 658.77 753.199 658.559 752.725C656.572 748.247 654.3 741.578 651.531 733.449C650.759 731.183 649.949 728.804 649.095 726.327C645.166 714.931 640.298 701.389 634.006 687.087C621.418 658.474 603.159 626.877 575.416 603.377C557.854 588.529 540.404 570.975 526.463 555.226C512.55 539.509 502.047 525.495 498.466 517.74C498.249 517.269 498.454 516.71 498.926 516.493Z" fill="#2C2746"/>
<path fill-rule="evenodd" clip-rule="evenodd" d="M704.278 788.156C705.71 788.51 706.916 789.33 707.803 790.662C708.695 791.996 708.968 793.397 708.665 794.802C708.369 796.17 707.546 797.452 706.418 798.636C704.172 800.995 700.48 803.212 696.225 805.209C687.682 809.219 676.473 812.527 668.774 814.358L665.785 815.068L667.864 812.807C673.039 807.179 681.193 799.286 688.843 793.93C692.656 791.26 696.421 789.164 699.674 788.337C701.306 787.921 702.873 787.809 704.278 788.156ZM671.429 811.761C676.496 806.487 683.418 800.023 689.921 795.47C693.68 792.838 697.22 790.901 700.137 790.159C701.59 789.789 702.824 789.733 703.827 789.981C704.803 790.223 705.612 790.763 706.238 791.705L706.24 791.707C706.87 792.648 707.015 793.534 706.827 794.405C706.631 795.312 706.051 796.295 705.057 797.34C703.06 799.437 699.631 801.533 695.426 803.507C688.121 806.936 678.77 809.863 671.429 811.761Z" fill="#2C2746"/>
<path fill-rule="evenodd" clip-rule="evenodd" d="M690.096 777.328C691.545 777.05 692.986 777.288 694.352 778.125C695.719 778.963 696.552 780.123 696.862 781.526C697.165 782.892 696.951 784.401 696.421 785.948C695.364 789.03 692.935 792.587 689.902 796.18C683.813 803.394 675.005 811.082 668.758 815.952L666.339 817.837L667.286 814.92C669.646 807.65 673.76 797.08 678.475 789.022C680.825 785.005 683.372 781.53 685.984 779.418C687.295 778.358 688.673 777.601 690.096 777.328ZM670.089 812.489C675.977 807.705 683.258 801.138 688.466 794.968C691.463 791.417 693.703 788.079 694.643 785.338C695.11 783.973 695.227 782.838 695.027 781.931C694.835 781.062 694.333 780.319 693.369 779.728C692.404 779.136 691.44 778.984 690.449 779.174C689.432 779.369 688.333 779.937 687.166 780.88C684.823 782.774 682.414 786.012 680.097 789.972C676.088 796.822 672.497 805.583 670.089 812.489Z" fill="#2C2746"/>
<path fill-rule="evenodd" clip-rule="evenodd" d="M372.612 722.074L374.603 724.398C379.57 730.195 386.432 739.23 390.838 747.468C393.035 751.575 394.667 755.567 395.103 758.901C395.322 760.574 395.249 762.146 394.739 763.503C394.219 764.885 393.264 765.99 391.837 766.717L391.833 766.719C390.4 767.441 388.974 767.541 387.615 767.069C386.29 766.609 385.115 765.637 384.072 764.375C381.994 761.86 380.231 757.93 378.754 753.466C375.787 744.506 373.842 732.985 372.955 725.114L372.612 722.074ZM375.21 728.052C376.21 735.572 378.001 745.21 380.539 752.876C381.998 757.286 383.674 760.941 385.521 763.178C386.441 764.291 387.351 764.987 388.231 765.293C389.077 765.586 389.975 765.549 390.985 765.041C391.992 764.528 392.624 763.786 392.979 762.841C393.344 761.87 393.434 760.634 393.239 759.145C392.848 756.154 391.346 752.403 389.181 748.355C385.434 741.35 379.84 733.706 375.21 728.052Z" fill="#2C2746"/>
<path fill-rule="evenodd" clip-rule="evenodd" d="M369.801 722.262L372.592 723.554C379.522 726.765 389.525 732.118 396.965 737.768C400.674 740.585 403.823 743.532 405.611 746.379C406.508 747.808 407.098 749.267 407.201 750.712C407.307 752.185 406.901 753.587 405.909 754.844L405.907 754.847L405.905 754.849C404.901 756.101 403.646 756.783 402.213 756.919C400.817 757.05 399.344 756.656 397.87 755.942C394.933 754.519 391.693 751.679 388.489 748.237C382.059 741.327 375.487 731.669 371.392 724.894L369.801 722.262ZM374.677 726.632C378.726 733.042 384.367 741.049 389.866 746.957C393.031 750.358 396.077 752.984 398.689 754.25C399.99 754.88 401.107 755.135 402.036 755.047C402.927 754.963 403.729 754.556 404.436 753.676C405.134 752.79 405.398 751.853 405.326 750.846C405.252 749.812 404.818 748.651 404.019 747.379C402.414 744.824 399.484 742.041 395.828 739.265C389.505 734.463 381.24 729.848 374.677 726.632Z" fill="#2C2746"/>
<path d="M546.205 403.232C551.13 411.315 553.236 425.754 581.398 425.152C609.523 424.588 619.825 419.099 621.479 416.467C625.954 404.51 635.993 380.747 640.317 381.461C645.769 382.364 643.212 392.177 640.317 408.646C638.512 421.354 670.584 404.698 673.141 403.194C675.735 401.652 681.338 399.208 683.105 403.194C684.195 405.675 672.916 414.211 662.162 420.189C668.366 417.256 688.858 408.608 692.166 408.608C695.588 408.608 699.047 414.775 668.78 428.724C677.315 425.152 689.121 421.467 690.324 423.986C692.016 427.558 678.668 434.74 667.764 439.064C672.013 437.71 680.887 435.266 683.105 435.567C685.925 435.943 686.376 438.274 684.383 439.929C682.579 441.433 610.763 470.384 589.557 473.091C568.351 475.799 555.116 478.543 540.076 473.091C531.09 469.858 525.976 465.008 524.66 463.428L516.464 435.454L546.205 403.232Z" fill="#FF9D8F"/>
<path d="M378.136 423.761C371.969 428.122 309.028 455.871 362.945 503.096C379.64 517.722 395.319 528.25 398.439 528.024C410.81 524.791 428.406 525.092 430.324 529.077C432.73 534.04 424.308 534.454 416.788 538.289C405.395 544.117 433.294 562.428 436.001 563.631C438.746 564.872 444.01 568.03 441.754 571.79C440.363 574.084 426.865 569.835 415.81 564.496C421.751 567.88 440.664 579.649 442.544 582.318C444.499 585.101 441.453 591.492 412.614 574.836C420.473 579.761 430.286 587.281 428.895 589.725C426.977 593.147 413.404 586.417 403.553 579.987C407.125 582.694 414.194 588.522 415.246 590.477C416.562 592.996 414.946 594.688 412.426 594.012C410.133 593.41 348.357 548.554 332.49 534.228C315.344 518.737 290.416 491.703 284.099 476.701C273.158 450.72 289.927 433.01 290.416 431.017L340.01 384.883L378.136 423.761Z" fill="#FF9D8F"/>
<path d="M508.756 445.869L547.371 408.044C528.158 433.123 522.63 454.78 522.104 454.292C521.39 453.615 514.547 448.99 508.756 445.869Z" fill="#FF3C20"/>
<path d="M376.407 424.738L338.281 386.349C357.344 411.541 362.495 433.537 363.021 433.048C363.736 432.409 370.617 427.822 376.407 424.738Z" fill="#FF3C20"/>
<path fill-rule="evenodd" clip-rule="evenodd" d="M644.379 417.219C644.898 417.219 645.319 417.64 645.319 418.159C645.319 421.489 643.591 425.933 640.816 430.053C638.025 434.196 634.076 438.16 629.459 440.469C628.994 440.701 628.43 440.513 628.197 440.048C627.965 439.584 628.154 439.019 628.618 438.787C632.873 436.659 636.595 432.953 639.256 429.003C641.933 425.029 643.439 420.957 643.439 418.159C643.439 417.64 643.86 417.219 644.379 417.219Z" fill="#2C2746"/>
<path fill-rule="evenodd" clip-rule="evenodd" d="M651.253 436.944C654.668 437.006 658.028 437.415 660.241 438.047C660.74 438.19 661.029 438.71 660.886 439.209C660.744 439.709 660.223 439.998 659.724 439.855C657.726 439.284 654.544 438.884 651.219 438.824C647.889 438.764 644.536 439.046 642.174 439.774C641.678 439.927 641.152 439.649 640.999 439.153C640.846 438.657 641.124 438.131 641.62 437.978C644.259 437.164 647.843 436.883 651.253 436.944Z" fill="#2C2746"/>
<path fill-rule="evenodd" clip-rule="evenodd" d="M355.181 443.339C355.478 443.765 355.374 444.351 354.948 444.648C350.137 448.001 346.01 453.205 342.983 458.504C339.95 463.812 338.086 469.1 337.71 472.554C337.654 473.07 337.19 473.443 336.674 473.387C336.158 473.331 335.785 472.867 335.842 472.351C336.255 468.548 338.245 463.007 341.351 457.571C344.462 452.126 348.757 446.671 353.873 443.106C354.299 442.809 354.885 442.913 355.181 443.339Z" fill="#2C2746"/>
<path fill-rule="evenodd" clip-rule="evenodd" d="M550.236 403.483C550.741 403.362 551.248 403.673 551.369 404.178C552.736 409.881 556.081 415.622 559.914 420.369C563.755 425.125 568.002 428.779 571.078 430.371C571.539 430.609 571.72 431.177 571.481 431.638C571.243 432.099 570.675 432.279 570.214 432.041C566.823 430.286 562.385 426.42 558.452 421.55C554.512 416.672 550.994 410.681 549.541 404.616C549.42 404.111 549.731 403.604 550.236 403.483Z" fill="#2C2746"/>
<path fill-rule="evenodd" clip-rule="evenodd" d="M406.121 558.125C406.379 557.675 406.954 557.519 407.404 557.778L411.465 560.109C411.915 560.367 412.071 560.942 411.812 561.392C411.554 561.842 410.979 561.998 410.529 561.739L406.468 559.408C406.018 559.15 405.862 558.575 406.121 558.125Z" fill="#2C2746"/>
<path fill-rule="evenodd" clip-rule="evenodd" d="M400.332 565.231C400.591 564.781 401.165 564.626 401.616 564.884L405.676 567.215C406.127 567.474 406.282 568.048 406.024 568.498C405.765 568.949 405.191 569.104 404.74 568.846L400.68 566.515C400.229 566.256 400.074 565.682 400.332 565.231Z" fill="#2C2746"/>
<path fill-rule="evenodd" clip-rule="evenodd" d="M394.654 571.398C394.912 570.948 395.487 570.792 395.937 571.051L399.998 573.382C400.448 573.64 400.603 574.215 400.345 574.665C400.086 575.115 399.512 575.27 399.062 575.012L395.001 572.681C394.551 572.422 394.395 571.848 394.654 571.398Z" fill="#2C2746"/>
<path d="M467.061 332.243C443.41 349.088 425.438 337.996 419.873 330.175C419.873 330.175 396.825 330.815 381.559 338.485C357.533 350.554 334.785 372.212 329.296 378.228L381.559 431.431L399.381 418.873C402.352 449.78 408.631 512.383 408.631 510.766C456.457 485.762 515.263 483.845 531.882 488.169L517.294 437.936L555.57 399.283C547.749 382.401 526.581 359.24 512.406 349.05C502.028 341.568 478.152 333.973 467.061 332.243Z" fill="#6F52ED"/>
<path d="M511.204 348.186C498.495 340.064 476.725 333.672 466.949 332.356L461.309 335.891C462.212 336.906 467.589 339.951 482.102 343.899C501.052 349.351 509.399 349.088 511.204 348.186Z" fill="#2B11A2"/>
<path d="M472.55 489.748C441.116 495.614 416.677 506.142 408.593 510.917L399.381 421.091C399.381 421.091 421.79 365.369 414.909 398.569C408.066 431.732 430.626 477.19 449.614 481.89C468.639 486.552 471.121 488.169 472.55 489.748Z" fill="#2B11A2"/>
<path fill-rule="evenodd" clip-rule="evenodd" d="M472.447 327.389C472.802 327.768 472.783 328.363 472.405 328.718C455.011 345.039 435.345 342.625 427.589 339.312C427.111 339.108 426.889 338.556 427.093 338.078C427.297 337.601 427.85 337.379 428.327 337.583C435.536 340.662 454.371 343.061 471.118 327.347C471.497 326.992 472.092 327.011 472.447 327.389Z" fill="#2C2746"/>
<path fill-rule="evenodd" clip-rule="evenodd" d="M512.326 418.429C512.841 418.364 513.311 418.729 513.376 419.244C516.064 440.559 522.176 459.198 539.646 488.477C539.912 488.923 539.766 489.5 539.32 489.766C538.874 490.032 538.297 489.886 538.031 489.44C520.458 459.988 514.237 441.103 511.511 419.479C511.446 418.964 511.811 418.494 512.326 418.429Z" fill="#2C2746"/>
<path fill-rule="evenodd" clip-rule="evenodd" d="M504.432 483.546C504.472 484.063 504.086 484.516 503.568 484.557C471.262 487.102 442.841 494.505 397.884 516.946C397.419 517.178 396.855 516.99 396.623 516.525C396.391 516.061 396.579 515.496 397.044 515.264C442.175 492.737 470.83 485.25 503.421 482.682C503.938 482.642 504.391 483.028 504.432 483.546Z" fill="#2C2746"/>
<path fill-rule="evenodd" clip-rule="evenodd" d="M397.539 397.335C398.054 397.273 398.523 397.64 398.585 398.155C400.365 412.812 400.171 425.954 396.359 447.126C396.267 447.637 395.778 447.977 395.267 447.885C394.756 447.793 394.417 447.304 394.509 446.793C398.292 425.779 398.473 412.827 396.719 398.382C396.656 397.866 397.023 397.398 397.539 397.335Z" fill="#2C2746"/>
<path fill-rule="evenodd" clip-rule="evenodd" d="M415.37 388.31C415.783 388.626 415.861 389.216 415.545 389.628C410.702 395.95 407.328 402.345 403.895 414.135C403.75 414.633 403.228 414.92 402.73 414.775C402.231 414.63 401.945 414.108 402.09 413.609C405.576 401.637 409.044 395.022 414.053 388.485C414.368 388.073 414.958 387.995 415.37 388.31Z" fill="#2C2746"/>
<path fill-rule="evenodd" clip-rule="evenodd" d="M473.189 356.984C470.386 356.984 468.114 359.257 468.114 362.06C468.114 364.863 470.386 367.136 473.189 367.136C475.993 367.136 478.265 364.863 478.265 362.06C478.265 359.257 475.993 356.984 473.189 356.984ZM466.234 362.06C466.234 358.218 469.348 355.104 473.189 355.104C477.031 355.104 480.145 358.218 480.145 362.06C480.145 365.902 477.031 369.016 473.189 369.016C469.348 369.016 466.234 365.902 466.234 362.06Z" fill="white"/>
<path fill-rule="evenodd" clip-rule="evenodd" d="M447.36 417.745C444.556 417.745 442.284 420.018 442.284 422.821C442.284 425.624 444.556 427.897 447.36 427.897C450.163 427.897 452.436 425.624 452.436 422.821C452.436 420.018 450.163 417.745 447.36 417.745ZM440.404 422.821C440.404 418.979 443.518 415.865 447.36 415.865C451.201 415.865 454.316 418.979 454.316 422.821C454.316 426.663 451.201 429.777 447.36 429.777C443.518 429.777 440.404 426.663 440.404 422.821Z" fill="white"/>
<path fill-rule="evenodd" clip-rule="evenodd" d="M504.134 448.877C501.33 448.877 499.058 451.15 499.058 453.953C499.058 456.757 501.33 459.029 504.134 459.029C506.937 459.029 509.21 456.757 509.21 453.953C509.21 451.15 506.937 448.877 504.134 448.877ZM497.178 453.953C497.178 450.112 500.292 446.997 504.134 446.997C507.975 446.997 511.089 450.112 511.089 453.953C511.089 457.795 507.975 460.909 504.134 460.909C500.292 460.909 497.178 457.795 497.178 453.953Z" fill="white"/>
<path fill-rule="evenodd" clip-rule="evenodd" d="M380.094 363.977C377.29 363.977 375.018 366.25 375.018 369.053C375.018 371.857 377.29 374.129 380.094 374.129C382.897 374.129 385.17 371.857 385.17 369.053C385.17 366.25 382.897 363.977 380.094 363.977ZM373.138 369.053C373.138 365.212 376.252 362.097 380.094 362.097C383.935 362.097 387.05 365.212 387.05 369.053C387.05 372.895 383.935 376.009 380.094 376.009C376.252 376.009 373.138 372.895 373.138 369.053Z" fill="white"/>
<path fill-rule="evenodd" clip-rule="evenodd" d="M523.423 399.321C520.619 399.321 518.347 401.594 518.347 404.397C518.347 407.2 520.619 409.473 523.423 409.473C526.226 409.473 528.499 407.2 528.499 404.397C528.499 401.594 526.226 399.321 523.423 399.321ZM516.467 404.397C516.467 400.555 519.581 397.441 523.423 397.441C527.264 397.441 530.379 400.555 530.379 404.397C530.379 408.239 527.264 411.353 523.423 411.353C519.581 411.353 516.467 408.239 516.467 404.397Z" fill="white"/>
<path fill-rule="evenodd" clip-rule="evenodd" d="M434.349 471.287C431.545 471.287 429.273 473.559 429.273 476.363C429.273 479.166 431.545 481.439 434.349 481.439C437.152 481.439 439.424 479.166 439.424 476.363C439.424 473.559 437.152 471.287 434.349 471.287ZM427.393 476.363C427.393 472.521 430.507 469.407 434.349 469.407C438.19 469.407 441.304 472.521 441.304 476.363C441.304 480.204 438.19 483.319 434.349 483.319C430.507 483.319 427.393 480.204 427.393 476.363Z" fill="white"/>
<path d="M779.674 293.994L779.039 293.874C769.754 292.129 760.811 298.24 759.065 307.526L707.964 579.267C706.217 588.556 712.329 597.496 721.614 599.246L722.25 599.36C731.536 601.11 740.478 594.998 742.224 585.715L793.325 313.968C795.071 304.682 788.959 295.74 779.674 293.994Z" fill="#FFC700"/>
<path d="M718.998 548.762L718.878 549.396C717.132 558.685 723.244 567.626 732.529 569.369L762.259 574.962C771.544 576.705 780.487 570.599 782.233 561.31L782.352 560.676C784.098 551.387 777.987 542.447 768.702 540.701L738.972 535.111C729.687 533.365 720.744 539.476 718.998 548.762Z" fill="#FFC700"/>
<path d="M739.126 500.362L739.006 500.998C737.261 510.283 743.373 519.225 752.658 520.971L792.027 528.375C801.312 530.121 810.255 524.009 812.001 514.724L812.121 514.089C813.867 504.803 807.755 495.861 798.47 494.114L759.1 486.711C749.815 484.965 740.872 491.077 739.126 500.362Z" fill="#FFC700"/>
<path fill-rule="evenodd" clip-rule="evenodd" d="M736.221 197.018C750.722 183.177 769.996 175.454 790.041 175.453C794.902 175.452 799.753 175.907 804.529 176.809C824.226 180.533 841.731 191.7 853.409 207.993C865.087 224.285 870.041 244.449 867.242 264.298C864.442 284.146 854.104 302.154 838.376 314.581C822.647 327.007 802.736 332.897 782.778 331.028C762.821 329.159 744.35 319.674 731.202 304.543C718.054 289.412 711.24 269.798 712.175 249.775C713.11 229.752 721.722 210.858 736.221 197.018ZM797.136 216.07C794.803 215.628 792.435 215.403 790.06 215.398H790.041C780.599 215.426 771.505 218.974 764.538 225.347C757.571 231.721 753.231 240.463 752.365 249.866C751.499 259.269 754.17 268.657 759.855 276.196C765.54 283.735 773.832 288.883 783.111 290.636C785.452 291.079 787.829 291.304 790.212 291.308C799.655 291.278 808.746 287.73 815.712 281.356C822.678 274.982 827.017 266.24 827.882 256.837C828.748 247.435 826.076 238.048 820.391 230.509C814.706 222.971 806.414 217.823 797.136 216.07Z" fill="#FFC700"/>
<path fill-rule="evenodd" clip-rule="evenodd" d="M755.702 323.322L756.576 323.697L756.201 324.571L755.825 325.445L754.951 325.07L755.702 323.322ZM756.201 324.571C755.825 325.445 755.825 325.445 755.825 325.445L755.856 325.458L755.944 325.496C756.02 325.528 756.133 325.576 756.279 325.638C756.57 325.76 756.992 325.937 757.517 326.153C758.566 326.584 760.028 327.174 761.678 327.806C764.961 329.065 769.043 330.514 772.095 331.206L773.023 331.416L773.443 329.561L772.516 329.35C769.608 328.692 765.637 327.287 762.358 326.03C760.727 325.405 759.28 324.821 758.241 324.394C757.721 324.18 757.304 324.006 757.017 323.885C756.874 323.824 756.763 323.777 756.688 323.745L756.604 323.709L756.576 323.697L756.201 324.571Z" fill="white"/>
<path fill-rule="evenodd" clip-rule="evenodd" d="M724.83 534.622L716.667 577.33L714.799 576.973L722.961 534.264L724.83 534.622Z" fill="white"/>
<path fill-rule="evenodd" clip-rule="evenodd" d="M730.298 508.095L726.424 528.166L724.557 527.806L728.43 507.734L730.298 508.095Z" fill="white"/>
</svg>
